G75*
%MOIN*%
%OFA0B0*%
%FSLAX24Y24*%
%IPPOS*%
%LPD*%
%AMOC8*
5,1,8,0,0,1.08239X$1,22.5*
%
%ADD10C,0.0079*%
%ADD11C,0.0060*%
%ADD12C,0.0059*%
%ADD13C,0.0100*%
%ADD14C,0.0050*%
%ADD15C,0.0080*%
D10*
X004564Y005440D02*
X004814Y005627D01*
X004564Y005815D01*
X004564Y005440D01*
X004564Y005498D02*
X004641Y005498D01*
X004564Y005575D02*
X004744Y005575D01*
X004780Y005653D02*
X004564Y005653D01*
X004564Y005730D02*
X004677Y005730D01*
X004574Y005807D02*
X004564Y005807D01*
X004814Y005815D02*
X004814Y005627D01*
X004814Y005440D01*
X004814Y005627D02*
X005189Y005627D01*
X004814Y005627D02*
X004189Y005627D01*
X001655Y005912D02*
X001657Y005962D01*
X001663Y006012D01*
X001673Y006061D01*
X001687Y006109D01*
X001704Y006156D01*
X001725Y006201D01*
X001750Y006245D01*
X001778Y006286D01*
X001810Y006325D01*
X001844Y006362D01*
X001881Y006396D01*
X001921Y006426D01*
X001963Y006453D01*
X002007Y006477D01*
X002053Y006498D01*
X002100Y006514D01*
X002148Y006527D01*
X002198Y006536D01*
X002247Y006541D01*
X002298Y006542D01*
X002348Y006539D01*
X002397Y006532D01*
X002446Y006521D01*
X002494Y006506D01*
X002540Y006488D01*
X002585Y006466D01*
X002628Y006440D01*
X002669Y006411D01*
X002708Y006379D01*
X002744Y006344D01*
X002776Y006306D01*
X002806Y006266D01*
X002833Y006223D01*
X002856Y006179D01*
X002875Y006133D01*
X002891Y006085D01*
X002903Y006036D01*
X002911Y005987D01*
X002915Y005937D01*
X002915Y005887D01*
X002911Y005837D01*
X002903Y005788D01*
X002891Y005739D01*
X002875Y005691D01*
X002856Y005645D01*
X002833Y005601D01*
X002806Y005558D01*
X002776Y005518D01*
X002744Y005480D01*
X002708Y005445D01*
X002669Y005413D01*
X002628Y005384D01*
X002585Y005358D01*
X002540Y005336D01*
X002494Y005318D01*
X002446Y005303D01*
X002397Y005292D01*
X002348Y005285D01*
X002298Y005282D01*
X002247Y005283D01*
X002198Y005288D01*
X002148Y005297D01*
X002100Y005310D01*
X002053Y005326D01*
X002007Y005347D01*
X001963Y005371D01*
X001921Y005398D01*
X001881Y005428D01*
X001844Y005462D01*
X001810Y005499D01*
X001778Y005538D01*
X001750Y005579D01*
X001725Y005623D01*
X001704Y005668D01*
X001687Y005715D01*
X001673Y005763D01*
X001663Y005812D01*
X001657Y005862D01*
X001655Y005912D01*
X007439Y005627D02*
X007814Y005627D01*
X007876Y005815D01*
X008001Y005440D01*
X008126Y005815D01*
X008251Y005440D01*
X008376Y005815D01*
X008501Y005440D01*
X008564Y005627D01*
X008939Y005627D01*
X009962Y005912D02*
X009964Y005962D01*
X009970Y006012D01*
X009980Y006061D01*
X009994Y006109D01*
X010011Y006156D01*
X010032Y006201D01*
X010057Y006245D01*
X010085Y006286D01*
X010117Y006325D01*
X010151Y006362D01*
X010188Y006396D01*
X010228Y006426D01*
X010270Y006453D01*
X010314Y006477D01*
X010360Y006498D01*
X010407Y006514D01*
X010455Y006527D01*
X010505Y006536D01*
X010554Y006541D01*
X010605Y006542D01*
X010655Y006539D01*
X010704Y006532D01*
X010753Y006521D01*
X010801Y006506D01*
X010847Y006488D01*
X010892Y006466D01*
X010935Y006440D01*
X010976Y006411D01*
X011015Y006379D01*
X011051Y006344D01*
X011083Y006306D01*
X011113Y006266D01*
X011140Y006223D01*
X011163Y006179D01*
X011182Y006133D01*
X011198Y006085D01*
X011210Y006036D01*
X011218Y005987D01*
X011222Y005937D01*
X011222Y005887D01*
X011218Y005837D01*
X011210Y005788D01*
X011198Y005739D01*
X011182Y005691D01*
X011163Y005645D01*
X011140Y005601D01*
X011113Y005558D01*
X011083Y005518D01*
X011051Y005480D01*
X011015Y005445D01*
X010976Y005413D01*
X010935Y005384D01*
X010892Y005358D01*
X010847Y005336D01*
X010801Y005318D01*
X010753Y005303D01*
X010704Y005292D01*
X010655Y005285D01*
X010605Y005282D01*
X010554Y005283D01*
X010505Y005288D01*
X010455Y005297D01*
X010407Y005310D01*
X010360Y005326D01*
X010314Y005347D01*
X010270Y005371D01*
X010228Y005398D01*
X010188Y005428D01*
X010151Y005462D01*
X010117Y005499D01*
X010085Y005538D01*
X010057Y005579D01*
X010032Y005623D01*
X010011Y005668D01*
X009994Y005715D01*
X009980Y005763D01*
X009970Y005812D01*
X009964Y005862D01*
X009962Y005912D01*
D11*
X004018Y002793D02*
X003962Y002793D01*
X004132Y002793D02*
X004359Y002793D01*
X004359Y002737D02*
X004359Y002850D01*
X004359Y002982D02*
X004132Y002982D01*
X004132Y003152D01*
X004188Y003209D01*
X004359Y003209D01*
X004302Y003350D02*
X004132Y003350D01*
X004302Y003350D02*
X004359Y003407D01*
X004359Y003577D01*
X004415Y003577D02*
X004132Y003577D01*
X004132Y003719D02*
X004018Y003832D01*
X004359Y003832D01*
X004359Y003719D02*
X004359Y003946D01*
X004302Y004087D02*
X004359Y004144D01*
X004359Y004257D01*
X004302Y004314D01*
X004245Y004314D01*
X004188Y004257D01*
X004188Y004200D01*
X004188Y004257D02*
X004132Y004314D01*
X004075Y004314D01*
X004018Y004257D01*
X004018Y004144D01*
X004075Y004087D01*
X004132Y004455D02*
X004018Y004569D01*
X004132Y004682D01*
X004359Y004682D01*
X004188Y004682D02*
X004188Y004455D01*
X004132Y004455D02*
X004359Y004455D01*
X004850Y004764D02*
X004907Y004707D01*
X005020Y004707D01*
X005077Y004764D01*
X005077Y005048D01*
X005219Y004934D02*
X005332Y005048D01*
X005332Y004707D01*
X005219Y004707D02*
X005445Y004707D01*
X004850Y004764D02*
X004850Y005048D01*
X005347Y005457D02*
X005347Y005798D01*
X005404Y005628D02*
X005574Y005457D01*
X005347Y005571D02*
X005574Y005798D01*
X005820Y006207D02*
X005763Y006264D01*
X005820Y006207D02*
X005933Y006207D01*
X005990Y006264D01*
X005990Y006321D01*
X005933Y006378D01*
X005877Y006378D01*
X005933Y006378D02*
X005990Y006434D01*
X005990Y006491D01*
X005933Y006548D01*
X005820Y006548D01*
X005763Y006491D01*
X006132Y006491D02*
X006188Y006548D01*
X006302Y006548D01*
X006358Y006491D01*
X006358Y006434D01*
X006132Y006207D01*
X006358Y006207D01*
X006500Y006207D02*
X006727Y006207D01*
X006613Y006207D02*
X006613Y006548D01*
X006500Y006434D01*
X006868Y006378D02*
X006868Y006264D01*
X006925Y006207D01*
X007038Y006207D01*
X007095Y006264D01*
X007095Y006321D01*
X007038Y006378D01*
X006868Y006378D01*
X006982Y006491D01*
X007095Y006548D01*
X007095Y007207D02*
X006868Y007207D01*
X007095Y007434D01*
X007095Y007491D01*
X007038Y007548D01*
X006925Y007548D01*
X006868Y007491D01*
X006613Y007548D02*
X006613Y007207D01*
X006500Y007207D02*
X006727Y007207D01*
X006500Y007434D02*
X006613Y007548D01*
X006358Y007491D02*
X006358Y007264D01*
X006302Y007207D01*
X006188Y007207D01*
X006132Y007264D01*
X006358Y007491D01*
X006302Y007548D01*
X006188Y007548D01*
X006132Y007491D01*
X006132Y007264D01*
X005990Y007207D02*
X005763Y007207D01*
X005990Y007434D01*
X005990Y007491D01*
X005933Y007548D01*
X005820Y007548D01*
X005763Y007491D01*
X005763Y007957D02*
X005990Y007957D01*
X005877Y007957D02*
X005877Y008298D01*
X005763Y008184D01*
X006132Y008128D02*
X006132Y008014D01*
X006188Y007957D01*
X006302Y007957D01*
X006358Y008014D01*
X006358Y008071D01*
X006302Y008128D01*
X006132Y008128D01*
X006245Y008241D01*
X006358Y008298D01*
X006500Y008241D02*
X006557Y008298D01*
X006670Y008298D01*
X006727Y008241D01*
X006500Y008014D01*
X006557Y007957D01*
X006670Y007957D01*
X006727Y008014D01*
X006727Y008241D01*
X006868Y008241D02*
X006925Y008298D01*
X007038Y008298D01*
X007095Y008241D01*
X007095Y008184D01*
X007038Y008128D01*
X006925Y008128D01*
X006868Y008184D01*
X006868Y008241D01*
X006925Y008128D02*
X006868Y008071D01*
X006868Y008014D01*
X006925Y007957D01*
X007038Y007957D01*
X007095Y008014D01*
X007095Y008071D01*
X007038Y008128D01*
X007038Y008582D02*
X006925Y008582D01*
X006868Y008639D01*
X006868Y008753D02*
X006982Y008809D01*
X007038Y008809D01*
X007095Y008753D01*
X007095Y008639D01*
X007038Y008582D01*
X006868Y008753D02*
X006868Y008923D01*
X007095Y008923D01*
X007038Y009082D02*
X006925Y009082D01*
X006868Y009139D01*
X006727Y009139D02*
X006670Y009082D01*
X006557Y009082D01*
X006500Y009139D01*
X006727Y009366D01*
X006727Y009139D01*
X006670Y008923D02*
X006557Y008923D01*
X006500Y008866D01*
X006500Y008639D01*
X006727Y008866D01*
X006727Y008639D01*
X006670Y008582D01*
X006557Y008582D01*
X006500Y008639D01*
X006358Y008639D02*
X006302Y008582D01*
X006188Y008582D01*
X006132Y008639D01*
X006358Y008866D01*
X006358Y008639D01*
X006132Y008639D02*
X006132Y008866D01*
X006188Y008923D01*
X006302Y008923D01*
X006358Y008866D01*
X006302Y009082D02*
X006358Y009139D01*
X006358Y009196D01*
X006302Y009253D01*
X006132Y009253D01*
X006132Y009139D01*
X006188Y009082D01*
X006302Y009082D01*
X006132Y009253D02*
X006245Y009366D01*
X006358Y009423D01*
X006500Y009366D02*
X006557Y009423D01*
X006670Y009423D01*
X006727Y009366D01*
X006868Y009366D02*
X006925Y009423D01*
X007038Y009423D01*
X007095Y009366D01*
X007095Y009309D01*
X007038Y009253D01*
X007095Y009196D01*
X007095Y009139D01*
X007038Y009082D01*
X007038Y009253D02*
X006982Y009253D01*
X006670Y008923D02*
X006727Y008866D01*
X006500Y009139D02*
X006500Y009366D01*
X005990Y009366D02*
X005990Y009139D01*
X005933Y009082D01*
X005820Y009082D01*
X005763Y009139D01*
X005990Y009366D01*
X005933Y009423D01*
X005820Y009423D01*
X005763Y009366D01*
X005763Y009139D01*
X005877Y008923D02*
X005763Y008809D01*
X005877Y008923D02*
X005877Y008582D01*
X005990Y008582D02*
X005763Y008582D01*
X006500Y008241D02*
X006500Y008014D01*
X008450Y007957D02*
X008450Y008298D01*
X008620Y008298D01*
X008677Y008241D01*
X008677Y008128D01*
X008620Y008071D01*
X008450Y008071D01*
X008563Y008071D02*
X008677Y007957D01*
X008818Y008014D02*
X008875Y007957D01*
X008988Y007957D01*
X009045Y008014D01*
X009045Y008071D01*
X008988Y008128D01*
X008932Y008128D01*
X008988Y008128D02*
X009045Y008184D01*
X009045Y008241D01*
X008988Y008298D01*
X008875Y008298D01*
X008818Y008241D01*
X008901Y007548D02*
X008730Y007548D01*
X008730Y007207D01*
X008730Y007321D02*
X008901Y007321D01*
X008957Y007378D01*
X008957Y007491D01*
X008901Y007548D01*
X009099Y007491D02*
X009155Y007548D01*
X009269Y007548D01*
X009326Y007491D01*
X009326Y007434D01*
X009099Y007207D01*
X009326Y007207D01*
X008957Y007207D02*
X008844Y007321D01*
X009219Y006548D02*
X009389Y006548D01*
X009445Y006491D01*
X009445Y006378D01*
X009389Y006321D01*
X009219Y006321D01*
X009332Y006321D02*
X009445Y006207D01*
X009587Y006207D02*
X009814Y006207D01*
X009700Y006207D02*
X009700Y006548D01*
X009587Y006434D01*
X009219Y006548D02*
X009219Y006207D01*
X009255Y005173D02*
X009199Y005116D01*
X009199Y004889D01*
X009255Y004832D01*
X009369Y004832D01*
X009425Y004889D01*
X009425Y005003D01*
X009312Y005003D01*
X009425Y005116D02*
X009369Y005173D01*
X009255Y005173D01*
X009057Y005003D02*
X008830Y005003D01*
X008689Y004832D02*
X008462Y004832D01*
X008575Y004832D02*
X008575Y005173D01*
X008462Y005059D01*
X008320Y005173D02*
X008094Y005173D01*
X008207Y005173D02*
X008207Y004832D01*
X008207Y004673D02*
X008207Y004332D01*
X008207Y004173D02*
X008207Y003832D01*
X008207Y003673D02*
X008207Y003332D01*
X008207Y003173D02*
X008207Y002832D01*
X008207Y002673D02*
X008207Y002332D01*
X008462Y002389D02*
X008519Y002332D01*
X008632Y002332D01*
X008689Y002389D01*
X008689Y002446D01*
X008632Y002503D01*
X008462Y002503D01*
X008462Y002389D01*
X008462Y002503D02*
X008575Y002616D01*
X008689Y002673D01*
X008632Y002832D02*
X008519Y002832D01*
X008462Y002889D01*
X008462Y003003D02*
X008575Y003059D01*
X008632Y003059D01*
X008689Y003003D01*
X008689Y002889D01*
X008632Y002832D01*
X008462Y003003D02*
X008462Y003173D01*
X008689Y003173D01*
X008632Y003332D02*
X008632Y003673D01*
X008462Y003503D01*
X008689Y003503D01*
X008830Y003503D02*
X009057Y003503D01*
X009199Y003559D02*
X009255Y003503D01*
X009369Y003503D01*
X009425Y003446D01*
X009425Y003389D01*
X009369Y003332D01*
X009255Y003332D01*
X009199Y003389D01*
X009199Y003559D02*
X009199Y003616D01*
X009255Y003673D01*
X009369Y003673D01*
X009425Y003616D01*
X009567Y003616D02*
X009567Y003389D01*
X009624Y003332D01*
X009737Y003332D01*
X009794Y003389D01*
X009935Y003332D02*
X009935Y003673D01*
X009794Y003616D02*
X009737Y003673D01*
X009624Y003673D01*
X009567Y003616D01*
X009624Y003832D02*
X009567Y003889D01*
X009624Y003832D02*
X009737Y003832D01*
X009794Y003889D01*
X009794Y003946D01*
X009737Y004003D01*
X009680Y004003D01*
X009737Y004003D02*
X009794Y004059D01*
X009794Y004116D01*
X009737Y004173D01*
X009624Y004173D01*
X009567Y004116D01*
X009425Y004003D02*
X009199Y004003D01*
X009057Y004003D02*
X008830Y004003D01*
X008689Y004059D02*
X008632Y004003D01*
X008689Y003946D01*
X008689Y003889D01*
X008632Y003832D01*
X008519Y003832D01*
X008462Y003889D01*
X008575Y004003D02*
X008632Y004003D01*
X008689Y004059D02*
X008689Y004116D01*
X008632Y004173D01*
X008519Y004173D01*
X008462Y004116D01*
X008320Y004173D02*
X008094Y004173D01*
X008462Y004332D02*
X008689Y004559D01*
X008689Y004616D01*
X008632Y004673D01*
X008519Y004673D01*
X008462Y004616D01*
X008320Y004673D02*
X008094Y004673D01*
X007695Y004707D02*
X007469Y004707D01*
X007582Y004707D02*
X007582Y005048D01*
X007469Y004934D01*
X007327Y004991D02*
X007270Y005048D01*
X007157Y005048D01*
X007100Y004991D01*
X007100Y004764D01*
X007157Y004707D01*
X007270Y004707D01*
X007327Y004764D01*
X006695Y005520D02*
X006695Y005690D01*
X006639Y005747D01*
X006582Y005690D01*
X006582Y005520D01*
X006469Y005520D02*
X006469Y005747D01*
X006525Y005747D01*
X006582Y005690D01*
X006327Y005690D02*
X006327Y005520D01*
X006214Y005520D02*
X006214Y005690D01*
X006270Y005747D01*
X006327Y005690D01*
X006214Y005690D02*
X006157Y005747D01*
X006100Y005747D01*
X006100Y005520D01*
X004228Y007207D02*
X004001Y007207D01*
X004228Y007434D01*
X004228Y007491D01*
X004171Y007548D01*
X004058Y007548D01*
X004001Y007491D01*
X003859Y007491D02*
X003859Y007264D01*
X003803Y007207D01*
X003633Y007207D01*
X003633Y007548D01*
X003803Y007548D01*
X003859Y007491D01*
X003921Y007957D02*
X003751Y007957D01*
X003751Y008298D01*
X003921Y008298D01*
X003978Y008241D01*
X003978Y008014D01*
X003921Y007957D01*
X004119Y008014D02*
X004176Y007957D01*
X004289Y007957D01*
X004346Y008014D01*
X004346Y008071D01*
X004289Y008128D01*
X004232Y008128D01*
X004289Y008128D02*
X004346Y008184D01*
X004346Y008241D01*
X004289Y008298D01*
X004176Y008298D01*
X004119Y008241D01*
X003589Y006548D02*
X003589Y006207D01*
X003702Y006207D02*
X003475Y006207D01*
X003334Y006264D02*
X003334Y006491D01*
X003277Y006548D01*
X003107Y006548D01*
X003107Y006207D01*
X003277Y006207D01*
X003334Y006264D01*
X003475Y006434D02*
X003589Y006548D01*
X003898Y005798D02*
X004011Y005684D01*
X004011Y005457D01*
X004011Y005628D02*
X003784Y005628D01*
X003784Y005684D02*
X003898Y005798D01*
X003784Y005684D02*
X003784Y005457D01*
X004415Y003577D02*
X004472Y003521D01*
X004472Y003464D01*
X004132Y002793D02*
X004132Y002737D01*
X004132Y002604D02*
X004132Y002491D01*
X004075Y002548D02*
X004302Y002548D01*
X004359Y002604D01*
X004348Y002298D02*
X004291Y002241D01*
X004291Y002184D01*
X004348Y002128D01*
X004461Y002128D01*
X004518Y002071D01*
X004518Y002014D01*
X004461Y001957D01*
X004348Y001957D01*
X004291Y002014D01*
X004348Y002298D02*
X004461Y002298D01*
X004518Y002241D01*
X004659Y002298D02*
X004659Y001957D01*
X004773Y002071D01*
X004886Y001957D01*
X004886Y002298D01*
X005028Y002184D02*
X005141Y002298D01*
X005141Y001957D01*
X005028Y001957D02*
X005255Y001957D01*
X008094Y002673D02*
X008320Y002673D01*
X008320Y003173D02*
X008094Y003173D01*
X008094Y003673D02*
X008320Y003673D01*
X008462Y004332D02*
X008689Y004332D01*
X008830Y004503D02*
X009057Y004503D01*
X009199Y004446D02*
X009369Y004446D01*
X009425Y004503D01*
X009425Y004616D01*
X009369Y004673D01*
X009199Y004673D01*
X009199Y004332D01*
X009312Y004446D02*
X009425Y004332D01*
X009567Y004332D02*
X009794Y004332D01*
X009935Y004389D02*
X009992Y004332D01*
X010105Y004332D01*
X010162Y004389D01*
X010162Y004446D01*
X010105Y004503D01*
X009992Y004503D01*
X009935Y004559D01*
X009935Y004616D01*
X009992Y004673D01*
X010105Y004673D01*
X010162Y004616D01*
X010303Y004673D02*
X010303Y004332D01*
X010530Y004332D01*
X010474Y004173D02*
X010360Y004173D01*
X010303Y004116D01*
X010417Y004003D02*
X010474Y004003D01*
X010530Y003946D01*
X010530Y003889D01*
X010474Y003832D01*
X010360Y003832D01*
X010303Y003889D01*
X010474Y004003D02*
X010530Y004059D01*
X010530Y004116D01*
X010474Y004173D01*
X010417Y004503D02*
X010303Y004503D01*
X010303Y004673D02*
X010530Y004673D01*
X010672Y004673D02*
X010899Y004673D01*
X010785Y004673D02*
X010785Y004332D01*
X010162Y004173D02*
X010162Y003946D01*
X010049Y003832D01*
X009935Y003946D01*
X009935Y004173D01*
X009680Y004503D02*
X009567Y004503D01*
X009567Y004673D02*
X009567Y004332D01*
X009312Y004116D02*
X009312Y003889D01*
X009935Y003446D02*
X010162Y003673D01*
X009992Y003503D02*
X010162Y003332D01*
X010237Y003173D02*
X010181Y003116D01*
X010181Y002889D01*
X010237Y002832D01*
X010351Y002832D01*
X010408Y002889D01*
X010408Y003116D01*
X010351Y003173D01*
X010237Y003173D01*
X010039Y003116D02*
X009983Y003173D01*
X009869Y003173D01*
X009812Y003116D01*
X009812Y003059D01*
X009869Y003003D01*
X009983Y003003D01*
X010039Y002946D01*
X010039Y002889D01*
X009983Y002832D01*
X009869Y002832D01*
X009812Y002889D01*
X009680Y002832D02*
X009567Y002832D01*
X009624Y002832D02*
X009624Y003173D01*
X009680Y003173D02*
X009567Y003173D01*
X009425Y003173D02*
X009425Y002832D01*
X009425Y002673D02*
X009425Y002332D01*
X009567Y002389D02*
X009624Y002332D01*
X009737Y002332D01*
X009794Y002389D01*
X009794Y002616D01*
X009737Y002673D01*
X009624Y002673D01*
X009567Y002616D01*
X009567Y002389D01*
X009312Y002559D02*
X009425Y002673D01*
X009312Y002559D02*
X009199Y002673D01*
X009199Y002332D01*
X009057Y002503D02*
X008830Y002503D01*
X009199Y002832D02*
X009199Y003173D01*
X009312Y003059D01*
X009425Y003173D01*
X009057Y003003D02*
X008830Y003003D01*
X009935Y002616D02*
X009935Y002559D01*
X009992Y002503D01*
X010105Y002503D01*
X010162Y002446D01*
X010162Y002389D01*
X010105Y002332D01*
X009992Y002332D01*
X009935Y002389D01*
X009935Y002616D02*
X009992Y002673D01*
X010105Y002673D01*
X010162Y002616D01*
X010303Y002673D02*
X010417Y002673D01*
X010360Y002673D02*
X010360Y002332D01*
X010303Y002332D02*
X010417Y002332D01*
X009794Y004673D02*
X009567Y004673D01*
X009567Y004832D02*
X009567Y005173D01*
X009794Y004832D01*
X009794Y005173D01*
X009935Y005173D02*
X010105Y005173D01*
X010162Y005116D01*
X010162Y004889D01*
X010105Y004832D01*
X009935Y004832D01*
X009935Y005173D01*
X009893Y009187D02*
X009666Y009187D01*
X009893Y009414D01*
X009893Y009470D01*
X009836Y009527D01*
X009723Y009527D01*
X009666Y009470D01*
X009524Y009470D02*
X009524Y009243D01*
X009468Y009187D01*
X009354Y009187D01*
X009298Y009243D01*
X009524Y009470D01*
X009468Y009527D01*
X009354Y009527D01*
X009298Y009470D01*
X009298Y009243D01*
X009156Y009187D02*
X008929Y009187D01*
X009156Y009414D01*
X009156Y009470D01*
X009099Y009527D01*
X008986Y009527D01*
X008929Y009470D01*
X010034Y009357D02*
X010261Y009357D01*
X010402Y009414D02*
X010516Y009187D01*
X010629Y009414D01*
X010771Y009357D02*
X010771Y009243D01*
X010828Y009187D01*
X010941Y009187D01*
X010998Y009300D02*
X010771Y009300D01*
X010771Y009357D02*
X010828Y009414D01*
X010941Y009414D01*
X010998Y009357D01*
X010998Y009300D01*
X011139Y009300D02*
X011253Y009414D01*
X011309Y009414D01*
X011139Y009414D02*
X011139Y009187D01*
X011446Y009187D02*
X011503Y009187D01*
X011503Y009243D01*
X011446Y009243D01*
X011446Y009187D01*
X011630Y009187D02*
X011857Y009414D01*
X011857Y009470D01*
X011800Y009527D01*
X011687Y009527D01*
X011630Y009470D01*
X011630Y009187D02*
X011857Y009187D01*
X010204Y009187D02*
X010204Y009527D01*
X010034Y009357D01*
X009139Y011707D02*
X009195Y011764D01*
X009195Y011821D01*
X009139Y011878D01*
X008969Y011878D01*
X008969Y011764D01*
X009025Y011707D01*
X009139Y011707D01*
X008969Y011878D02*
X009082Y011991D01*
X009195Y012048D01*
X008827Y012048D02*
X008600Y012048D01*
X008714Y012048D02*
X008714Y011707D01*
X008195Y011764D02*
X008139Y011707D01*
X008025Y011707D01*
X007969Y011764D01*
X007969Y011878D02*
X008082Y011934D01*
X008139Y011934D01*
X008195Y011878D01*
X008195Y011764D01*
X007969Y011878D02*
X007969Y012048D01*
X008195Y012048D01*
X007827Y012048D02*
X007600Y012048D01*
X007714Y012048D02*
X007714Y011707D01*
X007195Y011878D02*
X006969Y011878D01*
X007139Y012048D01*
X007139Y011707D01*
X006714Y011707D02*
X006714Y012048D01*
X006827Y012048D02*
X006600Y012048D01*
X006195Y011991D02*
X006195Y011934D01*
X006139Y011878D01*
X006195Y011821D01*
X006195Y011764D01*
X006139Y011707D01*
X006025Y011707D01*
X005969Y011764D01*
X006082Y011878D02*
X006139Y011878D01*
X006195Y011991D02*
X006139Y012048D01*
X006025Y012048D01*
X005969Y011991D01*
X005827Y012048D02*
X005600Y012048D01*
X005714Y012048D02*
X005714Y011707D01*
X005195Y011707D02*
X004969Y011707D01*
X005195Y011934D01*
X005195Y011991D01*
X005139Y012048D01*
X005025Y012048D01*
X004969Y011991D01*
X004827Y012048D02*
X004600Y012048D01*
X004714Y012048D02*
X004714Y011707D01*
X004195Y011707D02*
X003969Y011707D01*
X004082Y011707D02*
X004082Y012048D01*
X003969Y011934D01*
X003827Y012048D02*
X003600Y012048D01*
X003714Y012048D02*
X003714Y011707D01*
D12*
X003644Y011252D02*
X003646Y011286D01*
X003652Y011320D01*
X003662Y011353D01*
X003675Y011384D01*
X003693Y011414D01*
X003713Y011442D01*
X003737Y011467D01*
X003763Y011489D01*
X003791Y011507D01*
X003822Y011523D01*
X003854Y011535D01*
X003888Y011543D01*
X003922Y011547D01*
X003956Y011547D01*
X003990Y011543D01*
X004024Y011535D01*
X004056Y011523D01*
X004086Y011507D01*
X004115Y011489D01*
X004141Y011467D01*
X004165Y011442D01*
X004185Y011414D01*
X004203Y011384D01*
X004216Y011353D01*
X004226Y011320D01*
X004232Y011286D01*
X004234Y011252D01*
X004232Y011218D01*
X004226Y011184D01*
X004216Y011151D01*
X004203Y011120D01*
X004185Y011090D01*
X004165Y011062D01*
X004141Y011037D01*
X004115Y011015D01*
X004087Y010997D01*
X004056Y010981D01*
X004024Y010969D01*
X003990Y010961D01*
X003956Y010957D01*
X003922Y010957D01*
X003888Y010961D01*
X003854Y010969D01*
X003822Y010981D01*
X003791Y010997D01*
X003763Y011015D01*
X003737Y011037D01*
X003713Y011062D01*
X003693Y011090D01*
X003675Y011120D01*
X003662Y011151D01*
X003652Y011184D01*
X003646Y011218D01*
X003644Y011252D01*
X003671Y010765D02*
X003593Y010765D01*
X003412Y010585D01*
X003232Y010765D01*
X003154Y010765D01*
X003099Y010709D01*
X003099Y009973D01*
X003154Y009918D01*
X003232Y009918D01*
X003288Y009973D01*
X003288Y010442D01*
X003318Y010412D01*
X003373Y010356D01*
X003452Y010356D01*
X003492Y010396D01*
X003507Y010412D01*
X003537Y010442D01*
X003537Y009973D01*
X003593Y009918D01*
X003671Y009918D01*
X003726Y009973D01*
X003726Y010709D01*
X003671Y010765D01*
X003824Y010709D02*
X003824Y009973D01*
X003879Y009918D01*
X004286Y009918D01*
X004451Y010083D01*
X004451Y010600D01*
X004286Y010765D01*
X003879Y010765D01*
X003824Y010709D01*
X004013Y010576D02*
X004208Y010576D01*
X004262Y010521D01*
X004262Y010161D01*
X004208Y010107D01*
X004013Y010107D01*
X004013Y010576D01*
X004933Y010600D02*
X004933Y010083D01*
X005042Y009973D01*
X005098Y009918D01*
X005395Y009918D01*
X005560Y010083D01*
X005560Y010161D01*
X005505Y010216D01*
X005427Y010216D01*
X005317Y010107D01*
X005176Y010107D01*
X005122Y010161D01*
X005122Y010521D01*
X005176Y010576D01*
X005317Y010576D01*
X005427Y010466D01*
X005505Y010466D01*
X005560Y010521D01*
X005560Y010600D01*
X005395Y010765D01*
X005098Y010765D01*
X004934Y010601D01*
X004933Y010600D01*
X004644Y011252D02*
X004646Y011286D01*
X004652Y011320D01*
X004662Y011353D01*
X004675Y011384D01*
X004693Y011414D01*
X004713Y011442D01*
X004737Y011467D01*
X004763Y011489D01*
X004791Y011507D01*
X004822Y011523D01*
X004854Y011535D01*
X004888Y011543D01*
X004922Y011547D01*
X004956Y011547D01*
X004990Y011543D01*
X005024Y011535D01*
X005056Y011523D01*
X005086Y011507D01*
X005115Y011489D01*
X005141Y011467D01*
X005165Y011442D01*
X005185Y011414D01*
X005203Y011384D01*
X005216Y011353D01*
X005226Y011320D01*
X005232Y011286D01*
X005234Y011252D01*
X005232Y011218D01*
X005226Y011184D01*
X005216Y011151D01*
X005203Y011120D01*
X005185Y011090D01*
X005165Y011062D01*
X005141Y011037D01*
X005115Y011015D01*
X005087Y010997D01*
X005056Y010981D01*
X005024Y010969D01*
X004990Y010961D01*
X004956Y010957D01*
X004922Y010957D01*
X004888Y010961D01*
X004854Y010969D01*
X004822Y010981D01*
X004791Y010997D01*
X004763Y011015D01*
X004737Y011037D01*
X004713Y011062D01*
X004693Y011090D01*
X004675Y011120D01*
X004662Y011151D01*
X004652Y011184D01*
X004646Y011218D01*
X004644Y011252D01*
X005658Y010709D02*
X005658Y009973D01*
X005713Y009918D01*
X005791Y009918D01*
X005847Y009973D01*
X005847Y010302D01*
X005901Y010356D01*
X006042Y010356D01*
X006096Y010302D01*
X006096Y009973D01*
X006152Y009918D01*
X006230Y009918D01*
X006285Y009973D01*
X006285Y010380D01*
X006230Y010436D01*
X006120Y010545D01*
X005847Y010545D01*
X005847Y010709D01*
X005791Y010765D01*
X005713Y010765D01*
X005658Y010709D01*
X005644Y011252D02*
X005646Y011286D01*
X005652Y011320D01*
X005662Y011353D01*
X005675Y011384D01*
X005693Y011414D01*
X005713Y011442D01*
X005737Y011467D01*
X005763Y011489D01*
X005791Y011507D01*
X005822Y011523D01*
X005854Y011535D01*
X005888Y011543D01*
X005922Y011547D01*
X005956Y011547D01*
X005990Y011543D01*
X006024Y011535D01*
X006056Y011523D01*
X006086Y011507D01*
X006115Y011489D01*
X006141Y011467D01*
X006165Y011442D01*
X006185Y011414D01*
X006203Y011384D01*
X006216Y011353D01*
X006226Y011320D01*
X006232Y011286D01*
X006234Y011252D01*
X006232Y011218D01*
X006226Y011184D01*
X006216Y011151D01*
X006203Y011120D01*
X006185Y011090D01*
X006165Y011062D01*
X006141Y011037D01*
X006115Y011015D01*
X006087Y010997D01*
X006056Y010981D01*
X006024Y010969D01*
X005990Y010961D01*
X005956Y010957D01*
X005922Y010957D01*
X005888Y010961D01*
X005854Y010969D01*
X005822Y010981D01*
X005791Y010997D01*
X005763Y011015D01*
X005737Y011037D01*
X005713Y011062D01*
X005693Y011090D01*
X005675Y011120D01*
X005662Y011151D01*
X005652Y011184D01*
X005646Y011218D01*
X005644Y011252D01*
X006492Y010490D02*
X006492Y010412D01*
X006548Y010356D01*
X006767Y010356D01*
X006797Y010326D01*
X006548Y010326D01*
X006492Y010271D01*
X006383Y010161D01*
X006383Y010083D01*
X006548Y009918D01*
X006955Y009918D01*
X007010Y009973D01*
X007010Y010380D01*
X006955Y010436D01*
X006845Y010545D01*
X006548Y010545D01*
X006492Y010490D01*
X006626Y010137D02*
X006821Y010137D01*
X006821Y010107D01*
X006626Y010107D01*
X006611Y010122D01*
X006626Y010137D01*
X007108Y010051D02*
X007108Y009973D01*
X007163Y009918D01*
X007461Y009918D01*
X007516Y009973D01*
X007516Y010051D01*
X007461Y010107D01*
X007406Y010107D01*
X007406Y010709D01*
X007351Y010765D01*
X007163Y010765D01*
X007108Y010709D01*
X007108Y010631D01*
X007163Y010576D01*
X007217Y010576D01*
X007217Y010107D01*
X007163Y010107D01*
X007108Y010051D01*
X007591Y010051D02*
X007591Y009973D01*
X007646Y009918D01*
X007944Y009918D01*
X007999Y009973D01*
X007999Y010051D01*
X007944Y010107D01*
X007890Y010107D01*
X007890Y010709D01*
X007834Y010765D01*
X007646Y010765D01*
X007591Y010709D01*
X007591Y010631D01*
X007646Y010576D01*
X007701Y010576D01*
X007701Y010107D01*
X007646Y010107D01*
X007591Y010051D01*
X008074Y010083D02*
X008239Y009918D01*
X008537Y009918D01*
X008593Y009973D01*
X008593Y010051D01*
X008537Y010107D01*
X008318Y010107D01*
X008288Y010137D01*
X008647Y010137D01*
X008702Y010192D01*
X008702Y010380D01*
X008647Y010436D01*
X008537Y010545D01*
X008239Y010545D01*
X008184Y010490D01*
X008074Y010380D01*
X008074Y010083D01*
X008288Y010326D02*
X008318Y010356D01*
X008459Y010356D01*
X008489Y010326D01*
X008288Y010326D01*
X008799Y010490D02*
X008799Y009973D01*
X008855Y009918D01*
X008933Y009918D01*
X008989Y009973D01*
X008989Y010356D01*
X009184Y010356D01*
X009238Y010302D01*
X009238Y009973D01*
X009294Y009918D01*
X009372Y009918D01*
X009427Y009973D01*
X009427Y010380D01*
X009372Y010436D01*
X009262Y010545D01*
X008855Y010545D01*
X008799Y010490D01*
X009525Y010380D02*
X009525Y010083D01*
X009634Y009973D01*
X009690Y009918D01*
X009939Y009918D01*
X009909Y009887D01*
X009799Y009887D01*
X009744Y009832D01*
X009744Y009754D01*
X009799Y009698D01*
X009987Y009698D01*
X010097Y009808D01*
X010152Y009863D01*
X010152Y010490D01*
X010097Y010545D01*
X009690Y010545D01*
X009580Y010436D01*
X009525Y010380D01*
X009714Y010302D02*
X009714Y010161D01*
X009768Y010107D01*
X009963Y010107D01*
X009963Y010356D01*
X009768Y010356D01*
X009714Y010302D01*
X010250Y010380D02*
X010250Y010083D01*
X010305Y010027D01*
X010415Y009918D01*
X010712Y009918D01*
X010768Y009973D01*
X010768Y010051D01*
X010712Y010107D01*
X010493Y010107D01*
X010463Y010137D01*
X010822Y010137D01*
X010877Y010192D01*
X010877Y010380D01*
X010822Y010436D01*
X010712Y010545D01*
X010415Y010545D01*
X010250Y010380D01*
X010463Y010326D02*
X010493Y010356D01*
X010634Y010356D01*
X010664Y010326D01*
X010463Y010326D01*
X008644Y011252D02*
X008646Y011286D01*
X008652Y011320D01*
X008662Y011353D01*
X008675Y011384D01*
X008693Y011414D01*
X008713Y011442D01*
X008737Y011467D01*
X008763Y011489D01*
X008791Y011507D01*
X008822Y011523D01*
X008854Y011535D01*
X008888Y011543D01*
X008922Y011547D01*
X008956Y011547D01*
X008990Y011543D01*
X009024Y011535D01*
X009056Y011523D01*
X009086Y011507D01*
X009115Y011489D01*
X009141Y011467D01*
X009165Y011442D01*
X009185Y011414D01*
X009203Y011384D01*
X009216Y011353D01*
X009226Y011320D01*
X009232Y011286D01*
X009234Y011252D01*
X009232Y011218D01*
X009226Y011184D01*
X009216Y011151D01*
X009203Y011120D01*
X009185Y011090D01*
X009165Y011062D01*
X009141Y011037D01*
X009115Y011015D01*
X009087Y010997D01*
X009056Y010981D01*
X009024Y010969D01*
X008990Y010961D01*
X008956Y010957D01*
X008922Y010957D01*
X008888Y010961D01*
X008854Y010969D01*
X008822Y010981D01*
X008791Y010997D01*
X008763Y011015D01*
X008737Y011037D01*
X008713Y011062D01*
X008693Y011090D01*
X008675Y011120D01*
X008662Y011151D01*
X008652Y011184D01*
X008646Y011218D01*
X008644Y011252D01*
X007644Y011252D02*
X007646Y011286D01*
X007652Y011320D01*
X007662Y011353D01*
X007675Y011384D01*
X007693Y011414D01*
X007713Y011442D01*
X007737Y011467D01*
X007763Y011489D01*
X007791Y011507D01*
X007822Y011523D01*
X007854Y011535D01*
X007888Y011543D01*
X007922Y011547D01*
X007956Y011547D01*
X007990Y011543D01*
X008024Y011535D01*
X008056Y011523D01*
X008086Y011507D01*
X008115Y011489D01*
X008141Y011467D01*
X008165Y011442D01*
X008185Y011414D01*
X008203Y011384D01*
X008216Y011353D01*
X008226Y011320D01*
X008232Y011286D01*
X008234Y011252D01*
X008232Y011218D01*
X008226Y011184D01*
X008216Y011151D01*
X008203Y011120D01*
X008185Y011090D01*
X008165Y011062D01*
X008141Y011037D01*
X008115Y011015D01*
X008087Y010997D01*
X008056Y010981D01*
X008024Y010969D01*
X007990Y010961D01*
X007956Y010957D01*
X007922Y010957D01*
X007888Y010961D01*
X007854Y010969D01*
X007822Y010981D01*
X007791Y010997D01*
X007763Y011015D01*
X007737Y011037D01*
X007713Y011062D01*
X007693Y011090D01*
X007675Y011120D01*
X007662Y011151D01*
X007652Y011184D01*
X007646Y011218D01*
X007644Y011252D01*
X006644Y011252D02*
X006646Y011286D01*
X006652Y011320D01*
X006662Y011353D01*
X006675Y011384D01*
X006693Y011414D01*
X006713Y011442D01*
X006737Y011467D01*
X006763Y011489D01*
X006791Y011507D01*
X006822Y011523D01*
X006854Y011535D01*
X006888Y011543D01*
X006922Y011547D01*
X006956Y011547D01*
X006990Y011543D01*
X007024Y011535D01*
X007056Y011523D01*
X007086Y011507D01*
X007115Y011489D01*
X007141Y011467D01*
X007165Y011442D01*
X007185Y011414D01*
X007203Y011384D01*
X007216Y011353D01*
X007226Y011320D01*
X007232Y011286D01*
X007234Y011252D01*
X007232Y011218D01*
X007226Y011184D01*
X007216Y011151D01*
X007203Y011120D01*
X007185Y011090D01*
X007165Y011062D01*
X007141Y011037D01*
X007115Y011015D01*
X007087Y010997D01*
X007056Y010981D01*
X007024Y010969D01*
X006990Y010961D01*
X006956Y010957D01*
X006922Y010957D01*
X006888Y010961D01*
X006854Y010969D01*
X006822Y010981D01*
X006791Y010997D01*
X006763Y011015D01*
X006737Y011037D01*
X006713Y011062D01*
X006693Y011090D01*
X006675Y011120D01*
X006662Y011151D01*
X006652Y011184D01*
X006646Y011218D01*
X006644Y011252D01*
X007519Y008364D02*
X008070Y008364D01*
X008070Y007891D02*
X007519Y007891D01*
X007519Y007692D02*
X008307Y007692D01*
X008307Y007062D02*
X007519Y007062D01*
X007559Y006732D02*
X008819Y006732D01*
X008819Y006023D02*
X007559Y006023D01*
X006714Y005114D02*
X006163Y005114D01*
X006163Y004641D02*
X006714Y004641D01*
X005555Y006023D02*
X004059Y006023D01*
X004059Y006732D02*
X005555Y006732D01*
X005555Y007062D02*
X004570Y007062D01*
X004570Y007692D02*
X005555Y007692D01*
X005555Y007891D02*
X004807Y007891D01*
X004807Y008364D02*
X005555Y008364D01*
X003001Y010083D02*
X003001Y010271D01*
X002946Y010326D01*
X002836Y010436D01*
X002617Y010436D01*
X002563Y010490D01*
X002563Y010521D01*
X002617Y010576D01*
X002758Y010576D01*
X002868Y010466D01*
X002946Y010466D01*
X003001Y010521D01*
X003001Y010600D01*
X002836Y010765D01*
X002539Y010765D01*
X002375Y010601D01*
X002374Y010600D01*
X002374Y010412D01*
X002539Y010247D01*
X002758Y010247D01*
X002812Y010192D01*
X002812Y010161D01*
X002758Y010107D01*
X002617Y010107D01*
X002507Y010216D01*
X002429Y010216D01*
X002374Y010161D01*
X002374Y010083D01*
X002539Y009918D01*
X002836Y009918D01*
X002892Y009973D01*
X003001Y010083D01*
D13*
X004564Y004377D02*
X004814Y004252D01*
X004564Y004127D01*
X004564Y004377D01*
X004564Y004335D02*
X004648Y004335D01*
X004564Y004237D02*
X004783Y004237D01*
X004586Y004138D02*
X004564Y004138D01*
X005799Y001764D02*
X006488Y001764D01*
X006980Y001764D02*
X007078Y001764D01*
X007757Y001400D02*
X007757Y001105D01*
X007570Y000741D02*
X007029Y000741D01*
X006478Y000741D01*
X005307Y000741D01*
X005120Y001105D02*
X005120Y001400D01*
D14*
X005063Y008575D02*
X005555Y008575D01*
X005555Y008930D02*
X005063Y008930D01*
X005259Y009115D02*
X005555Y009115D01*
X005555Y009390D02*
X005259Y009390D01*
X004913Y009388D02*
X004733Y009388D01*
X004733Y009252D01*
X004823Y009298D01*
X004868Y009298D01*
X004913Y009252D01*
X004913Y009162D01*
X004868Y009117D01*
X004778Y009117D01*
X004733Y009162D01*
X004618Y009162D02*
X004618Y009343D01*
X004573Y009388D01*
X004438Y009388D01*
X004438Y009117D01*
X004573Y009117D01*
X004618Y009162D01*
X004625Y008888D02*
X004490Y008752D01*
X004670Y008752D01*
X004625Y008617D02*
X004625Y008888D01*
X004375Y008843D02*
X004375Y008662D01*
X004330Y008617D01*
X004195Y008617D01*
X004195Y008888D01*
X004330Y008888D01*
X004375Y008843D01*
X007381Y009115D02*
X007618Y009115D01*
X007421Y008930D02*
X007815Y008930D01*
X007900Y009117D02*
X007900Y009388D01*
X008035Y009388D01*
X008080Y009343D01*
X008080Y009252D01*
X008035Y009207D01*
X007900Y009207D01*
X007990Y009207D02*
X008080Y009117D01*
X008194Y009162D02*
X008239Y009117D01*
X008329Y009117D01*
X008374Y009162D01*
X008374Y009252D01*
X008329Y009298D01*
X008284Y009298D01*
X008194Y009252D01*
X008194Y009388D01*
X008374Y009388D01*
X008278Y008888D02*
X008143Y008888D01*
X008143Y008617D01*
X008143Y008707D02*
X008278Y008707D01*
X008323Y008752D01*
X008323Y008843D01*
X008278Y008888D01*
X008233Y008707D02*
X008323Y008617D01*
X008437Y008752D02*
X008618Y008752D01*
X008572Y008617D02*
X008572Y008888D01*
X008437Y008752D01*
X007815Y008575D02*
X007421Y008575D01*
X007381Y009390D02*
X007618Y009390D01*
D15*
X006939Y004447D02*
X006564Y004447D01*
X006314Y004447D01*
X006314Y004408D01*
X006314Y004447D02*
X005939Y004447D01*
X005691Y004042D02*
X005691Y003963D01*
X005691Y003542D02*
X005691Y003463D01*
X005691Y003042D02*
X005691Y002963D01*
X005939Y002557D02*
X006939Y002557D01*
X007187Y002963D02*
X007187Y003042D01*
X007187Y003463D02*
X007187Y003542D01*
X007187Y003963D02*
X007187Y004042D01*
X006564Y004408D02*
X006564Y004447D01*
X006564Y004408D02*
X006562Y004387D01*
X006557Y004367D01*
X006549Y004349D01*
X006538Y004331D01*
X006524Y004316D01*
X006507Y004303D01*
X006489Y004294D01*
X006470Y004287D01*
X006449Y004283D01*
X006429Y004283D01*
X006408Y004287D01*
X006389Y004294D01*
X006371Y004303D01*
X006354Y004316D01*
X006340Y004331D01*
X006329Y004349D01*
X006321Y004367D01*
X006316Y004387D01*
X006314Y004408D01*
M02*
