%
M48
M72
T01C0.0118
T02C0.0354
T03C0.0709
%
T01
X1939Y4252
X1939Y4877
X939Y4502
X5689Y4877
X6439Y3502
X9439Y3752
X9814Y3252
X10189Y2752
X10342Y2127
X10939Y2752
X10939Y3252
X10939Y3752
X6439Y6877
X6439Y10329
X6439Y11128
X6439Y11904
X7314Y11529
X7335Y10742
X5564Y10742
X5564Y11529
X3939Y10377
X3191Y10735
X3191Y11128
X3191Y11522
X2439Y9627
X9687Y10735
X9687Y11128
X9687Y11522
T02
X7029Y1252
X5848Y1252
T03
X2285Y5912
X10592Y5912
M30
