<svg version="1.1" xmlns="http://www.w3.org/2000/svg" xmlns:xlink="http://www.w3.org/1999/xlink" stroke-linecap="round" stroke-linejoin="round" stroke-width="0" fill-rule="evenodd" width="0.86265in" height="0.8709in" viewBox="234.35 156.1 862.65 870.9" id="Lyd0wtIPmOwrpXmIg74x"><g transform="translate(0,1183.1) scale(1,-1)" fill="currentColor" stroke="currentColor"><path d="M 304.2 848 321.3 862.9 289.3 865.2 285.6 869.5 286.2 877.5 294.8 884.9 302.8 884.3 M 313.5 893.6 317.2 889.3 325.2 888.7 324.6 880.7 328.3 876.4 336.3 875.8 344.9 883.2 345.5 891.2 M 356.2 900.5 364.2 899.9 372.8 907.3 373.4 915.3 341.4 917.6 356.2 900.5 M 341.4 917.6 342 925.6 350.6 933.1 358.6 932.5 373.4 915.3 M 387.8 920.2 405 935.1 373 937.4 369.3 941.7 369.9 949.7 378.5 957.1 386.5 956.5 M 397.2 965.8 404.6 957.2 412.6 956.6 425.5 967.7 M 432.9 959.1 410.6 984.9 397.8 973.8 397.2 965.8 M 416.9 960.3 415.7 944.3 M 439.9 972.7 447.9 972.1 456.5 979.5 457 987.5 442.2 1004.7 434.2 1005.3 425.6 997.8 425 989.8 M 330.7 908.4 322.7 909 314.1 901.6 313.5 893.6 M 325.2 888.7 329.5 892.4 M 805.3 1001.9 822.4 987.1 820.1 1019.1 823.8 1023.4 831.8 1024 840.4 1016.6 841 1008.6 M 851.7 999.3 854 967.3 846 966.8 837.4 974.2 836.8 982.2 851.7 999.3 859.7 999.9 868.3 992.5 868.8 984.5 854 967.3 M 861 953.8 878.2 939 875.8 971 879.5 975.3 887.5 975.9 896.1 968.4 896.7 960.5 M 907.4 951.2 903.7 946.9 904.3 938.9 896.3 938.3 892.6 934 893.2 926 901.8 918.6 909.8 919.2 M 908.6 935.2 904.3 938.9 M 907.4 951.2 915.4 951.8 924 944.4 924.6 936.4 M 927.9 918.6 945.1 903.7 M 948.4 885.9 949 877.9 957.5 870.5 965.5 871.1 980.4 888.3 979.8 896.3 971.2 903.7 963.2 903.1 M 991.1 879 987.4 874.7 988 866.7 1000.8 855.6 M 988 866.7 980 866.1 976.2 861.8 976.8 853.8 989.7 842.7 1011.9 868.5 999.1 879.6 991.1 879 M 1000.4 833.5 1017.6 818.7 1039.8 844.4 M 1059.9 735 1059.9 712.3 M 1059.9 723.6 1094 723.6 1082.6 712.3 M 1082.6 698.1 1076.9 692.5 1076.9 675.5 M 1059.9 675.5 1059.9 692.5 1065.6 698.1 1071.3 698.1 1076.9 692.5 M 1082.6 698.1 1088.3 698.1 1094 692.5 1094 675.5 1059.9 675.5" fill="none" stroke-width="6"/><path d="M 746.2 223 746.2 214.2 M 746.2 196.5 746.2 161.1 M 755 161.1 737.4 161.1 M 716.4 161.1 716.4 196.5 689.9 196.5 681 187.7 681 161.1 M 658.4 170 649.5 161.1 631.8 161.1 623 170 623 187.7 631.8 196.5 649.5 196.5 658.4 187.7 658.4 170 M 600.4 214.2 565 214.2 M 542.4 214.2 542.4 161.1 507 161.1 M 484.4 170 475.5 161.1 457.8 161.1 449 170 M 426.4 161.1 426.4 214.2 M 449 205.3 457.8 214.2 475.5 214.2 484.4 205.3 484.4 170 M 524.7 187.7 542.4 187.7 M 542.4 214.2 507 214.2 M 582.7 214.2 582.7 161.1 M 426.4 187.7 391 187.7 M 391 214.2 391 161.1 M 746.2 196.5 755 196.5 M 777.7 187.7 777.7 161.1 M 795.4 161.1 795.4 187.7 786.5 196.5 777.7 187.7 M 795.4 187.7 804.2 196.5 813 196.5 813 161.1 M 835.7 170 835.7 187.7 844.5 196.5 862.2 196.5 871 187.7 871 170 862.2 161.1 844.5 161.1 835.7 170 M 893.7 161.1 920.2 161.1 929 170 929 187.7 920.2 196.5 893.7 196.5 M 893.7 214.2 893.7 161.1" fill="none" stroke-width="10"/><path d="M 238.3 339.2 238.3 512.4 M 238.3 669.9 238.3 772.3 494.3 992.8 494.3 1002.6 793.5 1002.6 793.5 992.8 494.3 992.8 M 793.5 992.8 1049.4 772.3 1049.4 669.9 M 1049.4 512.4 1049.4 339.2 1049.2 332.6 1048.7 326 1047.7 319.4 1046.4 312.9 1044.8 306.5 1042.8 300.2 1040.4 294 1037.7 288 1034.7 282.1 1031.3 276.4 1027.6 270.9 1023.6 265.6 1019.4 260.5 1014.8 255.7 1010 251.1 1004.9 246.9 999.6 242.9 994.1 239.2 988.4 235.8 982.5 232.8 976.5 230.1 970.3 227.7 964 225.7 957.6 224.1 951.1 222.8 944.5 221.8 937.9 221.3 931.3 221.1 919.4 221.1 913.1 221.3 906.8 221.8 900.5 222.6 894.2 223.8 888.1 225.3 882 227.1 876 229.3 870.2 231.8 864.5 234.6 858.9 237.7 853.6 241.1 848.4 244.7 843.4 248.7 M 843.5 248.7 835.1 255.5 826.4 262 817.5 268.2 808.4 274.1 799.1 279.7 789.7 285 780 289.9 770.2 294.5 760.2 298.7 750.1 302.6 739.8 306.1 729.5 309.3 719 312.1 708.5 314.5 697.8 316.6 687.1 318.3 676.4 319.6 665.6 320.5 654.7 321.1 643.9 321.3 633.1 321.1 622.2 320.5 611.4 319.6 600.7 318.3 590 316.6 579.3 314.5 568.8 312.1 558.3 309.3 548 306.1 537.7 302.6 527.6 298.7 517.6 294.5 507.8 289.9 498.1 285 488.6 279.7 479.4 274.1 470.3 268.2 461.4 262 452.7 255.5 444.3 248.7 M 368.3 221.1 356.5 221.1 349.9 221.3 343.3 221.8 336.7 222.8 330.2 224.1 323.8 225.7 317.5 227.7 311.3 230.1 305.3 232.8 299.4 235.8 293.7 239.2 288.2 242.9 282.9 246.9 277.8 251.1 273 255.7 268.4 260.5 264.2 265.6 260.2 270.9 256.5 276.4 253.1 282.1 250.1 288 247.4 294 245 300.2 243 306.5 241.4 312.9 240.1 319.4 239.1 326 238.6 332.6 238.4 339.2 M 368.3 221.1 374.6 221.3 380.9 221.8 387.2 222.6 393.5 223.8 399.6 225.3 405.7 227.1 411.7 229.3 417.5 231.8 423.2 234.6 428.8 237.7 434.1 241.1 439.3 244.7 444.3 248.7" fill="none" stroke-width="7.9"/></g></svg>