G75*
%MOIN*%
%OFA0B0*%
%FSLAX24Y24*%
%IPPOS*%
%LPD*%
%AMOC8*
5,1,8,0,0,1.08239X$1,22.5*
%
%ADD10C,0.0060*%
%ADD11C,0.0100*%
%ADD12C,0.0079*%
D10*
X003042Y008480D02*
X003213Y008629D01*
X002893Y008652D01*
X002856Y008695D01*
X002862Y008775D01*
X002948Y008849D01*
X003028Y008843D01*
X003135Y008936D02*
X003172Y008893D01*
X003252Y008887D01*
X003246Y008807D01*
X003283Y008764D01*
X003363Y008758D01*
X003449Y008832D01*
X003455Y008912D01*
X003562Y009005D02*
X003642Y008999D01*
X003728Y009073D01*
X003734Y009153D01*
X003414Y009176D01*
X003562Y009005D01*
X003414Y009176D02*
X003420Y009256D01*
X003506Y009331D01*
X003586Y009325D01*
X003734Y009153D01*
X003878Y009202D02*
X004050Y009351D01*
X003730Y009374D01*
X003693Y009417D01*
X003699Y009497D01*
X003785Y009571D01*
X003865Y009565D01*
X003972Y009658D02*
X004046Y009572D01*
X004126Y009566D01*
X004255Y009677D01*
X004329Y009591D02*
X004106Y009849D01*
X003978Y009738D01*
X003972Y009658D01*
X004169Y009603D02*
X004157Y009443D01*
X004399Y009727D02*
X004479Y009721D01*
X004565Y009795D01*
X004570Y009875D01*
X004422Y010047D01*
X004342Y010053D01*
X004256Y009978D01*
X004250Y009898D01*
X003307Y009084D02*
X003227Y009090D01*
X003141Y009016D01*
X003135Y008936D01*
X003252Y008887D02*
X003295Y008924D01*
X008053Y010019D02*
X008224Y009871D01*
X008201Y010191D01*
X008238Y010234D01*
X008318Y010240D01*
X008404Y010166D01*
X008410Y010086D01*
X008517Y009993D02*
X008540Y009673D01*
X008460Y009668D01*
X008374Y009742D01*
X008368Y009822D01*
X008517Y009993D01*
X008597Y009999D01*
X008683Y009925D01*
X008688Y009845D01*
X008540Y009673D01*
X008610Y009538D02*
X008782Y009390D01*
X008758Y009710D01*
X008795Y009753D01*
X008875Y009759D01*
X008961Y009684D01*
X008967Y009605D01*
X009074Y009512D02*
X009037Y009469D01*
X009043Y009389D01*
X008963Y009383D01*
X008926Y009340D01*
X008932Y009260D01*
X009018Y009186D01*
X009098Y009192D01*
X009086Y009352D02*
X009043Y009389D01*
X009074Y009512D02*
X009154Y009518D01*
X009240Y009444D01*
X009246Y009364D01*
X009279Y009186D02*
X009451Y009037D01*
X009484Y008859D02*
X009490Y008779D01*
X009575Y008705D01*
X009655Y008711D01*
X009804Y008883D01*
X009798Y008963D01*
X009712Y009037D01*
X009632Y009031D01*
X009911Y008790D02*
X009874Y008747D01*
X009880Y008667D01*
X010008Y008556D01*
X009880Y008667D02*
X009800Y008661D01*
X009762Y008618D01*
X009768Y008538D01*
X009897Y008427D01*
X010119Y008685D01*
X009991Y008796D01*
X009911Y008790D01*
X010004Y008335D02*
X010176Y008187D01*
X010398Y008444D01*
X010599Y007350D02*
X010599Y007123D01*
X010599Y007236D02*
X010940Y007236D01*
X010826Y007123D01*
X010826Y006981D02*
X010769Y006925D01*
X010769Y006755D01*
X010599Y006755D02*
X010599Y006925D01*
X010656Y006981D01*
X010713Y006981D01*
X010769Y006925D01*
X010826Y006981D02*
X010883Y006981D01*
X010940Y006925D01*
X010940Y006755D01*
X010599Y006755D01*
D11*
X007462Y002230D02*
X007462Y002142D01*
X007462Y001965D02*
X007462Y001611D01*
X007550Y001611D02*
X007374Y001611D01*
X007164Y001611D02*
X007164Y001965D01*
X006899Y001965D01*
X006810Y001877D01*
X006810Y001611D01*
X006584Y001700D02*
X006495Y001611D01*
X006318Y001611D01*
X006230Y001700D01*
X006230Y001877D01*
X006318Y001965D01*
X006495Y001965D01*
X006584Y001877D01*
X006584Y001700D01*
X006004Y002142D02*
X005650Y002142D01*
X005424Y002142D02*
X005424Y001611D01*
X005070Y001611D01*
X004844Y001700D02*
X004755Y001611D01*
X004578Y001611D01*
X004490Y001700D01*
X004264Y001611D02*
X004264Y002142D01*
X004490Y002053D02*
X004578Y002142D01*
X004755Y002142D01*
X004844Y002053D01*
X004844Y001700D01*
X005247Y001877D02*
X005424Y001877D01*
X005424Y002142D02*
X005070Y002142D01*
X005827Y002142D02*
X005827Y001611D01*
X004264Y001877D02*
X003910Y001877D01*
X003910Y002142D02*
X003910Y001611D01*
X007462Y001965D02*
X007550Y001965D01*
X007777Y001877D02*
X007777Y001611D01*
X007954Y001611D02*
X007954Y001877D01*
X007865Y001965D01*
X007777Y001877D01*
X007954Y001877D02*
X008042Y001965D01*
X008130Y001965D01*
X008130Y001611D01*
X008357Y001700D02*
X008357Y001877D01*
X008445Y001965D01*
X008622Y001965D01*
X008710Y001877D01*
X008710Y001700D01*
X008622Y001611D01*
X008445Y001611D01*
X008357Y001700D01*
X008937Y001611D02*
X009202Y001611D01*
X009290Y001700D01*
X009290Y001877D01*
X009202Y001965D01*
X008937Y001965D01*
X008937Y002142D02*
X008937Y001611D01*
D12*
X002383Y003392D02*
X002383Y005124D01*
X002383Y006699D02*
X002383Y007723D01*
X004943Y009928D01*
X004943Y010026D01*
X007935Y010026D01*
X007935Y009928D01*
X004943Y009928D01*
X007935Y009928D02*
X010494Y007723D01*
X010494Y006699D01*
X010494Y005124D02*
X010494Y003392D01*
X010492Y003326D01*
X010487Y003260D01*
X010477Y003194D01*
X010464Y003129D01*
X010448Y003065D01*
X010428Y003002D01*
X010404Y002940D01*
X010377Y002880D01*
X010347Y002821D01*
X010313Y002764D01*
X010276Y002709D01*
X010236Y002656D01*
X010194Y002605D01*
X010148Y002557D01*
X010100Y002511D01*
X010049Y002469D01*
X009996Y002429D01*
X009941Y002392D01*
X009884Y002358D01*
X009825Y002328D01*
X009765Y002301D01*
X009703Y002277D01*
X009640Y002257D01*
X009576Y002241D01*
X009511Y002228D01*
X009445Y002218D01*
X009379Y002213D01*
X009313Y002211D01*
X009194Y002211D01*
X009131Y002213D01*
X009068Y002218D01*
X009005Y002226D01*
X008942Y002238D01*
X008881Y002253D01*
X008820Y002271D01*
X008760Y002293D01*
X008702Y002318D01*
X008645Y002346D01*
X008589Y002377D01*
X008536Y002411D01*
X008484Y002447D01*
X008434Y002487D01*
X008435Y002487D02*
X008351Y002555D01*
X008264Y002620D01*
X008175Y002682D01*
X008084Y002741D01*
X007991Y002797D01*
X007897Y002850D01*
X007800Y002899D01*
X007702Y002945D01*
X007602Y002987D01*
X007501Y003026D01*
X007398Y003061D01*
X007295Y003093D01*
X007190Y003121D01*
X007085Y003145D01*
X006978Y003166D01*
X006871Y003183D01*
X006764Y003196D01*
X006656Y003205D01*
X006547Y003211D01*
X006439Y003213D01*
X006331Y003211D01*
X006222Y003205D01*
X006114Y003196D01*
X006007Y003183D01*
X005900Y003166D01*
X005793Y003145D01*
X005688Y003121D01*
X005583Y003093D01*
X005480Y003061D01*
X005377Y003026D01*
X005276Y002987D01*
X005176Y002945D01*
X005078Y002899D01*
X004981Y002850D01*
X004886Y002797D01*
X004794Y002741D01*
X004703Y002682D01*
X004614Y002620D01*
X004527Y002555D01*
X004443Y002487D01*
X003683Y002211D02*
X003565Y002211D01*
X003499Y002213D01*
X003433Y002218D01*
X003367Y002228D01*
X003302Y002241D01*
X003238Y002257D01*
X003175Y002277D01*
X003113Y002301D01*
X003053Y002328D01*
X002994Y002358D01*
X002937Y002392D01*
X002882Y002429D01*
X002829Y002469D01*
X002778Y002511D01*
X002730Y002557D01*
X002684Y002605D01*
X002642Y002656D01*
X002602Y002709D01*
X002565Y002764D01*
X002531Y002821D01*
X002501Y002880D01*
X002474Y002940D01*
X002450Y003002D01*
X002430Y003065D01*
X002414Y003129D01*
X002401Y003194D01*
X002391Y003260D01*
X002386Y003326D01*
X002384Y003392D01*
X003683Y002211D02*
X003746Y002213D01*
X003809Y002218D01*
X003872Y002226D01*
X003935Y002238D01*
X003996Y002253D01*
X004057Y002271D01*
X004117Y002293D01*
X004175Y002318D01*
X004232Y002346D01*
X004288Y002377D01*
X004341Y002411D01*
X004393Y002447D01*
X004443Y002487D01*
M02*
