<svg version="1.1" xmlns="http://www.w3.org/2000/svg" xmlns:xlink="http://www.w3.org/1999/xlink" stroke-linecap="round" stroke-linejoin="round" stroke-width="0" fill-rule="evenodd" width="1.03105in" height="1.1387in" viewBox="161.55 69.1 1031.05 1138.7" id="vkpvYsT4qLQrEnBW_qyW"><g transform="translate(0,1276.9) scale(1,-1)" fill="currentColor" stroke="currentColor"><path d="M 456.4 544 481.4 562.7 456.4 581.5 456.4 544 M 456.4 549.8 464.1 549.8 M 456.4 557.5 474.4 557.5 M 478 565.3 456.4 565.3 M 456.4 573 467.7 573 M 457.4 580.7 456.4 580.7 M 481.4 581.5 481.4 562.7 481.4 544 M 481.4 562.7 518.9 562.7 M 481.4 562.7 418.9 562.7 M 165.5 591.2 165.7 596.2 166.3 601.2 167.3 606.1 168.7 610.9 170.4 615.6 172.5 620.1 175 624.5 177.8 628.6 181 632.5 184.4 636.2 188.1 639.6 192.1 642.6 196.3 645.3 200.7 647.7 205.3 649.8 210 651.4 214.8 652.7 219.8 653.6 224.7 654.1 229.8 654.2 234.8 653.9 239.7 653.2 244.6 652.1 249.4 650.6 254 648.8 258.5 646.6 262.8 644 266.9 641.1 270.8 637.9 274.4 634.4 277.6 630.6 280.6 626.6 283.3 622.3 285.6 617.9 287.5 613.3 289.1 608.5 290.3 603.6 291.1 598.7 291.5 593.7 291.5 588.7 291.1 583.7 290.3 578.8 289.1 573.9 287.5 569.1 285.6 564.5 283.3 560.1 280.6 555.8 277.6 551.8 274.4 548 270.8 544.5 266.9 541.3 262.8 538.4 258.5 535.8 254 533.6 249.4 531.8 244.6 530.3 239.7 529.2 234.8 528.5 229.8 528.2 224.7 528.3 219.8 528.8 214.8 529.7 210 531 205.3 532.6 200.7 534.7 196.3 537.1 192.1 539.8 188.1 542.8 184.4 546.2 181 549.9 177.8 553.8 175 557.9 172.5 562.3 170.4 566.8 168.7 571.5 167.3 576.3 166.3 581.2 165.7 586.2 165.5 591.2 M 743.9 562.7 781.4 562.7 787.6 581.5 800.1 544 812.6 581.5 825.1 544 837.6 581.5 850.1 544 856.4 562.7 893.9 562.7 M 996.2 591.2 996.4 596.2 997 601.2 998 606.1 999.4 610.9 1001.1 615.6 1003.2 620.1 1005.7 624.5 1008.5 628.6 1011.7 632.5 1015.1 636.2 1018.8 639.6 1022.8 642.6 1027 645.3 1031.4 647.7 1036 649.8 1040.7 651.4 1045.5 652.7 1050.5 653.6 1055.4 654.1 1060.5 654.2 1065.5 653.9 1070.4 653.2 1075.3 652.1 1080.1 650.6 1084.7 648.8 1089.2 646.6 1093.5 644 1097.6 641.1 1101.5 637.9 1105.1 634.4 1108.3 630.6 1111.3 626.6 1114 622.3 1116.3 617.9 1118.2 613.3 1119.8 608.5 1121 603.6 1121.8 598.7 1122.2 593.7 1122.2 588.7 1121.8 583.7 1121 578.8 1119.8 573.9 1118.2 569.1 1116.3 564.5 1114 560.1 1111.3 555.8 1108.3 551.8 1105.1 548 1101.5 544.5 1097.6 541.3 1093.5 538.4 1089.2 535.8 1084.7 533.6 1080.1 531.8 1075.3 530.3 1070.4 529.2 1065.5 528.5 1060.5 528.2 1055.4 528.3 1050.5 528.8 1045.5 529.7 1040.7 531 1036 532.6 1031.4 534.7 1027 537.1 1022.8 539.8 1018.8 542.8 1015.1 546.2 1011.7 549.9 1008.5 553.8 1005.7 557.9 1003.2 562.3 1001.1 566.8 999.4 571.5 998 576.3 997 581.2 996.4 586.2 996.2 591.2" fill="none" stroke-width="7.9"/><path d="M 401.8 279.3 396.2 279.3 M 413.2 279.3 435.9 279.3 M 435.9 273.7 435.9 285 M 435.9 298.2 413.2 298.2 413.2 315.2 418.8 320.9 435.9 320.9 M 430.2 335 413.2 335 M 430.2 335 435.9 340.7 435.9 357.7 M 441.5 357.7 413.2 357.7 M 413.2 371.9 401.8 383.2 435.9 383.2 M 435.9 371.9 435.9 394.6 M 430.2 408.7 435.9 414.4 435.9 425.7 430.2 431.4 424.5 431.4 418.8 425.7 418.8 420 M 418.8 425.7 413.2 431.4 407.5 431.4 401.8 425.7 401.8 414.4 407.5 408.7 M 413.2 445.5 401.8 456.9 413.2 468.2 435.9 468.2 M 418.8 468.2 418.8 445.5 M 413.2 445.5 435.9 445.5 M 485 476.4 490.7 470.7 502 470.7 507.7 476.4 507.7 504.8 M 521.9 493.4 533.2 504.8 533.2 470.7 M 521.9 470.7 544.5 470.7 M 485 476.4 485 504.8 M 534.7 545.7 534.7 579.8 M 540.4 562.8 557.4 545.7 M 534.7 557.1 557.4 579.8 M 582 620.7 576.3 626.4 M 582 620.7 593.3 620.7 599 626.4 599 632.1 593.3 637.8 587.7 637.8 M 593.3 637.8 599 643.4 599 649.1 593.3 654.8 582 654.8 576.3 649.1 M 613.2 649.1 618.8 654.8 630.2 654.8 635.8 649.1 635.8 643.4 613.2 620.7 635.8 620.7 M 650 620.7 672.7 620.7 M 661.3 620.7 661.3 654.8 650 643.4 M 686.8 637.8 686.8 626.4 692.5 620.7 703.8 620.7 709.5 626.4 709.5 632.1 703.8 637.8 686.8 637.8 698.2 649.1 709.5 654.8 M 709.5 720.7 686.8 720.7 709.5 743.4 709.5 749.1 703.8 754.8 692.5 754.8 686.8 749.1 M 661.3 754.8 661.3 720.7 M 650 720.7 672.7 720.7 M 650 743.4 661.3 754.8 M 635.8 749.1 635.8 726.4 630.2 720.7 618.8 720.7 613.2 726.4 635.8 749.1 630.2 754.8 618.8 754.8 613.2 749.1 613.2 726.4 M 599 720.7 576.3 720.7 599 743.4 599 749.1 593.3 754.8 582 754.8 576.3 749.1 M 576.3 795.7 599 795.7 M 587.7 795.7 587.7 829.8 576.3 818.4 M 613.2 812.8 613.2 801.4 618.8 795.7 630.2 795.7 635.8 801.4 635.8 807.1 630.2 812.8 613.2 812.8 624.5 824.1 635.8 829.8 M 650 824.1 655.7 829.8 667 829.8 672.7 824.1 650 801.4 655.7 795.7 667 795.7 672.7 801.4 672.7 824.1 M 686.8 824.1 692.5 829.8 703.8 829.8 709.5 824.1 709.5 818.4 703.8 812.8 692.5 812.8 686.8 818.4 686.8 824.1 M 692.5 812.8 686.8 807.1 686.8 801.4 692.5 795.7 703.8 795.7 709.5 801.4 709.5 807.1 703.8 812.8 M 703.8 858.2 692.5 858.2 686.8 863.9 M 686.8 875.3 698.2 880.9 703.8 880.9 709.5 875.3 709.5 863.9 703.8 858.2 M 686.8 875.3 686.8 892.3 709.5 892.3 M 703.8 908.2 692.5 908.2 686.8 913.9 M 672.7 913.9 667 908.2 655.7 908.2 650 913.9 672.7 936.6 672.7 913.9 M 667 892.3 655.7 892.3 650 886.6 650 863.9 672.7 886.6 672.7 863.9 667 858.2 655.7 858.2 650 863.9 M 635.8 863.9 630.2 858.2 618.8 858.2 613.2 863.9 635.8 886.6 635.8 863.9 M 613.2 863.9 613.2 886.6 618.8 892.3 630.2 892.3 635.8 886.6 M 630.2 908.2 635.8 913.9 635.8 919.6 630.2 925.3 613.2 925.3 613.2 913.9 618.8 908.2 630.2 908.2 M 613.2 925.3 624.5 936.6 635.8 942.3 M 650 936.6 655.7 942.3 667 942.3 672.7 936.6 M 686.8 936.6 692.5 942.3 703.8 942.3 709.5 936.6 709.5 930.9 703.8 925.3 709.5 919.6 709.5 913.9 703.8 908.2 M 703.8 925.3 698.2 925.3 M 667 892.3 672.7 886.6 M 650 913.9 650 936.6 M 599 936.6 599 913.9 593.3 908.2 582 908.2 576.3 913.9 599 936.6 593.3 942.3 582 942.3 576.3 936.6 576.3 913.9 M 587.7 892.3 576.3 880.9 M 587.7 892.3 587.7 858.2 M 599 858.2 576.3 858.2 M 650 824.1 650 801.4 M 845 795.7 845 829.8 862 829.8 867.7 824.1 867.7 812.8 862 807.1 845 807.1 M 856.3 807.1 867.7 795.7 M 881.8 801.4 887.5 795.7 898.8 795.7 904.5 801.4 904.5 807.1 898.8 812.8 893.2 812.8 M 898.8 812.8 904.5 818.4 904.5 824.1 898.8 829.8 887.5 829.8 881.8 824.1 M 890.1 754.8 873 754.8 873 720.7 M 873 732.1 890.1 732.1 895.7 737.8 895.7 749.1 890.1 754.8 M 909.9 749.1 915.5 754.8 926.9 754.8 932.6 749.1 932.6 743.4 909.9 720.7 932.6 720.7 M 895.7 720.7 884.4 732.1 M 921.9 654.8 938.9 654.8 944.5 649.1 944.5 637.8 938.9 632.1 921.9 632.1 M 933.2 632.1 944.5 620.7 M 958.7 620.7 981.4 620.7 M 970 620.7 970 654.8 958.7 643.4 M 921.9 654.8 921.9 620.7 M 925.5 517.3 919.9 511.6 919.9 488.9 925.5 483.2 936.9 483.2 942.5 488.9 942.5 500.3 931.2 500.3 M 942.5 511.6 936.9 517.3 925.5 517.3 M 905.7 500.3 883 500.3 M 868.9 483.2 846.2 483.2 M 857.5 483.2 857.5 517.3 846.2 505.9 M 832 517.3 809.4 517.3 M 820.7 517.3 820.7 483.2 M 820.7 467.3 820.7 433.2 M 820.7 417.3 820.7 383.2 M 820.7 367.3 820.7 333.2 M 820.7 317.3 820.7 283.2 M 820.7 267.3 820.7 233.2 M 846.2 238.9 851.9 233.2 863.2 233.2 868.9 238.9 868.9 244.6 863.2 250.3 846.2 250.3 846.2 238.9 M 846.2 250.3 857.5 261.6 868.9 267.3 M 863.2 283.2 851.9 283.2 846.2 288.9 M 846.2 300.3 857.5 305.9 863.2 305.9 868.9 300.3 868.9 288.9 863.2 283.2 M 846.2 300.3 846.2 317.3 868.9 317.3 M 863.2 333.2 863.2 367.3 846.2 350.3 868.9 350.3 M 883 350.3 905.7 350.3 M 919.9 355.9 925.5 350.3 936.9 350.3 942.5 344.6 942.5 338.9 936.9 333.2 925.5 333.2 919.9 338.9 M 919.9 355.9 919.9 361.6 925.5 367.3 936.9 367.3 942.5 361.6 M 956.7 361.6 956.7 338.9 962.4 333.2 973.7 333.2 979.4 338.9 M 993.5 333.2 993.5 367.3 M 979.4 361.6 973.7 367.3 962.4 367.3 956.7 361.6 M 962.4 383.2 956.7 388.9 M 962.4 383.2 973.7 383.2 979.4 388.9 979.4 394.6 973.7 400.3 968 400.3 M 973.7 400.3 979.4 405.9 979.4 411.6 973.7 417.3 962.4 417.3 956.7 411.6 M 942.5 400.3 919.9 400.3 M 905.7 400.3 883 400.3 M 868.9 405.9 863.2 400.3 868.9 394.6 868.9 388.9 863.2 383.2 851.9 383.2 846.2 388.9 M 857.5 400.3 863.2 400.3 M 868.9 405.9 868.9 411.6 863.2 417.3 851.9 417.3 846.2 411.6 M 832 417.3 809.4 417.3 M 846.2 433.2 868.9 455.9 868.9 461.6 863.2 467.3 851.9 467.3 846.2 461.6 M 832 467.3 809.4 467.3 M 769.5 470.7 746.9 470.7 M 758.2 470.7 758.2 504.8 746.9 493.4 M 732.7 499.1 727 504.8 715.7 504.8 710 499.1 710 476.4 715.7 470.7 727 470.7 732.7 476.4 M 669.5 552 669.5 569 663.9 574.7 658.2 569 658.2 552 M 646.9 552 646.9 574.7 652.5 574.7 658.2 569 M 632.7 569 632.7 552 M 621.4 552 621.4 569 627 574.7 632.7 569 M 621.4 569 615.7 574.7 610 574.7 610 552 M 422.8 720.7 400.1 720.7 422.8 743.4 422.8 749.1 417.1 754.8 405.8 754.8 400.1 749.1 M 385.9 749.1 385.9 726.4 380.3 720.7 363.3 720.7 363.3 754.8 380.3 754.8 385.9 749.1 M 392.1 795.7 375.1 795.7 375.1 829.8 392.1 829.8 397.8 824.1 397.8 801.4 392.1 795.7 M 411.9 801.4 417.6 795.7 428.9 795.7 434.6 801.4 434.6 807.1 428.9 812.8 423.2 812.8 M 428.9 812.8 434.6 818.4 434.6 824.1 428.9 829.8 417.6 829.8 411.9 824.1 M 358.9 654.8 358.9 620.7 M 370.2 620.7 347.5 620.7 M 333.4 626.4 333.4 649.1 327.7 654.8 310.7 654.8 310.7 620.7 327.7 620.7 333.4 626.4 M 347.5 643.4 358.9 654.8 M 389.8 579.8 401.1 568.4 401.1 545.7 M 401.1 562.8 378.4 562.8 M 378.4 568.4 389.8 579.8 M 378.4 568.4 378.4 545.7 M 441.5 357.7 447.2 352.1 447.2 346.4 M 413.2 279.3 413.2 273.7 M 413.2 260.4 413.2 249.1 M 407.5 254.8 430.2 254.8 435.9 260.4 M 434.8 229.8 429.1 224.1 429.1 218.4 434.8 212.8 446.1 212.8 451.8 207.1 451.8 201.4 446.1 195.7 434.8 195.7 429.1 201.4 M 434.8 229.8 446.1 229.8 451.8 224.1 M 465.9 229.8 465.9 195.7 477.3 207.1 488.6 195.7 488.6 229.8 M 502.8 218.4 514.1 229.8 514.1 195.7 M 502.8 195.7 525.5 195.7 M 809.4 267.3 832 267.3 M 832 317.3 809.4 317.3 M 809.4 367.3 832 367.3 M 846.2 433.2 868.9 433.2 M 883 450.3 905.7 450.3 M 919.9 444.6 936.9 444.6 942.5 450.3 942.5 461.6 936.9 467.3 919.9 467.3 919.9 433.2 M 931.2 444.6 942.5 433.2 M 956.7 433.2 979.4 433.2 M 993.5 438.9 999.2 433.2 1010.5 433.2 1016.2 438.9 1016.2 444.6 1010.5 450.3 999.2 450.3 993.5 455.9 993.5 461.6 999.2 467.3 1010.5 467.3 1016.2 461.6 M 1030.3 467.3 1030.3 433.2 1053 433.2 M 1047.4 417.3 1036 417.3 1030.3 411.6 M 1041.7 400.3 1047.4 400.3 1053 394.6 1053 388.9 1047.4 383.2 1036 383.2 1030.3 388.9 M 1047.4 400.3 1053 405.9 1053 411.6 1047.4 417.3 M 1041.7 450.3 1030.3 450.3 M 1030.3 467.3 1053 467.3 M 1067.2 467.3 1089.9 467.3 M 1078.5 467.3 1078.5 433.2 M 1016.2 417.3 1016.2 394.6 1004.9 383.2 993.5 394.6 993.5 417.3 M 968 450.3 956.7 450.3 M 956.7 467.3 956.7 433.2 M 931.2 411.6 931.2 388.9 M 993.5 344.6 1016.2 367.3 M 999.2 350.3 1016.2 333.2 M 1023.7 317.3 1018.1 311.6 1018.1 288.9 1023.7 283.2 1035.1 283.2 1040.8 288.9 1040.8 311.6 1035.1 317.3 1023.7 317.3 M 1003.9 311.6 998.3 317.3 986.9 317.3 981.2 311.6 981.2 305.9 986.9 300.3 998.3 300.3 1003.9 294.6 1003.9 288.9 998.3 283.2 986.9 283.2 981.2 288.9 M 968 283.2 956.7 283.2 M 962.4 283.2 962.4 317.3 M 968 317.3 956.7 317.3 M 942.5 317.3 942.5 283.2 M 942.5 267.3 942.5 233.2 M 956.7 238.9 962.4 233.2 973.7 233.2 979.4 238.9 979.4 261.6 973.7 267.3 962.4 267.3 956.7 261.6 956.7 238.9 M 931.2 255.9 942.5 267.3 M 931.2 255.9 919.9 267.3 919.9 233.2 M 905.7 250.3 883 250.3 M 919.9 283.2 919.9 317.3 931.2 305.9 942.5 317.3 M 905.7 300.3 883 300.3 M 993.5 261.6 993.5 255.9 999.2 250.3 1010.5 250.3 1016.2 244.6 1016.2 238.9 1010.5 233.2 999.2 233.2 993.5 238.9 M 993.5 261.6 999.2 267.3 1010.5 267.3 1016.2 261.6 M 1030.3 267.3 1041.7 267.3 M 1036 267.3 1036 233.2 M 1030.3 233.2 1041.7 233.2 M 979.4 467.3 956.7 467.3 M 956.7 483.2 956.7 517.3 979.4 483.2 979.4 517.3 M 993.5 517.3 1010.5 517.3 1016.2 511.6 1016.2 488.9 1010.5 483.2 993.5 483.2 993.5 517.3 M 986.1 918.7 974.8 918.7 969.1 924.3 991.8 947 991.8 924.3 986.1 918.7 M 969.1 924.3 969.1 947 974.8 952.7 986.1 952.7 991.8 947 M 1006 947 1011.6 952.7 1023 952.7 1028.6 947 1028.6 941.4 1006 918.7 1028.6 918.7 M 1042.8 935.7 1065.5 935.7 M 1079.6 941.4 1091 918.7 1102.3 941.4 M 1116.4 935.7 1116.4 924.3 1122.1 918.7 1133.5 918.7 M 1139.1 930 1116.4 930 M 1116.4 935.7 1122.1 941.4 1133.5 941.4 1139.1 935.7 1139.1 930 M 1153.3 930 1164.6 941.4 1170.3 941.4 M 1153.3 941.4 1153.3 918.7 M 1184 918.7 1189.6 918.7 1189.6 924.3 1184 924.3 1184 918.7 M 1059.8 918.7 1059.8 952.7 1042.8 935.7 M 955 941.4 955 947 949.3 952.7 938 952.7 932.3 947 M 955 941.4 932.3 918.7 955 918.7 M 913.9 1170.7 919.5 1176.4 919.5 1182.1 913.9 1187.8 896.9 1187.8 896.9 1176.4 902.5 1170.7 913.9 1170.7 M 896.9 1187.8 908.2 1199.1 919.5 1204.8 M 882.7 1204.8 860 1204.8 M 871.4 1204.8 871.4 1170.7 M 819.5 1176.4 813.9 1170.7 802.5 1170.7 796.9 1176.4 M 796.9 1187.8 808.2 1193.4 813.9 1193.4 819.5 1187.8 819.5 1176.4 M 796.9 1187.8 796.9 1204.8 819.5 1204.8 M 782.7 1204.8 760 1204.8 M 771.4 1204.8 771.4 1170.7 M 719.5 1187.8 696.9 1187.8 713.9 1204.8 713.9 1170.7 M 671.4 1170.7 671.4 1204.8 M 682.7 1204.8 660 1204.8 M 619.5 1199.1 619.5 1193.4 613.9 1187.8 619.5 1182.1 619.5 1176.4 613.9 1170.7 602.5 1170.7 596.9 1176.4 M 608.2 1187.8 613.9 1187.8 M 619.5 1199.1 613.9 1204.8 602.5 1204.8 596.9 1199.1 M 582.7 1204.8 560 1204.8 M 571.4 1204.8 571.4 1170.7 M 519.5 1170.7 496.9 1170.7 519.5 1193.4 519.5 1199.1 513.9 1204.8 502.5 1204.8 496.9 1199.1 M 482.7 1204.8 460 1204.8 M 471.4 1204.8 471.4 1170.7 M 419.5 1170.7 396.9 1170.7 M 408.2 1170.7 408.2 1204.8 396.9 1193.4 M 382.7 1204.8 360 1204.8 M 371.4 1204.8 371.4 1170.7" fill="none" stroke-width="6"/><path d="M 364.4 1125.2 364.6 1128.6 365.2 1132 366.2 1135.3 367.5 1138.4 369.3 1141.4 371.3 1144.2 373.7 1146.7 376.3 1148.9 379.1 1150.7 382.2 1152.3 385.4 1153.5 388.8 1154.3 392.2 1154.7 395.6 1154.7 399 1154.3 402.4 1153.5 405.6 1152.3 408.6 1150.7 411.5 1148.9 414.1 1146.7 416.5 1144.2 418.5 1141.4 420.3 1138.4 421.6 1135.3 422.6 1132 423.2 1128.6 423.4 1125.2 423.2 1121.8 422.6 1118.4 421.6 1115.1 420.3 1112 418.5 1109 416.5 1106.2 414.1 1103.7 411.5 1101.5 408.7 1099.7 405.6 1098.1 402.4 1096.9 399 1096.1 395.6 1095.7 392.2 1095.7 388.8 1096.1 385.4 1096.9 382.2 1098.1 379.1 1099.7 376.3 1101.5 373.7 1103.7 371.3 1106.2 369.3 1109 367.5 1112 366.2 1115.1 365.2 1118.4 364.6 1121.8 364.4 1125.2 M 367.1 1076.5 359.3 1076.5 341.2 1058.5 323.2 1076.5 315.4 1076.5 309.9 1070.9 309.9 997.3 315.4 991.8 323.2 991.8 328.8 997.3 328.8 1044.2 331.8 1041.2 337.3 1035.6 345.2 1035.6 349.2 1039.6 350.7 1041.2 353.7 1044.2 353.7 997.3 359.3 991.8 367.1 991.8 372.6 997.3 372.6 1070.9 367.1 1076.5 M 382.4 1070.9 382.4 997.3 387.9 991.8 428.6 991.8 445.1 1008.3 445.1 1060 428.6 1076.5 387.9 1076.5 382.4 1070.9 M 401.3 1057.6 420.8 1057.6 426.2 1052.1 426.2 1016.1 420.8 1010.7 401.3 1010.7 401.3 1057.6 M 493.3 1060 493.3 1008.3 504.2 997.3 509.8 991.8 539.5 991.8 556 1008.3 556 1016.1 550.5 1021.6 542.7 1021.6 531.7 1010.7 517.6 1010.7 512.2 1016.1 512.2 1052.1 517.6 1057.6 531.7 1057.6 542.7 1046.6 550.5 1046.6 556 1052.1 556 1060 539.5 1076.5 509.8 1076.5 493.4 1060.1 493.3 1060 M 464.4 1125.2 464.6 1128.6 465.2 1132 466.2 1135.3 467.5 1138.4 469.3 1141.4 471.3 1144.2 473.7 1146.7 476.3 1148.9 479.1 1150.7 482.2 1152.3 485.4 1153.5 488.8 1154.3 492.2 1154.7 495.6 1154.7 499 1154.3 502.4 1153.5 505.6 1152.3 508.6 1150.7 511.5 1148.9 514.1 1146.7 516.5 1144.2 518.5 1141.4 520.3 1138.4 521.6 1135.3 522.6 1132 523.2 1128.6 523.4 1125.2 523.2 1121.8 522.6 1118.4 521.6 1115.1 520.3 1112 518.5 1109 516.5 1106.2 514.1 1103.7 511.5 1101.5 508.7 1099.7 505.6 1098.1 502.4 1096.9 499 1096.1 495.6 1095.7 492.2 1095.7 488.8 1096.1 485.4 1096.9 482.2 1098.1 479.1 1099.7 476.3 1101.5 473.7 1103.7 471.3 1106.2 469.3 1109 467.5 1112 466.2 1115.1 465.2 1118.4 464.6 1121.8 464.4 1125.2 M 565.8 1070.9 565.8 997.3 571.3 991.8 579.1 991.8 584.7 997.3 584.7 1030.2 590.1 1035.6 604.2 1035.6 609.6 1030.2 609.6 997.3 615.2 991.8 623 991.8 628.5 997.3 628.5 1038 623 1043.6 612 1054.5 584.7 1054.5 584.7 1070.9 579.1 1076.5 571.3 1076.5 565.8 1070.9 M 564.4 1125.2 564.6 1128.6 565.2 1132 566.2 1135.3 567.5 1138.4 569.3 1141.4 571.3 1144.2 573.7 1146.7 576.3 1148.9 579.1 1150.7 582.2 1152.3 585.4 1153.5 588.8 1154.3 592.2 1154.7 595.6 1154.7 599 1154.3 602.4 1153.5 605.6 1152.3 608.6 1150.7 611.5 1148.9 614.1 1146.7 616.5 1144.2 618.5 1141.4 620.3 1138.4 621.6 1135.3 622.6 1132 623.2 1128.6 623.4 1125.2 623.2 1121.8 622.6 1118.4 621.6 1115.1 620.3 1112 618.5 1109 616.5 1106.2 614.1 1103.7 611.5 1101.5 608.7 1099.7 605.6 1098.1 602.4 1096.9 599 1096.1 595.6 1095.7 592.2 1095.7 588.8 1096.1 585.4 1096.9 582.2 1098.1 579.1 1099.7 576.3 1101.5 573.7 1103.7 571.3 1106.2 569.3 1109 567.5 1112 566.2 1115.1 565.2 1118.4 564.6 1121.8 564.4 1125.2 M 649.2 1049 649.2 1041.2 654.8 1035.6 676.7 1035.6 679.7 1032.6 654.8 1032.6 649.2 1027.1 638.3 1016.1 638.3 1008.3 654.8 991.8 695.5 991.8 701 997.3 701 1038 695.5 1043.6 684.5 1054.5 654.8 1054.5 649.2 1049 M 662.6 1013.7 682.1 1013.7 682.1 1010.7 662.6 1010.7 661.1 1012.2 662.6 1013.7 M 710.8 1005.1 710.8 997.3 716.3 991.8 746.1 991.8 751.6 997.3 751.6 1005.1 746.1 1010.7 740.6 1010.7 740.6 1070.9 735.1 1076.5 716.3 1076.5 710.8 1070.9 710.8 1063.1 716.3 1057.6 721.7 1057.6 721.7 1010.7 716.3 1010.7 710.8 1005.1 M 759.1 1005.1 759.1 997.3 764.6 991.8 794.4 991.8 799.9 997.3 799.9 1005.1 794.4 1010.7 789 1010.7 789 1070.9 783.4 1076.5 764.6 1076.5 759.1 1070.9 759.1 1063.1 764.6 1057.6 770.1 1057.6 770.1 1010.7 764.6 1010.7 759.1 1005.1 M 807.4 1008.3 823.9 991.8 853.7 991.8 859.3 997.3 859.3 1005.1 853.7 1010.7 831.8 1010.7 828.8 1013.7 864.7 1013.7 870.2 1019.2 870.2 1038 864.7 1043.6 853.7 1054.5 823.9 1054.5 818.4 1049 807.4 1038 807.4 1008.3 M 828.8 1032.6 831.8 1035.6 845.9 1035.6 848.9 1032.6 828.8 1032.6 M 879.9 1049 879.9 997.3 885.5 991.8 893.3 991.8 898.9 997.3 898.9 1035.6 918.4 1035.6 923.8 1030.2 923.8 997.3 929.4 991.8 937.2 991.8 942.7 997.3 942.7 1038 937.2 1043.6 926.2 1054.5 885.5 1054.5 879.9 1049 M 952.5 1038 952.5 1008.3 963.4 997.3 969 991.8 993.9 991.8 990.9 988.7 979.9 988.7 974.4 983.2 974.4 975.4 979.9 969.8 998.7 969.8 1009.7 980.8 1015.2 986.3 1015.2 1049 1009.7 1054.5 969 1054.5 958 1043.6 952.5 1038 M 971.4 1030.2 971.4 1016.1 976.8 1010.7 996.3 1010.7 996.3 1035.6 976.8 1035.6 971.4 1030.2 M 1025 1038 1025 1008.3 1030.5 1002.7 1041.5 991.8 1071.2 991.8 1076.8 997.3 1076.8 1005.1 1071.2 1010.7 1049.3 1010.7 1046.3 1013.7 1082.2 1013.7 1087.7 1019.2 1087.7 1038 1082.2 1043.6 1071.2 1054.5 1041.5 1054.5 1025 1038 M 1046.3 1032.6 1049.3 1035.6 1063.4 1035.6 1066.4 1032.6 1046.3 1032.6 M 864.4 1125.2 864.6 1128.6 865.2 1132 866.2 1135.3 867.5 1138.4 869.3 1141.4 871.3 1144.2 873.7 1146.7 876.3 1148.9 879.1 1150.7 882.2 1152.3 885.4 1153.5 888.8 1154.3 892.2 1154.7 895.6 1154.7 899 1154.3 902.4 1153.5 905.6 1152.3 908.6 1150.7 911.5 1148.9 914.1 1146.7 916.5 1144.2 918.5 1141.4 920.3 1138.4 921.6 1135.3 922.6 1132 923.2 1128.6 923.4 1125.2 923.2 1121.8 922.6 1118.4 921.6 1115.1 920.3 1112 918.5 1109 916.5 1106.2 914.1 1103.7 911.5 1101.5 908.7 1099.7 905.6 1098.1 902.4 1096.9 899 1096.1 895.6 1095.7 892.2 1095.7 888.8 1096.1 885.4 1096.9 882.2 1098.1 879.1 1099.7 876.3 1101.5 873.7 1103.7 871.3 1106.2 869.3 1109 867.5 1112 866.2 1115.1 865.2 1118.4 864.6 1121.8 864.4 1125.2 M 764.4 1125.2 764.6 1128.6 765.2 1132 766.2 1135.3 767.5 1138.4 769.3 1141.4 771.3 1144.2 773.7 1146.7 776.3 1148.9 779.1 1150.7 782.2 1152.3 785.4 1153.5 788.8 1154.3 792.2 1154.7 795.6 1154.7 799 1154.3 802.4 1153.5 805.6 1152.3 808.6 1150.7 811.5 1148.9 814.1 1146.7 816.5 1144.2 818.5 1141.4 820.3 1138.4 821.6 1135.3 822.6 1132 823.2 1128.6 823.4 1125.2 823.2 1121.8 822.6 1118.4 821.6 1115.1 820.3 1112 818.5 1109 816.5 1106.2 814.1 1103.7 811.5 1101.5 808.7 1099.7 805.6 1098.1 802.4 1096.9 799 1096.1 795.6 1095.7 792.2 1095.7 788.8 1096.1 785.4 1096.9 782.2 1098.1 779.1 1099.7 776.3 1101.5 773.7 1103.7 771.3 1106.2 769.3 1109 767.5 1112 766.2 1115.1 765.2 1118.4 764.6 1121.8 764.4 1125.2 M 664.4 1125.2 664.6 1128.6 665.2 1132 666.2 1135.3 667.5 1138.4 669.3 1141.4 671.3 1144.2 673.7 1146.7 676.3 1148.9 679.1 1150.7 682.2 1152.3 685.4 1153.5 688.8 1154.3 692.2 1154.7 695.6 1154.7 699 1154.3 702.4 1153.5 705.6 1152.3 708.6 1150.7 711.5 1148.9 714.1 1146.7 716.5 1144.2 718.5 1141.4 720.3 1138.4 721.6 1135.3 722.6 1132 723.2 1128.6 723.4 1125.2 723.2 1121.8 722.6 1118.4 721.6 1115.1 720.3 1112 718.5 1109 716.5 1106.2 714.1 1103.7 711.5 1101.5 708.7 1099.7 705.6 1098.1 702.4 1096.9 699 1096.1 695.6 1095.7 692.2 1095.7 688.8 1096.1 685.4 1096.9 682.2 1098.1 679.1 1099.7 676.3 1101.5 673.7 1103.7 671.3 1106.2 669.3 1109 667.5 1112 666.2 1115.1 665.2 1118.4 664.6 1121.8 664.4 1125.2 M 751.9 836.4 807 836.4 M 807 789.1 751.9 789.1 M 751.9 769.2 830.7 769.2 M 830.7 706.2 751.9 706.2 M 755.9 673.2 881.9 673.2 M 881.9 602.3 755.9 602.3 M 671.4 511.4 616.3 511.4 M 616.3 464.1 671.4 464.1 M 555.5 602.3 405.9 602.3 M 405.9 673.2 555.5 673.2 M 555.5 706.2 457 706.2 M 457 769.2 555.5 769.2 M 555.5 789.1 480.7 789.1 M 480.7 836.4 555.5 836.4 M 300.1 1008.3 300.1 1027.1 294.6 1032.6 283.6 1043.6 261.7 1043.6 256.3 1049 256.3 1052.1 261.7 1057.6 275.8 1057.6 286.8 1046.6 294.6 1046.6 300.1 1052.1 300.1 1060 283.6 1076.5 253.9 1076.5 237.5 1060.1 237.4 1060 237.4 1041.2 253.9 1024.7 275.8 1024.7 281.2 1019.2 281.2 1016.1 275.8 1010.7 261.7 1010.7 250.7 1021.6 242.9 1021.6 237.4 1016.1 237.4 1008.3 253.9 991.8 283.6 991.8 289.2 997.3 300.1 1008.3" fill="none" stroke-width="5.9"/><path d="M 456.4 437.7 481.4 425.2 456.4 412.7 456.4 437.7 M 456.4 433.5 464.8 433.5 M 456.4 423.7 478.3 423.7 M 458.6 413.8 456.4 413.8 M 579.9 176.4 648.8 176.4 M 698 176.4 707.8 176.4 M 775.7 140 775.7 110.5 M 757 74.1 702.9 74.1 647.8 74.1 530.7 74.1 M 512 110.5 512 140" fill="none" stroke-width="10"/><path d="M 506.3 857.5 555.5 857.5 M 555.5 893 506.3 893 M 525.9 911.5 555.5 911.5 M 555.5 939 525.9 939 M 491.3 938.8 473.3 938.8 473.3 925.2 482.3 929.8 486.8 929.8 491.3 925.2 491.3 916.2 486.8 911.7 477.8 911.7 473.3 916.2 M 461.8 916.2 461.8 934.3 457.3 938.8 443.8 938.8 443.8 911.7 457.3 911.7 461.8 916.2 M 462.5 888.8 449 875.2 467 875.2 M 462.5 861.7 462.5 888.8 M 437.5 884.3 437.5 866.2 433 861.7 419.5 861.7 419.5 888.8 433 888.8 437.5 884.3 M 738.1 911.5 761.8 911.5 M 742.1 893 781.5 893 M 790 911.7 790 938.8 803.5 938.8 808 934.3 808 925.2 803.5 920.7 790 920.7 M 799 920.7 808 911.7 M 819.4 916.2 823.9 911.7 832.9 911.7 837.4 916.2 837.4 925.2 832.9 929.8 828.4 929.8 819.4 925.2 819.4 938.8 837.4 938.8 M 827.8 888.8 814.3 888.8 814.3 861.7 M 814.3 870.7 827.8 870.7 832.3 875.2 832.3 884.3 827.8 888.8 M 823.3 870.7 832.3 861.7 M 843.7 875.2 861.8 875.2 M 857.2 861.7 857.2 888.8 843.7 875.2 M 781.5 857.5 742.1 857.5 M 738.1 939 761.8 939" fill="none" stroke-width="5"/><path d="M 693.9 444.7 656.4 444.7 631.4 444.7 631.4 440.8 M 631.4 444.7 593.9 444.7 M 569.1 404.2 569.1 396.3 M 569.1 354.2 569.1 346.3 M 569.1 304.2 569.1 296.3 M 593.9 255.7 693.9 255.7 M 718.7 296.3 718.7 304.2 M 718.7 346.3 718.7 354.2 M 718.7 396.3 718.7 404.2 M 656.4 440.8 656.4 444.7 M 656.4 440.8 656.2 438.7 655.7 436.7 654.9 434.9 653.8 433.1 652.4 431.6 650.7 430.3 648.9 429.4 647 428.7 644.9 428.3 642.9 428.3 640.8 428.7 638.9 429.4 637.1 430.3 635.4 431.6 634 433.1 632.9 434.9 632.1 436.7 631.6 438.7 631.4 440.8" fill="none" stroke-width="8"/></g></svg>