<svg version="1.1" xmlns="http://www.w3.org/2000/svg" xmlns:xlink="http://www.w3.org/1999/xlink" stroke-linecap="round" stroke-linejoin="round" stroke-width="0" fill-rule="evenodd" width="0.941in" height="1.08275in" viewBox="173.35 64.15 941 1082.75" id="mqa_5VPMzbFP_Hs9d9cm"><defs><circle cx="0" cy="0" r="55.15" id="mqa_5VPMzbFP_Hs9d9cm_pad-10"/><circle cx="0" cy="0" r="21.7" id="mqa_5VPMzbFP_Hs9d9cm_pad-11"/><rect x="-21.7" y="-23.65" width="43.4" height="47.3" id="mqa_5VPMzbFP_Hs9d9cm_pad-12"/><rect x="-17.75" y="-17.75" width="35.5" height="35.5" id="mqa_5VPMzbFP_Hs9d9cm_pad-13"/><rect x="-11.85" y="-11.85" width="23.7" height="23.7" id="mqa_5VPMzbFP_Hs9d9cm_pad-14"/><rect x="-7.9" y="-7.9" width="15.8" height="15.8" id="mqa_5VPMzbFP_Hs9d9cm_pad-15"/><rect x="-21.7" y="-29.55" width="43.4" height="59.1" id="mqa_5VPMzbFP_Hs9d9cm_pad-16"/><circle cx="0" cy="0" r="19.7" id="mqa_5VPMzbFP_Hs9d9cm_pad-17"/><rect x="-15.8" y="-33.5" width="31.6" height="67" id="mqa_5VPMzbFP_Hs9d9cm_pad-18"/><rect x="-21.7" y="-17.75" width="43.4" height="35.5" id="mqa_5VPMzbFP_Hs9d9cm_pad-19"/><rect x="-45.3" y="-13.8" width="90.6" height="27.6" id="mqa_5VPMzbFP_Hs9d9cm_pad-20"/></defs><g transform="translate(0,1211.05) scale(1,-1)" fill="currentColor" stroke="currentColor"><use xlink:href="#mqa_5VPMzbFP_Hs9d9cm_pad-10" x="228.5" y="591.2"/><use xlink:href="#mqa_5VPMzbFP_Hs9d9cm_pad-10" x="1059.2" y="591.2"/><use xlink:href="#mqa_5VPMzbFP_Hs9d9cm_pad-11" x="893.9" y="1125.2"/><use xlink:href="#mqa_5VPMzbFP_Hs9d9cm_pad-11" x="793.9" y="1125.2"/><use xlink:href="#mqa_5VPMzbFP_Hs9d9cm_pad-11" x="693.9" y="1125.2"/><use xlink:href="#mqa_5VPMzbFP_Hs9d9cm_pad-11" x="593.9" y="1125.2"/><use xlink:href="#mqa_5VPMzbFP_Hs9d9cm_pad-11" x="493.9" y="1125.2"/><use xlink:href="#mqa_5VPMzbFP_Hs9d9cm_pad-11" x="393.9" y="1125.2"/><use xlink:href="#mqa_5VPMzbFP_Hs9d9cm_pad-12" x="457" y="737.7"/><use xlink:href="#mqa_5VPMzbFP_Hs9d9cm_pad-12" x="535.8" y="737.7"/><use xlink:href="#mqa_5VPMzbFP_Hs9d9cm_pad-12" x="751.9" y="737.7"/><use xlink:href="#mqa_5VPMzbFP_Hs9d9cm_pad-12" x="830.7" y="737.7"/><use xlink:href="#mqa_5VPMzbFP_Hs9d9cm_pad-13" x="811" y="812.7"/><use xlink:href="#mqa_5VPMzbFP_Hs9d9cm_pad-13" x="748" y="812.7"/><use xlink:href="#mqa_5VPMzbFP_Hs9d9cm_pad-13" x="539.7" y="812.7"/><use xlink:href="#mqa_5VPMzbFP_Hs9d9cm_pad-13" x="476.7" y="812.7"/><use xlink:href="#mqa_5VPMzbFP_Hs9d9cm_pad-13" x="612.4" y="487.7"/><use xlink:href="#mqa_5VPMzbFP_Hs9d9cm_pad-13" x="675.4" y="487.7"/><use xlink:href="#mqa_5VPMzbFP_Hs9d9cm_pad-14" x="742.1" y="875.2"/><use xlink:href="#mqa_5VPMzbFP_Hs9d9cm_pad-14" x="781.5" y="875.2"/><use xlink:href="#mqa_5VPMzbFP_Hs9d9cm_pad-14" x="545.6" y="875.2"/><use xlink:href="#mqa_5VPMzbFP_Hs9d9cm_pad-14" x="506.3" y="875.2"/><use xlink:href="#mqa_5VPMzbFP_Hs9d9cm_pad-15" x="525.9" y="925.2"/><use xlink:href="#mqa_5VPMzbFP_Hs9d9cm_pad-15" x="549.6" y="925.2"/><use xlink:href="#mqa_5VPMzbFP_Hs9d9cm_pad-15" x="738.1" y="925.2"/><use xlink:href="#mqa_5VPMzbFP_Hs9d9cm_pad-15" x="761.8" y="925.2"/><use xlink:href="#mqa_5VPMzbFP_Hs9d9cm_pad-16" x="751.9" y="637.7"/><use xlink:href="#mqa_5VPMzbFP_Hs9d9cm_pad-16" x="885.8" y="637.7"/><use xlink:href="#mqa_5VPMzbFP_Hs9d9cm_pad-16" x="535.8" y="637.7"/><use xlink:href="#mqa_5VPMzbFP_Hs9d9cm_pad-16" x="401.9" y="637.7"/><use xlink:href="#mqa_5VPMzbFP_Hs9d9cm_pad-17" x="584.8" y="125.2"/><use xlink:href="#mqa_5VPMzbFP_Hs9d9cm_pad-17" x="702.9" y="125.2"/><use xlink:href="#mqa_5VPMzbFP_Hs9d9cm_pad-18" x="673.4" y="196.1"/><use xlink:href="#mqa_5VPMzbFP_Hs9d9cm_pad-18" x="732.4" y="196.1"/><use xlink:href="#mqa_5VPMzbFP_Hs9d9cm_pad-18" x="555.3" y="196.1"/><use xlink:href="#mqa_5VPMzbFP_Hs9d9cm_pad-19" x="500.2" y="81.9"/><use xlink:href="#mqa_5VPMzbFP_Hs9d9cm_pad-19" x="500.2" y="168.5"/><use xlink:href="#mqa_5VPMzbFP_Hs9d9cm_pad-19" x="787.6" y="168.5"/><use xlink:href="#mqa_5VPMzbFP_Hs9d9cm_pad-19" x="787.6" y="81.9"/><use xlink:href="#mqa_5VPMzbFP_Hs9d9cm_pad-20" x="746.2" y="275.2"/><use xlink:href="#mqa_5VPMzbFP_Hs9d9cm_pad-20" x="746.2" y="325.2"/><use xlink:href="#mqa_5VPMzbFP_Hs9d9cm_pad-20" x="746.2" y="375.2"/><use xlink:href="#mqa_5VPMzbFP_Hs9d9cm_pad-20" x="746.2" y="425.2"/><use xlink:href="#mqa_5VPMzbFP_Hs9d9cm_pad-20" x="541.5" y="425.2"/><use xlink:href="#mqa_5VPMzbFP_Hs9d9cm_pad-20" x="541.5" y="375.2"/><use xlink:href="#mqa_5VPMzbFP_Hs9d9cm_pad-20" x="541.5" y="325.2"/><use xlink:href="#mqa_5VPMzbFP_Hs9d9cm_pad-20" x="541.5" y="275.2"/></g></svg>