<svg version="1.1" xmlns="http://www.w3.org/2000/svg" xmlns:xlink="http://www.w3.org/1999/xlink" stroke-linecap="round" stroke-linejoin="round" stroke-width="0" fill-rule="evenodd" width="1.03025in" height="1.00425in" viewBox="82.1 200.9 1030.25 1004.25" id="kWsqnLeowfZX1Pys1B07"><defs><circle cx="0" cy="0" r="53.15" id="kWsqnLeowfZX1Pys1B07_pad-10"/><circle cx="0" cy="0" r="118.1" id="kWsqnLeowfZX1Pys1B07_pad-11"/><circle cx="0" cy="0" r="11.8" id="kWsqnLeowfZX1Pys1B07_pad-13"/></defs><g transform="translate(0,1406.05) scale(1,-1)" fill="currentColor" stroke="currentColor"><use xlink:href="#kWsqnLeowfZX1Pys1B07_pad-10" x="228.5" y="591.2"/><use xlink:href="#kWsqnLeowfZX1Pys1B07_pad-10" x="1059.2" y="591.2"/><use xlink:href="#kWsqnLeowfZX1Pys1B07_pad-11" x="643.9" y="591.2"/><path d="M 650.5 1024.5 637.2 1024.5 624 1026.5 611.2 1030.5 599.2 1036.3 588.2 1043.9 578.4 1053.1 570.2 1063.6 319.1 1063.6 316.5 1064 314.1 1064.9 312.1 1066.5 310.5 1068.5 309.5 1070.9 309.2 1073.5 309.2 1152.2 309.5 1154.8 310.5 1157.1 312.1 1159.2 314.1 1160.7 316.5 1161.7 319.1 1162 570.2 1162 578.4 1172.6 588.2 1181.7 599.2 1189.3 611.2 1195.2 624 1199.2 637.2 1201.2 650.5 1201.2 663.8 1199.2 676.5 1195.2 688.5 1189.3 699.5 1181.7 709.3 1172.6 717.5 1162 968.7 1162 971.2 1161.7 973.6 1160.7 975.6 1159.2 977.2 1157.1 978.2 1154.8 978.5 1152.2 978.5 1073.5 978.2 1070.9 977.2 1068.5 975.6 1066.5 973.6 1064.9 971.2 1064 968.7 1063.6 717.5 1063.6 709.3 1053.1 699.5 1043.9 688.5 1036.3 676.5 1030.5 663.8 1026.5 650.5 1024.5 M 670.8 1028.7 616.9 1028.7 M 599 1036.4 688.7 1036.4 M 699.8 1044.2 587.9 1044.2 M 579.7 1051.9 708 1051.9 M 714.4 1059.6 573.3 1059.6 M 574.7 1167.7 713.1 1167.7 M 706.2 1175.5 581.5 1175.5 M 590.3 1183.2 697.4 1183.2 M 685.3 1190.9 602.4 1190.9 M 622.3 1198.6 665.4 1198.6 M 974.5 1160 313.2 1160 M 309.2 1152.3 978.5 1152.3 M 978.5 1144.6 309.2 1144.6 M 309.2 1136.9 978.5 1136.9 M 978.5 1129.1 309.2 1129.1 M 309.2 1121.4 978.5 1121.4 M 978.5 1113.7 309.2 1113.7 M 309.2 1106 978.5 1106 M 978.5 1098.2 309.2 1098.2 M 309.2 1090.5 978.5 1090.5 M 978.5 1082.8 309.2 1082.8 M 309.2 1075.1 978.5 1075.1 M 976.3 1067.3 311.5 1067.3" fill="none" stroke-width="7.9"/><use xlink:href="#kWsqnLeowfZX1Pys1B07_pad-13" x="319.1" y="1073.5"/><use xlink:href="#kWsqnLeowfZX1Pys1B07_pad-13" x="319.1" y="1112.8"/><use xlink:href="#kWsqnLeowfZX1Pys1B07_pad-13" x="319.1" y="1152.2"/><use xlink:href="#kWsqnLeowfZX1Pys1B07_pad-13" x="393.9" y="1037.7"/><use xlink:href="#kWsqnLeowfZX1Pys1B07_pad-13" x="243.9" y="962.7"/><use xlink:href="#kWsqnLeowfZX1Pys1B07_pad-13" x="556.4" y="1074.2"/><use xlink:href="#kWsqnLeowfZX1Pys1B07_pad-13" x="556.4" y="1152.9"/><use xlink:href="#kWsqnLeowfZX1Pys1B07_pad-13" x="643.9" y="1190.4"/><use xlink:href="#kWsqnLeowfZX1Pys1B07_pad-13" x="643.9" y="1112.8"/><use xlink:href="#kWsqnLeowfZX1Pys1B07_pad-13" x="643.9" y="1032.9"/><use xlink:href="#kWsqnLeowfZX1Pys1B07_pad-13" x="733.5" y="1074.2"/><use xlink:href="#kWsqnLeowfZX1Pys1B07_pad-13" x="731.4" y="1152.9"/><use xlink:href="#kWsqnLeowfZX1Pys1B07_pad-13" x="968.7" y="1152.2"/><use xlink:href="#kWsqnLeowfZX1Pys1B07_pad-13" x="968.7" y="1112.8"/><use xlink:href="#kWsqnLeowfZX1Pys1B07_pad-13" x="968.7" y="1073.5"/><use xlink:href="#kWsqnLeowfZX1Pys1B07_pad-13" x="643.9" y="687.7"/><use xlink:href="#kWsqnLeowfZX1Pys1B07_pad-13" x="568.9" y="487.7"/><use xlink:href="#kWsqnLeowfZX1Pys1B07_pad-13" x="643.9" y="350.2"/><use xlink:href="#kWsqnLeowfZX1Pys1B07_pad-13" x="943.9" y="375.2"/><use xlink:href="#kWsqnLeowfZX1Pys1B07_pad-13" x="981.4" y="325.2"/><use xlink:href="#kWsqnLeowfZX1Pys1B07_pad-13" x="1018.9" y="275.2"/><use xlink:href="#kWsqnLeowfZX1Pys1B07_pad-13" x="1034.2" y="212.7"/><use xlink:href="#kWsqnLeowfZX1Pys1B07_pad-13" x="1093.9" y="275.2"/><use xlink:href="#kWsqnLeowfZX1Pys1B07_pad-13" x="1093.9" y="325.2"/><use xlink:href="#kWsqnLeowfZX1Pys1B07_pad-13" x="1093.9" y="375.2"/><use xlink:href="#kWsqnLeowfZX1Pys1B07_pad-13" x="193.9" y="425.2"/><use xlink:href="#kWsqnLeowfZX1Pys1B07_pad-13" x="193.9" y="487.7"/><use xlink:href="#kWsqnLeowfZX1Pys1B07_pad-13" x="93.9" y="450.2"/><path d="M 228.5 265.6 281.4 212.7 1034.2 212.7 M 1018.9 275.2 1093.9 275.2 M 1093.9 325.2 981.4 325.2 M 943.9 375.2 1093.9 375.2 M 643.9 884 643.9 937.7 618.9 962.7 418.9 962.7 393.9 987.7 393.9 1037.7 M 243.9 962.7 181.4 962.7 143.9 925.2 143.9 512.7 168.9 487.7 193.9 487.7 M 193.9 425.2 118.9 425.2 93.9 450.2 M 228.5 591.2 228.5 265.6" fill="none" stroke-width="10"/><path d="M 402.6 388.7 380.7 418.1 362.4 449.8 347.9 483.5 337.4 518.5 331 554.6 328.9 591.2 331 627.7 337.4 663.8 347.9 698.9 362.4 732.5 380.7 764.3 402.6 793.6 427.7 820.3 455.8 843.8 486.4 863.9 519.1 880.4 553.5 892.9 589.2 901.4 625.5 905.6 662.2 905.6 698.6 901.4 734.2 892.9 768.6 880.4 801.3 863.9 831.9 843.8 860 820.3 885.1 793.6 907 764.3 925.3 732.5 939.8 698.9 950.3 663.8 956.7 627.7 958.8 591.2 956.7 554.6 950.3 518.5 939.8 483.5 925.3 449.8 907 418.1 885.1 388.7 860 362.1 831.9 338.5 801.3 318.4 768.6 302 734.2 289.5 698.6 281 662.2 276.8 625.5 276.8 589.2 281 553.5 289.5 519.1 302 486.4 318.4 455.8 338.5 427.7 362.1 402.6 388.7 M 398.9 393.7 888.8 393.7 M 897.5 405.4 390.2 405.4 M 381.5 417 906.2 417 M 913.1 428.7 374.6 428.7 M 367.9 440.3 919.8 440.3 M 926.3 452 361.5 452 M 356.4 463.7 931.3 463.7 M 936.3 475.3 351.4 475.3 M 346.8 487 940.9 487 M 944.4 498.6 343.3 498.6 M 339.9 510.3 947.9 510.3 M 950.9 522 336.8 522 M 334.7 533.6 953 533.6 M 955 545.3 332.7 545.3 M 330.9 556.9 956.8 556.9 M 957.5 568.6 330.2 568.6 M 329.5 580.3 958.2 580.3 M 958.8 591.9 328.9 591.9 M 329.6 603.6 958.1 603.6 M 957.4 615.3 330.3 615.3 M 331 626.9 956.7 626.9 M 954.8 638.6 332.9 638.6 M 335 650.2 952.7 650.2 M 950.7 661.9 337 661.9 M 340.3 673.6 947.4 673.6 M 943.9 685.2 343.8 685.2 M 347.3 696.9 940.4 696.9 M 935.7 708.5 352 708.5 M 357.1 720.2 930.6 720.2 M 925.6 731.9 362.1 731.9 M 368.7 743.5 919 743.5 M 912.2 755.2 375.5 755.2 M 382.6 766.8 905.1 766.8 M 896.4 778.5 391.3 778.5 M 400 790.2 887.7 790.2 M 877.4 801.8 410.3 801.8 M 421.3 813.5 866.4 813.5 M 854.2 825.2 433.5 825.2 M 447.4 836.8 840.3 836.8 M 824.9 848.5 462.9 848.5 M 480.6 860.1 807.1 860.1 M 785.7 871.8 502 871.8 M 527.6 883.5 760.2 883.5 M 724.9 895.1 562.8 895.1 M 408.9 382 878.8 382 M 867.8 370.4 419.9 370.4 M 431.7 358.7 856 358.7 M 842.1 347 445.6 347 M 460.6 335.4 827.1 335.4 M 809.4 323.7 478.3 323.7 M 499 312.1 788.7 312.1 M 764.3 300.4 523.4 300.4 M 556.5 288.7 731.2 288.7 M 665 277.1 622.7 277.1" fill="none" stroke-width="11.8"/></g></svg>