<svg version="1.1" xmlns="http://www.w3.org/2000/svg" xmlns:xlink="http://www.w3.org/1999/xlink" stroke-linecap="round" stroke-linejoin="round" stroke-width="0" fill-rule="evenodd" width="0.9571000000000001in" height="0.8256in" viewBox="184.2 152.2 957.1 825.6" id="AXOAdMWRypkSjhatG5X9"><g transform="translate(0,1130) scale(1,-1)" fill="currentColor" stroke="currentColor"><path d="M 205.7 798.8 222.9 813.7 190.9 816 187.2 820.3 187.8 828.3 196.4 835.7 204.4 835.1 M 215.1 844.4 218.8 840.1 226.8 839.5 226.2 831.5 229.9 827.2 237.9 826.6 246.5 834 247.1 842 M 257.8 851.3 265.8 850.7 274.4 858.1 275 866.1 243 868.4 257.8 851.3 M 275 866.1 260.2 883.3 252.2 883.8 243.6 876.4 243 868.4 M 232.3 859.2 224.3 859.8 215.7 852.4 215.1 844.4 M 226.8 839.5 231.1 843.2 M 274.6 888.2 270.9 892.5 271.4 900.5 280 907.9 288 907.3 M 298.7 916.6 299.3 924.6 312.2 935.7 334.4 909.9 M 327 918.5 314.2 907.4 306.2 908 298.7 916.6 M 318.4 911.1 317.3 895.1 M 306.6 885.9 274.6 888.2 M 289.4 871 306.6 885.9 M 341.4 923.5 349.4 922.9 358 930.3 358.6 938.3 343.8 955.5 335.8 956 327.2 948.6 326.6 940.6 M 903.7 952.7 920.9 937.9 918.5 969.9 922.2 974.2 930.2 974.8 938.8 967.4 939.4 959.4 M 950.1 950.1 952.4 918.1 944.4 917.5 935.9 925 935.3 933 950.1 950.1 958.1 950.7 966.7 943.3 967.3 935.3 952.4 918.1 M 959.4 904.6 976.6 889.8 974.3 921.8 978 926.1 986 926.6 994.6 919.2 995.1 911.2 M 1005.9 902 1002.1 897.7 1002.7 889.7 994.7 889.1 991 884.8 991.6 876.8 1000.2 869.4 1008.2 870 M 1007 886 1002.7 889.7 M 1005.9 902 1013.9 902.6 1022.4 895.2 1023 887.2 M 1026.3 869.3 1043.5 854.5 M 1061.6 853.9 1069.6 854.4 1078.2 847 1078.8 839 1064 821.9 1056 821.3 1047.4 828.7 1046.8 836.7 M 1074.7 812.6 1075.3 804.6 1088.1 793.5 1110.4 819.3 1097.5 830.4 1089.5 829.8 1085.8 825.5 1086.4 817.5 1099.3 806.4 M 1086.4 817.5 1078.4 816.9 1074.7 812.6 M 1098.8 784.3 1116 769.4 1138.3 795.2 M 1094 723.6 1059.9 723.6 M 1059.9 712.3 1059.9 735 M 1082.6 712.3 1094 723.6 M 1088.3 698.1 1082.6 698.1 1076.9 692.5 1076.9 675.5 M 1059.9 675.5 1059.9 692.5 1065.6 698.1 1071.3 698.1 1076.9 692.5 M 1088.3 698.1 1094 692.5 1094 675.5 1059.9 675.5" fill="none" stroke-width="6"/><path d="M 1008 158.1 279.7 158.1 M 328.9 177.8 309.2 217.2 368.3 217.2 388 177.8 M 417.5 177.8 466.7 177.8 427.3 256.5 378.1 256.5 M 348.6 256.5 368.3 217.2 M 309.2 217.2 289.5 256.5 M 456.9 256.5 506.1 256.5 525.7 217.2 476.5 217.2 M 496.2 177.8 545.4 177.8 525.7 217.2 M 535.6 256.5 565.1 256.5 604.5 256.5 M 565.1 256.5 604.5 177.8 M 634 177.8 614.3 217.2 653.7 217.2 673.4 177.8 634 177.8 M 683.2 217.2 702.9 177.8 M 732.4 177.8 712.8 217.2 683.2 217.2 M 732.4 236.9 727.5 246.7 M 742.3 217.2 762 177.8 M 791.5 177.8 771.8 217.2 801.3 217.2 821 177.8 M 850.6 177.8 830.9 217.2 801.3 217.2 M 860.4 217.2 899.8 217.2 919.4 177.8 880.1 177.8 860.4 217.2 M 909.6 256.5 929.3 217.2 968.7 217.2 988.3 177.8 949 177.8 929.3 217.2" fill="none" stroke-width="11.8"/><path d="M 943.7 308.1 1045 407.6 1045 522.3 M 1058.8 522.3 1058.8 421.2 1045 407.6 M 943.7 308.1 938.6 305.1 933.2 302.5 927.7 300.2 922.1 298.3 916.3 296.7 910.5 295.6 904.6 294.7 898.6 294.3 892.7 294.2 886.7 294.5 880.8 295.2 M 880.8 295.3 866.2 300.8 851.4 306 836.5 310.8 821.5 315.2 806.4 319.3 791.2 323.1 776 326.4 760.6 329.4 745.2 332.1 729.7 334.3 714.2 336.2 698.6 337.7 683 338.8 667.4 339.6 651.7 340 636.1 340 620.4 339.6 604.8 338.8 589.2 337.7 573.6 336.2 558.1 334.3 542.6 332.1 527.2 329.4 511.8 326.4 496.6 323.1 481.4 319.3 466.3 315.2 451.3 310.8 436.4 306 421.6 300.8 407 295.3 M 344 308.1 242.7 407.6 242.7 522.3 M 228.9 522.3 228.9 421.2 242.7 407.6 M 344 308.1 349.1 305.1 354.5 302.5 360 300.2 365.6 298.3 371.4 296.7 377.2 295.6 383.1 294.7 389.1 294.3 395 294.2 401 294.5 406.9 295.2 M 242.7 660.1 242.7 767.4 233.3 777.5 347 891.2 366.5 891.2 921.2 891.2 940.7 891.2 1054.4 777.5 1045 767.4 1045 660.1 M 1058.8 660.1 1058.8 766.9 1045 767.4 921.2 891.2 M 366.5 891.2 242.7 767.4 228.9 766.9 228.9 660.1" fill="none" stroke-width="7.9"/></g></svg>