G75*
%MOIN*%
%OFA0B0*%
%FSLAX24Y24*%
%IPPOS*%
%LPD*%
%AMOC8*
5,1,8,0,0,1.08239X$1,22.5*
%
%ADD10C,0.0079*%
%ADD11C,0.0000*%
D10*
X000140Y006502D02*
X000142Y006660D01*
X000148Y006818D01*
X000158Y006976D01*
X000172Y007134D01*
X000190Y007291D01*
X000211Y007448D01*
X000237Y007604D01*
X000267Y007760D01*
X000300Y007915D01*
X000338Y008068D01*
X000379Y008221D01*
X000424Y008373D01*
X000473Y008524D01*
X000526Y008673D01*
X000582Y008821D01*
X000642Y008967D01*
X000706Y009112D01*
X000774Y009255D01*
X000845Y009397D01*
X000919Y009537D01*
X000997Y009674D01*
X001079Y009810D01*
X001163Y009944D01*
X001252Y010075D01*
X001343Y010204D01*
X001438Y010331D01*
X001535Y010456D01*
X001636Y010578D01*
X001740Y010697D01*
X001847Y010814D01*
X001957Y010928D01*
X002070Y011039D01*
X002185Y011148D01*
X002303Y011253D01*
X002424Y011355D01*
X002547Y011455D01*
X002673Y011551D01*
X002801Y011644D01*
X002931Y011734D01*
X003064Y011820D01*
X003199Y011904D01*
X003335Y011983D01*
X003474Y012060D01*
X003615Y012132D01*
X003757Y012202D01*
X003901Y012267D01*
X004047Y012329D01*
X004194Y012387D01*
X004343Y012442D01*
X004493Y012493D01*
X004644Y012540D01*
X004796Y012583D01*
X004949Y012622D01*
X005104Y012658D01*
X005259Y012689D01*
X005415Y012717D01*
X005571Y012741D01*
X005728Y012761D01*
X005886Y012777D01*
X006043Y012789D01*
X006202Y012797D01*
X006360Y012801D01*
X006518Y012801D01*
X006676Y012797D01*
X006835Y012789D01*
X006992Y012777D01*
X007150Y012761D01*
X007307Y012741D01*
X007463Y012717D01*
X007619Y012689D01*
X007774Y012658D01*
X007929Y012622D01*
X008082Y012583D01*
X008234Y012540D01*
X008385Y012493D01*
X008535Y012442D01*
X008684Y012387D01*
X008831Y012329D01*
X008977Y012267D01*
X009121Y012202D01*
X009263Y012132D01*
X009404Y012060D01*
X009543Y011983D01*
X009679Y011904D01*
X009814Y011820D01*
X009947Y011734D01*
X010077Y011644D01*
X010205Y011551D01*
X010331Y011455D01*
X010454Y011355D01*
X010575Y011253D01*
X010693Y011148D01*
X010808Y011039D01*
X010921Y010928D01*
X011031Y010814D01*
X011138Y010697D01*
X011242Y010578D01*
X011343Y010456D01*
X011440Y010331D01*
X011535Y010204D01*
X011626Y010075D01*
X011715Y009944D01*
X011799Y009810D01*
X011881Y009674D01*
X011959Y009537D01*
X012033Y009397D01*
X012104Y009255D01*
X012172Y009112D01*
X012236Y008967D01*
X012296Y008821D01*
X012352Y008673D01*
X012405Y008524D01*
X012454Y008373D01*
X012499Y008221D01*
X012540Y008068D01*
X012578Y007915D01*
X012611Y007760D01*
X012641Y007604D01*
X012667Y007448D01*
X012688Y007291D01*
X012706Y007134D01*
X012720Y006976D01*
X012730Y006818D01*
X012736Y006660D01*
X012738Y006502D01*
X012736Y006344D01*
X012730Y006186D01*
X012720Y006028D01*
X012706Y005870D01*
X012688Y005713D01*
X012667Y005556D01*
X012641Y005400D01*
X012611Y005244D01*
X012578Y005089D01*
X012540Y004936D01*
X012499Y004783D01*
X012454Y004631D01*
X012405Y004480D01*
X012352Y004331D01*
X012296Y004183D01*
X012236Y004037D01*
X012172Y003892D01*
X012104Y003749D01*
X012033Y003607D01*
X011959Y003467D01*
X011881Y003330D01*
X011799Y003194D01*
X011715Y003060D01*
X011626Y002929D01*
X011535Y002800D01*
X011440Y002673D01*
X011343Y002548D01*
X011242Y002426D01*
X011138Y002307D01*
X011031Y002190D01*
X010921Y002076D01*
X010808Y001965D01*
X010693Y001856D01*
X010575Y001751D01*
X010454Y001649D01*
X010331Y001549D01*
X010205Y001453D01*
X010077Y001360D01*
X009947Y001270D01*
X009814Y001184D01*
X009679Y001100D01*
X009543Y001021D01*
X009404Y000944D01*
X009263Y000872D01*
X009121Y000802D01*
X008977Y000737D01*
X008831Y000675D01*
X008684Y000617D01*
X008535Y000562D01*
X008385Y000511D01*
X008234Y000464D01*
X008082Y000421D01*
X007929Y000382D01*
X007774Y000346D01*
X007619Y000315D01*
X007463Y000287D01*
X007307Y000263D01*
X007150Y000243D01*
X006992Y000227D01*
X006835Y000215D01*
X006676Y000207D01*
X006518Y000203D01*
X006360Y000203D01*
X006202Y000207D01*
X006043Y000215D01*
X005886Y000227D01*
X005728Y000243D01*
X005571Y000263D01*
X005415Y000287D01*
X005259Y000315D01*
X005104Y000346D01*
X004949Y000382D01*
X004796Y000421D01*
X004644Y000464D01*
X004493Y000511D01*
X004343Y000562D01*
X004194Y000617D01*
X004047Y000675D01*
X003901Y000737D01*
X003757Y000802D01*
X003615Y000872D01*
X003474Y000944D01*
X003335Y001021D01*
X003199Y001100D01*
X003064Y001184D01*
X002931Y001270D01*
X002801Y001360D01*
X002673Y001453D01*
X002547Y001549D01*
X002424Y001649D01*
X002303Y001751D01*
X002185Y001856D01*
X002070Y001965D01*
X001957Y002076D01*
X001847Y002190D01*
X001740Y002307D01*
X001636Y002426D01*
X001535Y002548D01*
X001438Y002673D01*
X001343Y002800D01*
X001252Y002929D01*
X001163Y003060D01*
X001079Y003194D01*
X000997Y003330D01*
X000919Y003467D01*
X000845Y003607D01*
X000774Y003749D01*
X000706Y003892D01*
X000642Y004037D01*
X000582Y004183D01*
X000526Y004331D01*
X000473Y004480D01*
X000424Y004631D01*
X000379Y004783D01*
X000338Y004936D01*
X000300Y005089D01*
X000267Y005244D01*
X000237Y005400D01*
X000211Y005556D01*
X000190Y005713D01*
X000172Y005870D01*
X000158Y006028D01*
X000148Y006186D01*
X000142Y006344D01*
X000140Y006502D01*
D11*
X005681Y001252D02*
X005683Y001277D01*
X005689Y001302D01*
X005698Y001326D01*
X005711Y001348D01*
X005728Y001368D01*
X005747Y001385D01*
X005768Y001399D01*
X005792Y001409D01*
X005816Y001416D01*
X005842Y001419D01*
X005867Y001418D01*
X005892Y001413D01*
X005916Y001404D01*
X005939Y001392D01*
X005959Y001377D01*
X005977Y001358D01*
X005992Y001337D01*
X006003Y001314D01*
X006011Y001290D01*
X006015Y001265D01*
X006015Y001239D01*
X006011Y001214D01*
X006003Y001190D01*
X005992Y001167D01*
X005977Y001146D01*
X005959Y001127D01*
X005939Y001112D01*
X005916Y001100D01*
X005892Y001091D01*
X005867Y001086D01*
X005842Y001085D01*
X005816Y001088D01*
X005792Y001095D01*
X005768Y001105D01*
X005747Y001119D01*
X005728Y001136D01*
X005711Y001156D01*
X005698Y001178D01*
X005689Y001202D01*
X005683Y001227D01*
X005681Y001252D01*
X006862Y001252D02*
X006864Y001277D01*
X006870Y001302D01*
X006879Y001326D01*
X006892Y001348D01*
X006909Y001368D01*
X006928Y001385D01*
X006949Y001399D01*
X006973Y001409D01*
X006997Y001416D01*
X007023Y001419D01*
X007048Y001418D01*
X007073Y001413D01*
X007097Y001404D01*
X007120Y001392D01*
X007140Y001377D01*
X007158Y001358D01*
X007173Y001337D01*
X007184Y001314D01*
X007192Y001290D01*
X007196Y001265D01*
X007196Y001239D01*
X007192Y001214D01*
X007184Y001190D01*
X007173Y001167D01*
X007158Y001146D01*
X007140Y001127D01*
X007120Y001112D01*
X007097Y001100D01*
X007073Y001091D01*
X007048Y001086D01*
X007023Y001085D01*
X006997Y001088D01*
X006973Y001095D01*
X006949Y001105D01*
X006928Y001119D01*
X006909Y001136D01*
X006892Y001156D01*
X006879Y001178D01*
X006870Y001202D01*
X006864Y001227D01*
X006862Y001252D01*
M02*
