G75*
%MOIN*%
%OFA0B0*%
%FSLAX24Y24*%
%IPPOS*%
%LPD*%
%AMOC8*
5,1,8,0,0,1.08239X$1,22.5*
%
%ADD10C,0.1103*%
%ADD11C,0.0434*%
%ADD12R,0.0434X0.0473*%
%ADD13R,0.0355X0.0355*%
%ADD14R,0.0237X0.0237*%
%ADD15R,0.0158X0.0158*%
%ADD16R,0.0434X0.0591*%
%ADD17C,0.0375*%
%ADD18R,0.0316X0.0670*%
%ADD19R,0.0434X0.0355*%
%ADD20R,0.0906X0.0276*%
D10*
X002285Y005912D03*
X010592Y005912D03*
D11*
X008939Y011252D03*
X007939Y011252D03*
X006939Y011252D03*
X005939Y011252D03*
X004939Y011252D03*
X003939Y011252D03*
D12*
X004570Y007377D03*
X005358Y007377D03*
X007519Y007377D03*
X008307Y007377D03*
D13*
X008110Y008127D03*
X007480Y008127D03*
X005397Y008127D03*
X004767Y008127D03*
X006124Y004877D03*
X006754Y004877D03*
D14*
X007421Y008752D03*
X007815Y008752D03*
X005456Y008752D03*
X005063Y008752D03*
D15*
X005259Y009252D03*
X005496Y009252D03*
X007381Y009252D03*
X007618Y009252D03*
D16*
X007519Y006377D03*
X008858Y006377D03*
X005358Y006377D03*
X004019Y006377D03*
D17*
X005848Y001252D03*
X007029Y001252D03*
D18*
X006734Y001961D03*
X007324Y001961D03*
X005553Y001961D03*
D19*
X005002Y000819D03*
X005002Y001685D03*
X007876Y001685D03*
X007876Y000819D03*
D20*
X007462Y002752D03*
X007462Y003252D03*
X007462Y003752D03*
X007462Y004252D03*
X005415Y004252D03*
X005415Y003752D03*
X005415Y003252D03*
X005415Y002752D03*
M02*
