G75*
%MOIN*%
%OFA0B0*%
%FSLAX24Y24*%
%IPPOS*%
%LPD*%
%AMOC8*
5,1,8,0,0,1.08239X$1,22.5*
%
%ADD10C,0.1063*%
%ADD11C,0.2362*%
%ADD12C,0.0079*%
%ADD13C,0.0236*%
%ADD14C,0.0100*%
%ADD15C,0.0118*%
D10*
X002285Y005912D03*
X010592Y005912D03*
D11*
X006439Y005912D03*
D12*
X006505Y010245D02*
X006372Y010245D01*
X006240Y010265D01*
X006112Y010305D01*
X005992Y010363D01*
X005882Y010439D01*
X005784Y010531D01*
X005702Y010636D01*
X003191Y010636D01*
X003165Y010640D01*
X003141Y010649D01*
X003121Y010665D01*
X003105Y010685D01*
X003095Y010709D01*
X003092Y010735D01*
X003092Y011522D01*
X003095Y011548D01*
X003105Y011571D01*
X003121Y011592D01*
X003141Y011607D01*
X003165Y011617D01*
X003191Y011620D01*
X005702Y011620D01*
X005784Y011726D01*
X005882Y011817D01*
X005992Y011893D01*
X006112Y011952D01*
X006240Y011992D01*
X006372Y012012D01*
X006505Y012012D01*
X006638Y011992D01*
X006765Y011952D01*
X006885Y011893D01*
X006995Y011817D01*
X007093Y011726D01*
X007175Y011620D01*
X009687Y011620D01*
X009712Y011617D01*
X009736Y011607D01*
X009756Y011592D01*
X009772Y011571D01*
X009782Y011548D01*
X009785Y011522D01*
X009785Y010735D01*
X009782Y010709D01*
X009772Y010685D01*
X009756Y010665D01*
X009736Y010649D01*
X009712Y010640D01*
X009687Y010636D01*
X007175Y010636D01*
X007093Y010531D01*
X006995Y010439D01*
X006885Y010363D01*
X006765Y010305D01*
X006638Y010265D01*
X006505Y010245D01*
X006708Y010287D02*
X006169Y010287D01*
X005990Y010364D02*
X006887Y010364D01*
X006998Y010442D02*
X005879Y010442D01*
X005797Y010519D02*
X007080Y010519D01*
X007144Y010596D02*
X005733Y010596D01*
X005747Y011677D02*
X007131Y011677D01*
X007062Y011755D02*
X005815Y011755D01*
X005903Y011832D02*
X006974Y011832D01*
X006853Y011909D02*
X006024Y011909D01*
X006223Y011986D02*
X006654Y011986D01*
X009745Y011600D02*
X003132Y011600D01*
X003092Y011523D02*
X009785Y011523D01*
X009785Y011446D02*
X003092Y011446D01*
X003092Y011369D02*
X009785Y011369D01*
X009785Y011291D02*
X003092Y011291D01*
X003092Y011214D02*
X009785Y011214D01*
X009785Y011137D02*
X003092Y011137D01*
X003092Y011060D02*
X009785Y011060D01*
X009785Y010982D02*
X003092Y010982D01*
X003092Y010905D02*
X009785Y010905D01*
X009785Y010828D02*
X003092Y010828D01*
X003092Y010751D02*
X009785Y010751D01*
X009763Y010673D02*
X003115Y010673D01*
D13*
X003191Y010735D03*
X003191Y011128D03*
X003191Y011522D03*
X003939Y010377D03*
X002439Y009627D03*
X005564Y010742D03*
X005564Y011529D03*
X006439Y011904D03*
X006439Y011128D03*
X006439Y010329D03*
X007335Y010742D03*
X007314Y011529D03*
X009687Y011522D03*
X009687Y011128D03*
X009687Y010735D03*
X006439Y006877D03*
X005689Y004877D03*
X006439Y003502D03*
X009439Y003752D03*
X009814Y003252D03*
X010189Y002752D03*
X010342Y002127D03*
X010939Y002752D03*
X010939Y003252D03*
X010939Y003752D03*
X001939Y004252D03*
X001939Y004877D03*
X000939Y004502D03*
D14*
X002285Y002656D02*
X002814Y002127D01*
X010342Y002127D01*
X010189Y002752D02*
X010939Y002752D01*
X010939Y003252D02*
X009814Y003252D01*
X009439Y003752D02*
X010939Y003752D01*
X006439Y008840D02*
X006439Y009377D01*
X006189Y009627D01*
X004189Y009627D01*
X003939Y009877D01*
X003939Y010377D01*
X002439Y009627D02*
X001814Y009627D01*
X001439Y009252D01*
X001439Y005127D01*
X001689Y004877D01*
X001939Y004877D01*
X001939Y004252D02*
X001189Y004252D01*
X000939Y004502D01*
X002285Y005912D02*
X002285Y002656D01*
D15*
X004026Y003887D02*
X003807Y004181D01*
X003624Y004498D01*
X003479Y004835D01*
X003374Y005185D01*
X003310Y005546D01*
X003289Y005912D01*
X003310Y006277D01*
X003374Y006638D01*
X003479Y006989D01*
X003624Y007325D01*
X003807Y007643D01*
X004026Y007936D01*
X004277Y008203D01*
X004558Y008438D01*
X004864Y008639D01*
X005191Y008804D01*
X005535Y008929D01*
X005892Y009014D01*
X006255Y009056D01*
X006622Y009056D01*
X006986Y009014D01*
X007342Y008929D01*
X007686Y008804D01*
X008013Y008639D01*
X008319Y008438D01*
X008600Y008203D01*
X008851Y007936D01*
X009070Y007643D01*
X009253Y007325D01*
X009398Y006989D01*
X009503Y006638D01*
X009567Y006277D01*
X009588Y005912D01*
X009567Y005546D01*
X009503Y005185D01*
X009398Y004835D01*
X009253Y004498D01*
X009070Y004181D01*
X008851Y003887D01*
X008600Y003621D01*
X008319Y003385D01*
X008013Y003184D01*
X007686Y003020D01*
X007342Y002895D01*
X006986Y002810D01*
X006622Y002768D01*
X006255Y002768D01*
X005892Y002810D01*
X005535Y002895D01*
X005191Y003020D01*
X004864Y003184D01*
X004558Y003385D01*
X004277Y003621D01*
X004026Y003887D01*
X003989Y003937D02*
X008888Y003937D01*
X008975Y004054D02*
X003902Y004054D01*
X003815Y004170D02*
X009062Y004170D01*
X009131Y004287D02*
X003746Y004287D01*
X003679Y004403D02*
X009198Y004403D01*
X009263Y004520D02*
X003615Y004520D01*
X003564Y004637D02*
X009313Y004637D01*
X009363Y004753D02*
X003514Y004753D01*
X003468Y004870D02*
X009409Y004870D01*
X009444Y004986D02*
X003433Y004986D01*
X003399Y005103D02*
X009479Y005103D01*
X009509Y005220D02*
X003368Y005220D01*
X003347Y005336D02*
X009530Y005336D01*
X009550Y005453D02*
X003327Y005453D01*
X003309Y005569D02*
X009568Y005569D01*
X009575Y005686D02*
X003302Y005686D01*
X003295Y005803D02*
X009582Y005803D01*
X009588Y005919D02*
X003289Y005919D01*
X003296Y006036D02*
X009581Y006036D01*
X009574Y006153D02*
X003303Y006153D01*
X003310Y006269D02*
X009567Y006269D01*
X009548Y006386D02*
X003329Y006386D01*
X003350Y006502D02*
X009527Y006502D01*
X009507Y006619D02*
X003370Y006619D01*
X003403Y006736D02*
X009474Y006736D01*
X009439Y006852D02*
X003438Y006852D01*
X003473Y006969D02*
X009404Y006969D01*
X009357Y007085D02*
X003520Y007085D01*
X003571Y007202D02*
X009306Y007202D01*
X009256Y007319D02*
X003621Y007319D01*
X003687Y007435D02*
X009190Y007435D01*
X009122Y007552D02*
X003755Y007552D01*
X003826Y007668D02*
X009051Y007668D01*
X008964Y007785D02*
X003913Y007785D01*
X004000Y007902D02*
X008877Y007902D01*
X008774Y008018D02*
X004103Y008018D01*
X004213Y008135D02*
X008664Y008135D01*
X008542Y008252D02*
X004335Y008252D01*
X004474Y008368D02*
X008403Y008368D01*
X008249Y008485D02*
X004629Y008485D01*
X004806Y008601D02*
X008071Y008601D01*
X007857Y008718D02*
X005020Y008718D01*
X005276Y008835D02*
X007602Y008835D01*
X007249Y008951D02*
X005628Y008951D01*
X004089Y003820D02*
X008788Y003820D01*
X008678Y003704D02*
X004199Y003704D01*
X004317Y003587D02*
X008560Y003587D01*
X008421Y003470D02*
X004456Y003470D01*
X004606Y003354D02*
X008271Y003354D01*
X008094Y003237D02*
X004783Y003237D01*
X004990Y003121D02*
X007887Y003121D01*
X007643Y003004D02*
X005234Y003004D01*
X005565Y002887D02*
X007312Y002887D01*
X006650Y002771D02*
X006227Y002771D01*
M02*
