<svg version="1.1" xmlns="http://www.w3.org/2000/svg" xmlns:xlink="http://www.w3.org/1999/xlink" stroke-linecap="round" stroke-linejoin="round" stroke-width="0" fill-rule="evenodd" width="87.9628in" height="85.9528in" viewBox="10183.1 10323.1 87962.8 85952.8" id="NEvVUUhPX2DVju7uPHSM"><defs><circle cx="0" cy="0" r="5.9" id="NEvVUUhPX2DVju7uPHSM_pad-1"/><circle cx="0" cy="0" r="17.7" id="NEvVUUhPX2DVju7uPHSM_pad-2"/><circle cx="0" cy="0" r="35.45" id="NEvVUUhPX2DVju7uPHSM_pad-3"/></defs><g transform="translate(0,106599) scale(1,-1)" fill="currentColor" stroke="currentColor"><use xlink:href="#NEvVUUhPX2DVju7uPHSM_pad-1" x="19390" y="42520"/><use xlink:href="#NEvVUUhPX2DVju7uPHSM_pad-1" x="19390" y="48770"/><use xlink:href="#NEvVUUhPX2DVju7uPHSM_pad-1" x="93900" y="45020"/><use xlink:href="#NEvVUUhPX2DVju7uPHSM_pad-1" x="56890" y="48770"/><use xlink:href="#NEvVUUhPX2DVju7uPHSM_pad-1" x="64390" y="35020"/><use xlink:href="#NEvVUUhPX2DVju7uPHSM_pad-1" x="64390" y="65020"/><use xlink:href="#NEvVUUhPX2DVju7uPHSM_pad-1" x="94390" y="37520"/><use xlink:href="#NEvVUUhPX2DVju7uPHSM_pad-1" x="98140" y="32520"/><use xlink:href="#NEvVUUhPX2DVju7uPHSM_pad-1" x="10189" y="27520"/><use xlink:href="#NEvVUUhPX2DVju7uPHSM_pad-1" x="10342" y="21270"/><use xlink:href="#NEvVUUhPX2DVju7uPHSM_pad-1" x="10939" y="27520"/><use xlink:href="#NEvVUUhPX2DVju7uPHSM_pad-1" x="10939" y="32520"/><use xlink:href="#NEvVUUhPX2DVju7uPHSM_pad-1" x="10939" y="37520"/><use xlink:href="#NEvVUUhPX2DVju7uPHSM_pad-1" x="64390" y="10329"/><use xlink:href="#NEvVUUhPX2DVju7uPHSM_pad-1" x="64390" y="11128"/><use xlink:href="#NEvVUUhPX2DVju7uPHSM_pad-1" x="64390" y="11904"/><use xlink:href="#NEvVUUhPX2DVju7uPHSM_pad-1" x="73140" y="11529"/><use xlink:href="#NEvVUUhPX2DVju7uPHSM_pad-1" x="73350" y="10742"/><use xlink:href="#NEvVUUhPX2DVju7uPHSM_pad-1" x="55640" y="10742"/><use xlink:href="#NEvVUUhPX2DVju7uPHSM_pad-1" x="55640" y="11529"/><use xlink:href="#NEvVUUhPX2DVju7uPHSM_pad-1" x="39390" y="10377"/><use xlink:href="#NEvVUUhPX2DVju7uPHSM_pad-1" x="31910" y="10735"/><use xlink:href="#NEvVUUhPX2DVju7uPHSM_pad-1" x="31910" y="11128"/><use xlink:href="#NEvVUUhPX2DVju7uPHSM_pad-1" x="31910" y="11522"/><use xlink:href="#NEvVUUhPX2DVju7uPHSM_pad-1" x="24390" y="96270"/><use xlink:href="#NEvVUUhPX2DVju7uPHSM_pad-1" x="96870" y="10735"/><use xlink:href="#NEvVUUhPX2DVju7uPHSM_pad-1" x="96870" y="11128"/><use xlink:href="#NEvVUUhPX2DVju7uPHSM_pad-1" x="96870" y="11522"/><use xlink:href="#NEvVUUhPX2DVju7uPHSM_pad-2" x="70290" y="12520"/><use xlink:href="#NEvVUUhPX2DVju7uPHSM_pad-2" x="58480" y="12520"/><use xlink:href="#NEvVUUhPX2DVju7uPHSM_pad-3" x="22850" y="59120"/><use xlink:href="#NEvVUUhPX2DVju7uPHSM_pad-3" x="10592" y="59120"/></g></svg>