<svg version="1.1" xmlns="http://www.w3.org/2000/svg" xmlns:xlink="http://www.w3.org/1999/xlink" stroke-linecap="round" stroke-linejoin="round" stroke-width="0" fill-rule="evenodd" clip-rule="evenodd" id="ngNyrE3Y2L7nU-LGlO1w_top" viewBox="14 20.3 1259.8 1259.8" width="1.2598in" height="1.2598in" class="w-100 h-100"><defs><style>.ngNyrE3Y2L7nU-LGlO1w_fr4 {color: #666666;}
.ngNyrE3Y2L7nU-LGlO1w_cu {color: #cccccc;}
.ngNyrE3Y2L7nU-LGlO1w_cf {color: #cc9933;}
.ngNyrE3Y2L7nU-LGlO1w_sm {color: #0d0d0d; opacity: 0.75;}
.ngNyrE3Y2L7nU-LGlO1w_ss {color: #ffffff;}
.ngNyrE3Y2L7nU-LGlO1w_sp {color: #999999;}
.ngNyrE3Y2L7nU-LGlO1w_out {color: #000000;}</style><circle cx="0" cy="0" r="55.15" id="Hi5FyUUxv1ZFXrB8ez7e_pad-10"/><circle cx="0" cy="0" r="21.7" id="Hi5FyUUxv1ZFXrB8ez7e_pad-11"/><rect x="-17.75" y="-17.75" width="35.5" height="35.5" id="Hi5FyUUxv1ZFXrB8ez7e_pad-12"/><circle cx="0" cy="0" r="19.7" id="Hi5FyUUxv1ZFXrB8ez7e_pad-13"/><rect x="-15.8" y="-33.5" width="31.6" height="67" id="Hi5FyUUxv1ZFXrB8ez7e_pad-14"/><rect x="-21.7" y="-17.75" width="43.4" height="35.5" id="Hi5FyUUxv1ZFXrB8ez7e_pad-15"/><rect x="-45.3" y="-13.8" width="90.6" height="27.6" id="Hi5FyUUxv1ZFXrB8ez7e_pad-16"/><circle cx="0" cy="0" r="53.15" id="RUVAdYDNuOF8S8S1Vhoy_pad-10"/><circle cx="0" cy="0" r="19.7" id="RUVAdYDNuOF8S8S1Vhoy_pad-11"/><rect x="-15.75" y="-15.75" width="31.5" height="31.5" id="RUVAdYDNuOF8S8S1Vhoy_pad-12"/><rect x="-13.8" y="-31.5" width="27.6" height="63" id="RUVAdYDNuOF8S8S1Vhoy_pad-13"/><rect x="-19.7" y="-15.75" width="39.4" height="31.5" id="RUVAdYDNuOF8S8S1Vhoy_pad-14"/><rect x="-43.3" y="-11.8" width="86.6" height="23.6" id="RUVAdYDNuOF8S8S1Vhoy_pad-15"/><circle cx="0" cy="0" r="11.8" id="RUVAdYDNuOF8S8S1Vhoy_pad-16"/><circle cx="0" cy="0" r="5.9" id="NEvVUUhPX2DVju7uPHSM_pad-1"/><circle cx="0" cy="0" r="17.7" id="NEvVUUhPX2DVju7uPHSM_pad-2"/><circle cx="0" cy="0" r="35.45" id="NEvVUUhPX2DVju7uPHSM_pad-3"/><g id="ngNyrE3Y2L7nU-LGlO1w_top_soldermask"><use xlink:href="#Hi5FyUUxv1ZFXrB8ez7e_pad-10" x="228.5" y="591.2"/><use xlink:href="#Hi5FyUUxv1ZFXrB8ez7e_pad-10" x="1059.2" y="591.2"/><use xlink:href="#Hi5FyUUxv1ZFXrB8ez7e_pad-11" x="893.9" y="1125.2"/><use xlink:href="#Hi5FyUUxv1ZFXrB8ez7e_pad-11" x="793.9" y="1125.2"/><use xlink:href="#Hi5FyUUxv1ZFXrB8ez7e_pad-11" x="693.9" y="1125.2"/><use xlink:href="#Hi5FyUUxv1ZFXrB8ez7e_pad-11" x="593.9" y="1125.2"/><use xlink:href="#Hi5FyUUxv1ZFXrB8ez7e_pad-11" x="493.9" y="1125.2"/><use xlink:href="#Hi5FyUUxv1ZFXrB8ez7e_pad-11" x="393.9" y="1125.2"/><use xlink:href="#Hi5FyUUxv1ZFXrB8ez7e_pad-12" x="474.9" y="925.2"/><use xlink:href="#Hi5FyUUxv1ZFXrB8ez7e_pad-12" x="537.9" y="925.2"/><use xlink:href="#Hi5FyUUxv1ZFXrB8ez7e_pad-12" x="537.9" y="850.2"/><use xlink:href="#Hi5FyUUxv1ZFXrB8ez7e_pad-12" x="474.9" y="850.2"/><use xlink:href="#Hi5FyUUxv1ZFXrB8ez7e_pad-12" x="474.9" y="775.2"/><use xlink:href="#Hi5FyUUxv1ZFXrB8ez7e_pad-12" x="537.9" y="775.2"/><use xlink:href="#Hi5FyUUxv1ZFXrB8ez7e_pad-12" x="537.9" y="700.2"/><use xlink:href="#Hi5FyUUxv1ZFXrB8ez7e_pad-12" x="474.9" y="700.2"/><use xlink:href="#Hi5FyUUxv1ZFXrB8ez7e_pad-12" x="474.9" y="625.2"/><use xlink:href="#Hi5FyUUxv1ZFXrB8ez7e_pad-12" x="537.9" y="625.2"/><use xlink:href="#Hi5FyUUxv1ZFXrB8ez7e_pad-12" x="612.4" y="487.7"/><use xlink:href="#Hi5FyUUxv1ZFXrB8ez7e_pad-12" x="675.4" y="487.7"/><use xlink:href="#Hi5FyUUxv1ZFXrB8ez7e_pad-12" x="749.9" y="625.2"/><use xlink:href="#Hi5FyUUxv1ZFXrB8ez7e_pad-12" x="812.9" y="625.2"/><use xlink:href="#Hi5FyUUxv1ZFXrB8ez7e_pad-12" x="812.9" y="700.2"/><use xlink:href="#Hi5FyUUxv1ZFXrB8ez7e_pad-12" x="749.9" y="700.2"/><use xlink:href="#Hi5FyUUxv1ZFXrB8ez7e_pad-12" x="749.9" y="775.2"/><use xlink:href="#Hi5FyUUxv1ZFXrB8ez7e_pad-12" x="812.9" y="775.2"/><use xlink:href="#Hi5FyUUxv1ZFXrB8ez7e_pad-12" x="812.9" y="850.2"/><use xlink:href="#Hi5FyUUxv1ZFXrB8ez7e_pad-12" x="749.9" y="850.2"/><use xlink:href="#Hi5FyUUxv1ZFXrB8ez7e_pad-12" x="749.9" y="925.2"/><use xlink:href="#Hi5FyUUxv1ZFXrB8ez7e_pad-12" x="812.9" y="925.2"/><use xlink:href="#Hi5FyUUxv1ZFXrB8ez7e_pad-13" x="702.9" y="125.2"/><use xlink:href="#Hi5FyUUxv1ZFXrB8ez7e_pad-13" x="584.8" y="125.2"/><use xlink:href="#Hi5FyUUxv1ZFXrB8ez7e_pad-14" x="555.3" y="196.1"/><use xlink:href="#Hi5FyUUxv1ZFXrB8ez7e_pad-14" x="673.4" y="196.1"/><use xlink:href="#Hi5FyUUxv1ZFXrB8ez7e_pad-14" x="732.4" y="196.1"/><use xlink:href="#Hi5FyUUxv1ZFXrB8ez7e_pad-15" x="500.2" y="81.9"/><use xlink:href="#Hi5FyUUxv1ZFXrB8ez7e_pad-15" x="500.2" y="168.5"/><use xlink:href="#Hi5FyUUxv1ZFXrB8ez7e_pad-15" x="787.6" y="168.5"/><use xlink:href="#Hi5FyUUxv1ZFXrB8ez7e_pad-15" x="787.6" y="81.9"/><use xlink:href="#Hi5FyUUxv1ZFXrB8ez7e_pad-16" x="746.2" y="275.2"/><use xlink:href="#Hi5FyUUxv1ZFXrB8ez7e_pad-16" x="746.2" y="325.2"/><use xlink:href="#Hi5FyUUxv1ZFXrB8ez7e_pad-16" x="746.2" y="375.2"/><use xlink:href="#Hi5FyUUxv1ZFXrB8ez7e_pad-16" x="746.2" y="425.2"/><use xlink:href="#Hi5FyUUxv1ZFXrB8ez7e_pad-16" x="541.5" y="425.2"/><use xlink:href="#Hi5FyUUxv1ZFXrB8ez7e_pad-16" x="541.5" y="375.2"/><use xlink:href="#Hi5FyUUxv1ZFXrB8ez7e_pad-16" x="541.5" y="325.2"/><use xlink:href="#Hi5FyUUxv1ZFXrB8ez7e_pad-16" x="541.5" y="275.2"/></g><g id="ngNyrE3Y2L7nU-LGlO1w_top_copper"><use xlink:href="#RUVAdYDNuOF8S8S1Vhoy_pad-10" x="228.5" y="591.2"/><use xlink:href="#RUVAdYDNuOF8S8S1Vhoy_pad-10" x="1059.2" y="591.2"/><use xlink:href="#RUVAdYDNuOF8S8S1Vhoy_pad-11" x="893.9" y="1125.2"/><use xlink:href="#RUVAdYDNuOF8S8S1Vhoy_pad-11" x="793.9" y="1125.2"/><use xlink:href="#RUVAdYDNuOF8S8S1Vhoy_pad-11" x="693.9" y="1125.2"/><use xlink:href="#RUVAdYDNuOF8S8S1Vhoy_pad-11" x="593.9" y="1125.2"/><use xlink:href="#RUVAdYDNuOF8S8S1Vhoy_pad-11" x="493.9" y="1125.2"/><use xlink:href="#RUVAdYDNuOF8S8S1Vhoy_pad-11" x="393.9" y="1125.2"/><use xlink:href="#RUVAdYDNuOF8S8S1Vhoy_pad-12" x="474.9" y="925.2"/><use xlink:href="#RUVAdYDNuOF8S8S1Vhoy_pad-12" x="537.9" y="925.2"/><use xlink:href="#RUVAdYDNuOF8S8S1Vhoy_pad-12" x="537.9" y="850.2"/><use xlink:href="#RUVAdYDNuOF8S8S1Vhoy_pad-12" x="474.9" y="850.2"/><use xlink:href="#RUVAdYDNuOF8S8S1Vhoy_pad-12" x="474.9" y="775.2"/><use xlink:href="#RUVAdYDNuOF8S8S1Vhoy_pad-12" x="537.9" y="775.2"/><use xlink:href="#RUVAdYDNuOF8S8S1Vhoy_pad-12" x="537.9" y="700.2"/><use xlink:href="#RUVAdYDNuOF8S8S1Vhoy_pad-12" x="474.9" y="700.2"/><use xlink:href="#RUVAdYDNuOF8S8S1Vhoy_pad-12" x="474.9" y="625.2"/><use xlink:href="#RUVAdYDNuOF8S8S1Vhoy_pad-12" x="537.9" y="625.2"/><use xlink:href="#RUVAdYDNuOF8S8S1Vhoy_pad-12" x="612.4" y="487.7"/><use xlink:href="#RUVAdYDNuOF8S8S1Vhoy_pad-12" x="675.4" y="487.7"/><use xlink:href="#RUVAdYDNuOF8S8S1Vhoy_pad-12" x="749.9" y="625.2"/><use xlink:href="#RUVAdYDNuOF8S8S1Vhoy_pad-12" x="812.9" y="625.2"/><use xlink:href="#RUVAdYDNuOF8S8S1Vhoy_pad-12" x="812.9" y="700.2"/><use xlink:href="#RUVAdYDNuOF8S8S1Vhoy_pad-12" x="749.9" y="700.2"/><use xlink:href="#RUVAdYDNuOF8S8S1Vhoy_pad-12" x="749.9" y="775.2"/><use xlink:href="#RUVAdYDNuOF8S8S1Vhoy_pad-12" x="812.9" y="775.2"/><use xlink:href="#RUVAdYDNuOF8S8S1Vhoy_pad-12" x="812.9" y="850.2"/><use xlink:href="#RUVAdYDNuOF8S8S1Vhoy_pad-12" x="749.9" y="850.2"/><use xlink:href="#RUVAdYDNuOF8S8S1Vhoy_pad-12" x="749.9" y="925.2"/><use xlink:href="#RUVAdYDNuOF8S8S1Vhoy_pad-12" x="812.9" y="925.2"/><use xlink:href="#RUVAdYDNuOF8S8S1Vhoy_pad-13" x="732.4" y="196.1"/><use xlink:href="#RUVAdYDNuOF8S8S1Vhoy_pad-13" x="673.4" y="196.1"/><use xlink:href="#RUVAdYDNuOF8S8S1Vhoy_pad-13" x="555.3" y="196.1"/><use xlink:href="#RUVAdYDNuOF8S8S1Vhoy_pad-14" x="500.2" y="168.5"/><use xlink:href="#RUVAdYDNuOF8S8S1Vhoy_pad-14" x="500.2" y="81.9"/><use xlink:href="#RUVAdYDNuOF8S8S1Vhoy_pad-14" x="787.6" y="81.9"/><use xlink:href="#RUVAdYDNuOF8S8S1Vhoy_pad-14" x="787.6" y="168.5"/><use xlink:href="#RUVAdYDNuOF8S8S1Vhoy_pad-15" x="746.2" y="275.2"/><use xlink:href="#RUVAdYDNuOF8S8S1Vhoy_pad-15" x="746.2" y="325.2"/><use xlink:href="#RUVAdYDNuOF8S8S1Vhoy_pad-15" x="746.2" y="375.2"/><use xlink:href="#RUVAdYDNuOF8S8S1Vhoy_pad-15" x="746.2" y="425.2"/><use xlink:href="#RUVAdYDNuOF8S8S1Vhoy_pad-15" x="541.5" y="425.2"/><use xlink:href="#RUVAdYDNuOF8S8S1Vhoy_pad-15" x="541.5" y="375.2"/><use xlink:href="#RUVAdYDNuOF8S8S1Vhoy_pad-15" x="541.5" y="325.2"/><use xlink:href="#RUVAdYDNuOF8S8S1Vhoy_pad-15" x="541.5" y="275.2"/><use xlink:href="#RUVAdYDNuOF8S8S1Vhoy_pad-16" x="643.9" y="350.2"/><use xlink:href="#RUVAdYDNuOF8S8S1Vhoy_pad-16" x="568.9" y="487.7"/><use xlink:href="#RUVAdYDNuOF8S8S1Vhoy_pad-16" x="643.9" y="650.2"/><use xlink:href="#RUVAdYDNuOF8S8S1Vhoy_pad-16" x="943.9" y="375.2"/><use xlink:href="#RUVAdYDNuOF8S8S1Vhoy_pad-16" x="981.4" y="325.2"/><use xlink:href="#RUVAdYDNuOF8S8S1Vhoy_pad-16" x="1018.9" y="275.2"/><use xlink:href="#RUVAdYDNuOF8S8S1Vhoy_pad-16" x="1034.2" y="212.7"/><use xlink:href="#RUVAdYDNuOF8S8S1Vhoy_pad-16" x="1093.9" y="275.2"/><use xlink:href="#RUVAdYDNuOF8S8S1Vhoy_pad-16" x="1093.9" y="325.2"/><use xlink:href="#RUVAdYDNuOF8S8S1Vhoy_pad-16" x="1093.9" y="375.2"/><use xlink:href="#RUVAdYDNuOF8S8S1Vhoy_pad-16" x="643.9" y="1032.9"/><use xlink:href="#RUVAdYDNuOF8S8S1Vhoy_pad-16" x="643.9" y="1112.8"/><use xlink:href="#RUVAdYDNuOF8S8S1Vhoy_pad-16" x="643.9" y="1190.4"/><use xlink:href="#RUVAdYDNuOF8S8S1Vhoy_pad-16" x="731.4" y="1152.9"/><use xlink:href="#RUVAdYDNuOF8S8S1Vhoy_pad-16" x="733.5" y="1074.2"/><use xlink:href="#RUVAdYDNuOF8S8S1Vhoy_pad-16" x="556.4" y="1074.2"/><use xlink:href="#RUVAdYDNuOF8S8S1Vhoy_pad-16" x="556.4" y="1152.9"/><use xlink:href="#RUVAdYDNuOF8S8S1Vhoy_pad-16" x="393.9" y="1037.7"/><use xlink:href="#RUVAdYDNuOF8S8S1Vhoy_pad-16" x="319.1" y="1073.5"/><use xlink:href="#RUVAdYDNuOF8S8S1Vhoy_pad-16" x="319.1" y="1112.8"/><use xlink:href="#RUVAdYDNuOF8S8S1Vhoy_pad-16" x="319.1" y="1152.2"/><use xlink:href="#RUVAdYDNuOF8S8S1Vhoy_pad-16" x="243.9" y="962.7"/><use xlink:href="#RUVAdYDNuOF8S8S1Vhoy_pad-16" x="193.9" y="487.7"/><use xlink:href="#RUVAdYDNuOF8S8S1Vhoy_pad-16" x="193.9" y="425.2"/><use xlink:href="#RUVAdYDNuOF8S8S1Vhoy_pad-16" x="93.9" y="450.2"/><use xlink:href="#RUVAdYDNuOF8S8S1Vhoy_pad-16" x="968.7" y="1073.5"/><use xlink:href="#RUVAdYDNuOF8S8S1Vhoy_pad-16" x="968.7" y="1112.8"/><use xlink:href="#RUVAdYDNuOF8S8S1Vhoy_pad-16" x="968.7" y="1152.2"/><path d="M 541.5 325.2 206.4 325.2 118.9 412.7 118.9 862.7 181.4 925.2 474.9 925.2 M 537.9 925.2 749.9 925.2 M 718.9 975.2 1043.9 975.2 1143.9 875.2 1143.9 550.2 1093.9 500.2 1093.9 375.2 M 1118.9 350.2 1093.9 325.2 M 1118.9 350.2 1118.9 487.7 1168.9 537.7 1168.9 887.7 1056.4 1000.2 818.9 1000.2 793.9 1025.2 793.9 1125.2 M 893.9 1125.2 893.9 1050.2 918.9 1025.2 1068.9 1025.2 1193.9 900.2 1193.9 525.2 1143.9 475.2 1143.9 325.2 1093.9 275.2 M 1059.2 237.7 1059.2 591.2 M 1018.9 500.2 1018.9 275.2 746.2 275.2 M 746.2 325.2 981.4 325.2 981.4 500.2 931.4 550.2 368.9 550.2 343.9 575.2 343.9 675.2 368.9 700.2 474.9 700.2 M 537.9 700.2 749.9 700.2 M 812.9 700.2 968.9 700.2 968.9 662.7 656.4 662.7 643.9 650.2 M 537.9 625.2 749.9 625.2 M 812.9 625.2 956.4 625.2 968.9 637.7 968.9 662.7 M 968.9 700.2 968.9 775.2 968.9 850.2 812.9 850.2 M 749.9 850.2 537.9 850.2 M 474.9 850.2 168.9 850.2 143.9 825.2 143.9 437.7 206.4 375.2 541.5 375.2 M 541.5 425.2 193.9 425.2 M 193.9 487.7 431.4 487.7 456.4 462.7 581.4 462.7 618.9 425.2 673.4 425.2 746.2 425.2 746.2 462.7 721.2 487.7 675.4 487.7 M 673.4 425.2 673.4 196.1 M 732.4 196.1 764.7 196.1 781.4 212.7 1034.2 212.7 1059.2 237.7 M 943.9 375.2 746.2 375.2 M 643.9 350.2 643.9 300.2 618.9 275.2 541.5 275.2 M 568.9 487.7 612.4 487.7 M 474.9 625.2 381.4 625.2 368.9 612.7 368.9 587.7 381.4 575.2 943.9 575.2 1018.9 500.2 M 943.9 500.2 943.9 375.2 M 943.9 500.2 918.9 525.2 343.9 525.2 318.9 550.2 318.9 750.2 343.9 775.2 474.9 775.2 M 537.9 775.2 749.9 775.2 M 812.9 775.2 968.9 775.2 M 968.9 850.2 968.9 900.2 943.9 925.2 812.9 925.2 M 718.9 975.2 693.9 1000.2 693.9 1125.2 M 593.9 1125.2 593.9 987.7 568.9 962.7 243.9 962.7 M 218.9 1000.2 93.9 875.2 93.9 450.2 M 218.9 1000.2 468.9 1000.2 493.9 1025.2 493.9 1125.2 M 393.9 1125.2 393.9 1037.7" fill="none" stroke-width="10"/></g><g id="ngNyrE3Y2L7nU-LGlO1w_top_silkscreen"><path d="M 456.4 544 481.4 562.7 456.4 581.5 456.4 544 M 456.4 549.8 464.1 549.8 M 456.4 557.5 474.4 557.5 M 478 565.3 456.4 565.3 M 456.4 573 467.7 573 M 457.4 580.7 456.4 580.7 M 481.4 581.5 481.4 562.7 481.4 544 M 481.4 562.7 518.9 562.7 M 481.4 562.7 418.9 562.7 M 165.5 591.2 165.7 596.2 166.3 601.2 167.3 606.1 168.7 610.9 170.4 615.6 172.5 620.1 175 624.5 177.8 628.6 181 632.5 184.4 636.2 188.1 639.6 192.1 642.6 196.3 645.3 200.7 647.7 205.3 649.8 210 651.4 214.8 652.7 219.8 653.6 224.7 654.1 229.8 654.2 234.8 653.9 239.7 653.2 244.6 652.1 249.4 650.6 254 648.8 258.5 646.6 262.8 644 266.9 641.1 270.8 637.9 274.4 634.4 277.6 630.6 280.6 626.6 283.3 622.3 285.6 617.9 287.5 613.3 289.1 608.5 290.3 603.6 291.1 598.7 291.5 593.7 291.5 588.7 291.1 583.7 290.3 578.8 289.1 573.9 287.5 569.1 285.6 564.5 283.3 560.1 280.6 555.8 277.6 551.8 274.4 548 270.8 544.5 266.9 541.3 262.8 538.4 258.5 535.8 254 533.6 249.4 531.8 244.6 530.3 239.7 529.2 234.8 528.5 229.8 528.2 224.7 528.3 219.8 528.8 214.8 529.7 210 531 205.3 532.6 200.7 534.7 196.3 537.1 192.1 539.8 188.1 542.8 184.4 546.2 181 549.9 177.8 553.8 175 557.9 172.5 562.3 170.4 566.8 168.7 571.5 167.3 576.3 166.3 581.2 165.7 586.2 165.5 591.2 M 743.9 562.7 781.4 562.7 787.6 581.5 800.1 544 812.6 581.5 825.1 544 837.6 581.5 850.1 544 856.4 562.7 893.9 562.7 M 996.2 591.2 996.4 596.2 997 601.2 998 606.1 999.4 610.9 1001.1 615.6 1003.2 620.1 1005.7 624.5 1008.5 628.6 1011.7 632.5 1015.1 636.2 1018.8 639.6 1022.8 642.6 1027 645.3 1031.4 647.7 1036 649.8 1040.7 651.4 1045.5 652.7 1050.5 653.6 1055.4 654.1 1060.5 654.2 1065.5 653.9 1070.4 653.2 1075.3 652.1 1080.1 650.6 1084.7 648.8 1089.2 646.6 1093.5 644 1097.6 641.1 1101.5 637.9 1105.1 634.4 1108.3 630.6 1111.3 626.6 1114 622.3 1116.3 617.9 1118.2 613.3 1119.8 608.5 1121 603.6 1121.8 598.7 1122.2 593.7 1122.2 588.7 1121.8 583.7 1121 578.8 1119.8 573.9 1118.2 569.1 1116.3 564.5 1114 560.1 1111.3 555.8 1108.3 551.8 1105.1 548 1101.5 544.5 1097.6 541.3 1093.5 538.4 1089.2 535.8 1084.7 533.6 1080.1 531.8 1075.3 530.3 1070.4 529.2 1065.5 528.5 1060.5 528.2 1055.4 528.3 1050.5 528.8 1045.5 529.7 1040.7 531 1036 532.6 1031.4 534.7 1027 537.1 1022.8 539.8 1018.8 542.8 1015.1 546.2 1011.7 549.9 1008.5 553.8 1005.7 557.9 1003.2 562.3 1001.1 566.8 999.4 571.5 998 576.3 997 581.2 996.4 586.2 996.2 591.2" fill="none" stroke-width="7.9"/><path d="M 401.8 279.3 396.2 279.3 M 413.2 279.3 435.9 279.3 M 435.9 273.7 435.9 285 M 435.9 298.2 413.2 298.2 413.2 315.2 418.8 320.9 435.9 320.9 M 430.2 335 413.2 335 M 430.2 335 435.9 340.7 435.9 357.7 M 441.5 357.7 413.2 357.7 M 413.2 371.9 401.8 383.2 435.9 383.2 M 435.9 371.9 435.9 394.6 M 430.2 408.7 435.9 414.4 435.9 425.7 430.2 431.4 424.5 431.4 418.8 425.7 418.8 420 M 418.8 425.7 413.2 431.4 407.5 431.4 401.8 425.7 401.8 414.4 407.5 408.7 M 413.2 445.5 401.8 456.9 413.2 468.2 435.9 468.2 M 418.8 468.2 418.8 445.5 M 413.2 445.5 435.9 445.5 M 485 476.4 490.7 470.7 502 470.7 507.7 476.4 507.7 504.8 M 521.9 493.4 533.2 504.8 533.2 470.7 M 521.9 470.7 544.5 470.7 M 485 476.4 485 504.8 M 534.7 545.7 534.7 579.8 M 540.4 562.8 557.4 545.7 M 534.7 557.1 557.4 579.8 M 576.3 608.2 599 608.2 M 587.7 608.2 587.7 642.3 576.3 630.9 M 613.2 625.3 613.2 613.9 618.8 608.2 630.2 608.2 635.8 613.9 635.8 619.6 630.2 625.3 613.2 625.3 624.5 636.6 635.8 642.3 M 650 636.6 655.7 642.3 667 642.3 672.7 636.6 650 613.9 655.7 608.2 667 608.2 672.7 613.9 672.7 636.6 M 686.8 636.6 686.8 630.9 692.5 625.3 703.8 625.3 709.5 619.6 709.5 613.9 703.8 608.2 692.5 608.2 686.8 613.9 686.8 619.6 692.5 625.3 M 703.8 625.3 709.5 630.9 709.5 636.6 703.8 642.3 692.5 642.3 686.8 636.6 M 650 636.6 650 613.9 M 652.5 574.7 658.2 569 663.9 574.7 669.5 569 669.5 552 M 658.2 552 658.2 569 M 652.5 574.7 646.9 574.7 646.9 552 M 632.7 552 632.7 569 627 574.7 621.4 569 621.4 552 M 610 552 610 574.7 615.7 574.7 621.4 569 M 710 499.1 710 476.4 715.7 470.7 727 470.7 732.7 476.4 M 746.9 470.7 769.5 470.7 M 758.2 470.7 758.2 504.8 746.9 493.4 M 732.7 499.1 727 504.8 715.7 504.8 710 499.1 M 809.4 517.3 832 517.3 M 820.7 517.3 820.7 483.2 M 820.7 467.3 820.7 433.2 M 820.7 417.3 820.7 383.2 M 820.7 367.3 820.7 333.2 M 820.7 317.3 820.7 283.2 M 820.7 267.3 820.7 233.2 M 846.2 238.9 851.9 233.2 863.2 233.2 868.9 238.9 868.9 244.6 863.2 250.3 846.2 250.3 846.2 238.9 M 846.2 250.3 857.5 261.6 868.9 267.3 M 863.2 283.2 851.9 283.2 846.2 288.9 M 846.2 300.3 857.5 305.9 863.2 305.9 868.9 300.3 868.9 288.9 863.2 283.2 M 846.2 300.3 846.2 317.3 868.9 317.3 M 863.2 333.2 863.2 367.3 846.2 350.3 868.9 350.3 M 883 350.3 905.7 350.3 M 919.9 355.9 925.5 350.3 936.9 350.3 942.5 344.6 942.5 338.9 936.9 333.2 925.5 333.2 919.9 338.9 M 919.9 355.9 919.9 361.6 925.5 367.3 936.9 367.3 942.5 361.6 M 956.7 361.6 956.7 338.9 962.4 333.2 973.7 333.2 979.4 338.9 M 993.5 333.2 993.5 367.3 M 979.4 361.6 973.7 367.3 962.4 367.3 956.7 361.6 M 962.4 383.2 956.7 388.9 M 962.4 383.2 973.7 383.2 979.4 388.9 979.4 394.6 973.7 400.3 968 400.3 M 973.7 400.3 979.4 405.9 979.4 411.6 973.7 417.3 962.4 417.3 956.7 411.6 M 942.5 400.3 919.9 400.3 M 905.7 400.3 883 400.3 M 868.9 405.9 863.2 400.3 868.9 394.6 868.9 388.9 863.2 383.2 851.9 383.2 846.2 388.9 M 857.5 400.3 863.2 400.3 M 868.9 405.9 868.9 411.6 863.2 417.3 851.9 417.3 846.2 411.6 M 832 417.3 809.4 417.3 M 846.2 433.2 868.9 455.9 868.9 461.6 863.2 467.3 851.9 467.3 846.2 461.6 M 832 467.3 809.4 467.3 M 846.2 483.2 868.9 483.2 M 857.5 483.2 857.5 517.3 846.2 505.9 M 883 500.3 905.7 500.3 M 919.9 511.6 919.9 488.9 925.5 483.2 936.9 483.2 942.5 488.9 942.5 500.3 931.2 500.3 M 942.5 511.6 936.9 517.3 925.5 517.3 919.9 511.6 M 956.7 517.3 956.7 483.2 M 956.7 467.3 956.7 433.2 979.4 433.2 M 993.5 438.9 999.2 433.2 1010.5 433.2 1016.2 438.9 1016.2 444.6 1010.5 450.3 999.2 450.3 993.5 455.9 993.5 461.6 999.2 467.3 1010.5 467.3 1016.2 461.6 M 1030.3 467.3 1030.3 433.2 1053 433.2 M 1047.4 417.3 1036 417.3 1030.3 411.6 M 1041.7 400.3 1047.4 400.3 1053 394.6 1053 388.9 1047.4 383.2 1036 383.2 1030.3 388.9 M 1047.4 400.3 1053 405.9 1053 411.6 1047.4 417.3 M 1041.7 450.3 1030.3 450.3 M 1030.3 467.3 1053 467.3 M 1067.2 467.3 1089.9 467.3 M 1078.5 467.3 1078.5 433.2 M 1016.2 417.3 1016.2 394.6 1004.9 383.2 993.5 394.6 993.5 417.3 M 968 450.3 956.7 450.3 M 942.5 450.3 942.5 461.6 936.9 467.3 919.9 467.3 919.9 433.2 M 919.9 444.6 936.9 444.6 942.5 450.3 M 931.2 444.6 942.5 433.2 M 931.2 411.6 931.2 388.9 M 905.7 450.3 883 450.3 M 868.9 433.2 846.2 433.2 M 832 367.3 809.4 367.3 M 809.4 317.3 832 317.3 M 832 267.3 809.4 267.3 M 883 250.3 905.7 250.3 M 919.9 267.3 919.9 233.2 M 931.2 255.9 942.5 267.3 942.5 233.2 M 956.7 238.9 962.4 233.2 973.7 233.2 979.4 238.9 979.4 261.6 973.7 267.3 962.4 267.3 956.7 261.6 956.7 238.9 M 931.2 255.9 919.9 267.3 M 919.9 283.2 919.9 317.3 931.2 305.9 942.5 317.3 942.5 283.2 M 956.7 283.2 968 283.2 M 962.4 283.2 962.4 317.3 M 968 317.3 956.7 317.3 M 981.2 311.6 981.2 305.9 986.9 300.3 998.3 300.3 1003.9 294.6 1003.9 288.9 998.3 283.2 986.9 283.2 981.2 288.9 M 981.2 311.6 986.9 317.3 998.3 317.3 1003.9 311.6 M 1016.2 333.2 999.2 350.3 M 993.5 344.6 1016.2 367.3 M 1023.7 317.3 1018.1 311.6 1018.1 288.9 1023.7 283.2 1035.1 283.2 1040.8 288.9 1040.8 311.6 1035.1 317.3 1023.7 317.3 M 1030.3 267.3 1041.7 267.3 M 1036 267.3 1036 233.2 M 1030.3 233.2 1041.7 233.2 M 1016.2 238.9 1010.5 233.2 999.2 233.2 993.5 238.9 M 999.2 250.3 1010.5 250.3 1016.2 244.6 1016.2 238.9 M 999.2 250.3 993.5 255.9 993.5 261.6 999.2 267.3 1010.5 267.3 1016.2 261.6 M 905.7 300.3 883 300.3 M 956.7 467.3 979.4 467.3 M 979.4 483.2 979.4 517.3 M 993.5 517.3 1010.5 517.3 1016.2 511.6 1016.2 488.9 1010.5 483.2 993.5 483.2 993.5 517.3 M 956.7 517.3 979.4 483.2 M 906.4 608.2 883.7 608.2 M 895 608.2 895 642.3 883.7 630.9 M 869.5 625.3 863.9 619.6 846.9 619.6 M 858.2 619.6 869.5 608.2 M 869.5 625.3 869.5 636.6 863.9 642.3 846.9 642.3 846.9 608.2 M 846.9 683.2 846.9 717.3 863.9 717.3 869.5 711.6 869.5 700.3 863.9 694.6 846.9 694.6 M 858.2 694.6 869.5 683.2 M 883.7 683.2 906.4 705.9 906.4 711.6 900.7 717.3 889.4 717.3 883.7 711.6 M 883.7 683.2 906.4 683.2 M 900.7 758.2 889.4 758.2 883.7 763.9 M 869.5 758.2 858.2 769.6 M 863.9 769.6 846.9 769.6 M 846.9 758.2 846.9 792.3 863.9 792.3 869.5 786.6 869.5 775.3 863.9 769.6 M 883.7 786.6 889.4 792.3 900.7 792.3 906.4 786.6 906.4 780.9 900.7 775.3 906.4 769.6 906.4 763.9 900.7 758.2 M 900.7 775.3 895 775.3 M 900.7 833.2 900.7 867.3 883.7 850.3 906.4 850.3 M 869.5 850.3 863.9 844.6 846.9 844.6 M 858.2 844.6 869.5 833.2 M 869.5 850.3 869.5 861.6 863.9 867.3 846.9 867.3 846.9 833.2 M 846.9 908.2 846.9 942.3 863.9 942.3 869.5 936.6 869.5 925.3 863.9 919.6 846.9 919.6 M 858.2 919.6 869.5 908.2 M 883.7 913.9 889.4 908.2 900.7 908.2 906.4 913.9 906.4 925.3 900.7 930.9 895 930.9 883.7 925.3 883.7 942.3 906.4 942.3 M 934.4 949.1 940 954.8 951.4 954.8 957 949.1 957 943.4 934.4 920.7 957 920.7 M 971.2 926.4 993.9 949.1 993.9 926.4 988.2 920.7 976.9 920.7 971.2 926.4 971.2 949.1 976.9 954.8 988.2 954.8 993.9 949.1 M 1008 949.1 1013.7 954.8 1025 954.8 1030.7 949.1 1030.7 943.4 1008 920.7 1030.7 920.7 M 1044.9 937.8 1067.5 937.8 M 1061.9 954.8 1061.9 920.7 M 1044.9 937.8 1061.9 954.8 M 1081.7 943.4 1093 920.7 1104.4 943.4 M 1118.5 937.8 1118.5 926.4 1124.2 920.7 1135.5 920.7 M 1141.2 932.1 1118.5 932.1 M 1118.5 937.8 1124.2 943.4 1135.5 943.4 1141.2 937.8 1141.2 932.1 M 1155.3 932.1 1166.7 943.4 1172.4 943.4 M 1186 926.4 1191.7 926.4 1191.7 920.7 1186 920.7 1186 926.4 M 1155.3 920.7 1155.3 943.4 M 919.5 1176.4 919.5 1182.1 913.9 1187.8 896.9 1187.8 896.9 1176.4 902.5 1170.7 913.9 1170.7 919.5 1176.4 M 908.2 1199.1 896.9 1187.8 M 908.2 1199.1 919.5 1204.8 M 882.7 1204.8 860 1204.8 M 871.4 1204.8 871.4 1170.7 M 819.5 1176.4 813.9 1170.7 802.5 1170.7 796.9 1176.4 M 796.9 1187.8 808.2 1193.4 813.9 1193.4 819.5 1187.8 819.5 1176.4 M 796.9 1187.8 796.9 1204.8 819.5 1204.8 M 782.7 1204.8 760 1204.8 M 771.4 1204.8 771.4 1170.7 M 719.5 1187.8 696.9 1187.8 713.9 1204.8 713.9 1170.7 M 671.4 1170.7 671.4 1204.8 M 682.7 1204.8 660 1204.8 M 619.5 1199.1 619.5 1193.4 613.9 1187.8 619.5 1182.1 619.5 1176.4 613.9 1170.7 602.5 1170.7 596.9 1176.4 M 608.2 1187.8 613.9 1187.8 M 619.5 1199.1 613.9 1204.8 602.5 1204.8 596.9 1199.1 M 582.7 1204.8 560 1204.8 M 571.4 1204.8 571.4 1170.7 M 519.5 1170.7 496.9 1170.7 519.5 1193.4 519.5 1199.1 513.9 1204.8 502.5 1204.8 496.9 1199.1 M 482.7 1204.8 460 1204.8 M 471.4 1204.8 471.4 1170.7 M 419.5 1170.7 396.9 1170.7 M 408.2 1170.7 408.2 1204.8 396.9 1193.4 M 382.7 1204.8 360 1204.8 M 371.4 1204.8 371.4 1170.7 M 373.2 942.3 390.2 942.3 395.9 936.6 395.9 913.9 390.2 908.2 373.2 908.2 373.2 942.3 M 410 942.3 410 925.3 421.4 930.9 427 930.9 432.7 925.3 432.7 913.9 427 908.2 415.7 908.2 410 913.9 M 410 942.3 432.7 942.3 M 427 867.3 410 850.3 432.7 850.3 M 427 867.3 427 833.2 M 395.9 838.9 395.9 861.6 390.2 867.3 373.2 867.3 373.2 833.2 390.2 833.2 395.9 838.9 M 390.2 792.3 373.2 792.3 373.2 758.2 390.2 758.2 395.9 763.9 395.9 786.6 390.2 792.3 M 410 786.6 415.7 792.3 427 792.3 432.7 786.6 432.7 780.9 427 775.3 432.7 769.6 432.7 763.9 427 758.2 415.7 758.2 410 763.9 M 421.4 775.3 427 775.3 M 427 717.3 415.7 717.3 410 711.6 M 395.9 711.6 395.9 688.9 390.2 683.2 373.2 683.2 373.2 717.3 390.2 717.3 395.9 711.6 M 410 683.2 432.7 705.9 432.7 711.6 427 717.3 M 432.7 683.2 410 683.2 M 421.4 642.3 421.4 608.2 M 432.7 608.2 410 608.2 M 395.9 613.9 395.9 636.6 390.2 642.3 373.2 642.3 373.2 608.2 390.2 608.2 395.9 613.9 M 410 630.9 421.4 642.3 M 389.8 579.8 401.1 568.4 401.1 545.7 M 401.1 562.8 378.4 562.8 M 378.4 568.4 389.8 579.8 M 378.4 568.4 378.4 545.7 M 441.5 357.7 447.2 352.1 447.2 346.4 M 413.2 279.3 413.2 273.7 M 413.2 260.4 413.2 249.1 M 407.5 254.8 430.2 254.8 435.9 260.4 M 434.8 229.8 429.1 224.1 429.1 218.4 434.8 212.8 446.1 212.8 451.8 207.1 451.8 201.4 446.1 195.7 434.8 195.7 429.1 201.4 M 434.8 229.8 446.1 229.8 451.8 224.1 M 465.9 229.8 465.9 195.7 477.3 207.1 488.6 195.7 488.6 229.8 M 502.8 218.4 514.1 229.8 514.1 195.7 M 502.8 195.7 525.5 195.7 M 576.3 683.2 599 683.2 M 587.7 683.2 587.7 717.3 576.3 705.9 M 613.2 700.3 613.2 688.9 618.8 683.2 630.2 683.2 635.8 688.9 635.8 694.6 630.2 700.3 613.2 700.3 624.5 711.6 635.8 717.3 M 650 711.6 655.7 717.3 667 717.3 672.7 711.6 650 688.9 655.7 683.2 667 683.2 672.7 688.9 672.7 711.6 M 686.8 711.6 692.5 717.3 703.8 717.3 709.5 711.6 709.5 705.9 703.8 700.3 692.5 700.3 686.8 705.9 686.8 711.6 M 692.5 700.3 686.8 694.6 686.8 688.9 692.5 683.2 703.8 683.2 709.5 688.9 709.5 694.6 703.8 700.3 M 650 688.9 650 711.6 M 655.7 758.2 650 763.9 672.7 786.6 672.7 763.9 667 758.2 655.7 758.2 M 650 763.9 650 786.6 655.7 792.3 667 792.3 672.7 786.6 M 686.8 786.6 692.5 792.3 703.8 792.3 709.5 786.6 709.5 780.9 703.8 775.3 692.5 775.3 686.8 780.9 686.8 786.6 M 692.5 775.3 686.8 769.6 686.8 763.9 692.5 758.2 703.8 758.2 709.5 763.9 709.5 769.6 703.8 775.3 M 703.8 833.2 692.5 833.2 686.8 838.9 686.8 844.6 692.5 850.3 703.8 850.3 709.5 844.6 709.5 838.9 703.8 833.2 M 703.8 850.3 709.5 855.9 709.5 861.6 703.8 867.3 692.5 867.3 686.8 861.6 686.8 855.9 692.5 850.3 M 672.7 861.6 672.7 838.9 667 833.2 655.7 833.2 650 838.9 672.7 861.6 667 867.3 655.7 867.3 650 861.6 650 838.9 M 635.8 838.9 635.8 844.6 630.2 850.3 613.2 850.3 613.2 838.9 618.8 833.2 630.2 833.2 635.8 838.9 M 624.5 861.6 613.2 850.3 M 624.5 861.6 635.8 867.3 M 630.2 908.2 635.8 913.9 635.8 919.6 630.2 925.3 613.2 925.3 613.2 913.9 618.8 908.2 630.2 908.2 M 613.2 925.3 624.5 936.6 635.8 942.3 M 650 936.6 655.7 942.3 667 942.3 672.7 936.6 650 913.9 655.7 908.2 667 908.2 672.7 913.9 672.7 936.6 M 686.8 936.6 686.8 930.9 692.5 925.3 703.8 925.3 709.5 919.6 709.5 913.9 703.8 908.2 692.5 908.2 686.8 913.9 686.8 919.6 692.5 925.3 M 703.8 925.3 709.5 930.9 709.5 936.6 703.8 942.3 692.5 942.3 686.8 936.6 M 650 936.6 650 913.9 M 599 908.2 576.3 908.2 M 587.7 908.2 587.7 942.3 576.3 930.9 M 587.7 867.3 587.7 833.2 M 599 833.2 576.3 833.2 M 576.3 855.9 587.7 867.3 M 587.7 792.3 587.7 758.2 M 599 758.2 576.3 758.2 M 576.3 780.9 587.7 792.3 M 613.2 775.3 630.2 775.3 635.8 769.6 635.8 763.9 630.2 758.2 618.8 758.2 613.2 763.9 613.2 775.3 624.5 786.6 635.8 792.3" fill="none" stroke-width="6"/><path d="M 553.6 798.9 478.8 798.9 M 478.8 826.6 553.6 826.6 M 553.6 873.9 478.8 873.9 M 478.8 901.6 553.6 901.6 M 553.6 948.9 478.8 948.9 M 451.9 991.8 468.4 1008.3 468.4 1027.1 461.4 1034.1 468.4 1041.2 468.4 1060 451.9 1076.5 422.2 1076.5 405.7 1060 405.7 1041.2 412.7 1034.1 405.7 1027.1 405.7 1008.3 422.2 991.8 451.9 991.8 M 444.1 1010.7 430 1010.7 424.6 1016.1 424.6 1019.2 430 1024.7 444.1 1024.7 449.5 1019.2 449.5 1016.1 444.1 1010.7 M 444.1 1043.6 430 1043.6 424.6 1049 424.6 1052.1 430 1057.6 444.1 1057.6 449.5 1052.1 449.5 1049 444.1 1043.6 M 395.9 1060 395.9 1008.3 385 997.3 379.4 991.8 349.7 991.8 333.2 1008.3 333.2 1060 349.7 1076.5 379.4 1076.5 395.3 1060.6 395.9 1060 M 373.1 1056.1 352.1 1035 352.1 1052.1 357.5 1057.6 371.6 1057.6 373.1 1056.1 M 377 1033.2 377 1016.1 371.6 1010.7 357.5 1010.7 356 1012.2 377 1033.2 M 323.4 1027.1 323.4 1008.3 317.9 1002.7 306.9 991.8 277.2 991.8 271.6 997.3 260.7 1008.3 260.7 1038 283.8 1061.2 284.3 1062.8 M 286.4 1063.8 288.1 1065.5 289.8 1065.5 313.2 1077.2 320.7 1074.8 324.2 1067.7 321.7 1060.3 297.6 1048.3 292.9 1043.6 306.9 1043.6 312.5 1038 323.4 1027.1 M 304.5 1019.2 299.1 1024.7 279.6 1024.7 279.6 1016.1 285 1010.7 299.1 1010.7 304.5 1016.1 304.5 1019.2 M 250.9 1005.1 245.4 1010.7 229 1010.7 229 1070.9 223.5 1076.4 223.4 1076.5 215.6 1076.5 188.1 1049 188.1 1041.2 193.7 1035.6 201.5 1035.6 210.1 1044.2 210.1 1010.7 193.7 1010.7 188.1 1005.1 188.1 997.3 193.7 991.8 245.4 991.8 250.9 997.3 250.9 1005.1 M 364.4 1125.2 364.6 1128.6 365.2 1132 366.2 1135.3 367.5 1138.4 369.3 1141.4 371.3 1144.2 373.7 1146.7 376.3 1148.9 379.1 1150.7 382.2 1152.3 385.4 1153.5 388.8 1154.3 392.2 1154.7 395.6 1154.7 399 1154.3 402.4 1153.5 405.6 1152.3 408.6 1150.7 411.5 1148.9 414.1 1146.7 416.5 1144.2 418.5 1141.4 420.3 1138.4 421.6 1135.3 422.6 1132 423.2 1128.6 423.4 1125.2 423.2 1121.8 422.6 1118.4 421.6 1115.1 420.3 1112 418.5 1109 416.5 1106.2 414.1 1103.7 411.5 1101.5 408.7 1099.7 405.6 1098.1 402.4 1096.9 399 1096.1 395.6 1095.7 392.2 1095.7 388.8 1096.1 385.4 1096.9 382.2 1098.1 379.1 1099.7 376.3 1101.5 373.7 1103.7 371.3 1106.2 369.3 1109 367.5 1112 366.2 1115.1 365.2 1118.4 364.6 1121.8 364.4 1125.2 M 464.4 1125.2 464.6 1128.6 465.2 1132 466.2 1135.3 467.5 1138.4 469.3 1141.4 471.3 1144.2 473.7 1146.7 476.3 1148.9 479.1 1150.7 482.2 1152.3 485.4 1153.5 488.8 1154.3 492.2 1154.7 495.6 1154.7 499 1154.3 502.4 1153.5 505.6 1152.3 508.6 1150.7 511.5 1148.9 514.1 1146.7 516.5 1144.2 518.5 1141.4 520.3 1138.4 521.6 1135.3 522.6 1132 523.2 1128.6 523.4 1125.2 523.2 1121.8 522.6 1118.4 521.6 1115.1 520.3 1112 518.5 1109 516.5 1106.2 514.1 1103.7 511.5 1101.5 508.7 1099.7 505.6 1098.1 502.4 1096.9 499 1096.1 495.6 1095.7 492.2 1095.7 488.8 1096.1 485.4 1096.9 482.2 1098.1 479.1 1099.7 476.3 1101.5 473.7 1103.7 471.3 1106.2 469.3 1109 467.5 1112 466.2 1115.1 465.2 1118.4 464.6 1121.8 464.4 1125.2 M 529.5 1076.5 513.1 1060.1 513 1060 513 1008.3 523.9 997.3 529.5 991.8 559.2 991.8 575.7 1008.3 575.7 1016.1 570.2 1021.6 562.4 1021.6 551.4 1010.7 537.3 1010.7 531.9 1016.1 531.9 1052.1 537.3 1057.6 551.4 1057.6 562.4 1046.6 570.2 1046.6 575.7 1052.1 575.7 1060 559.2 1076.5 529.5 1076.5 M 585.5 1070.9 585.5 997.3 591 991.8 598.8 991.8 604.4 997.3 604.4 1030.2 609.8 1035.6 623.9 1035.6 629.3 1030.2 629.3 997.3 634.9 991.8 642.7 991.8 648.2 997.3 648.2 1038 642.7 1043.6 631.7 1054.5 604.4 1054.5 604.4 1070.9 598.8 1076.5 591 1076.5 585.5 1070.9 M 564.4 1125.2 564.6 1128.6 565.2 1132 566.2 1135.3 567.5 1138.4 569.3 1141.4 571.3 1144.2 573.7 1146.7 576.3 1148.9 579.1 1150.7 582.2 1152.3 585.4 1153.5 588.8 1154.3 592.2 1154.7 595.6 1154.7 599 1154.3 602.4 1153.5 605.6 1152.3 608.6 1150.7 611.5 1148.9 614.1 1146.7 616.5 1144.2 618.5 1141.4 620.3 1138.4 621.6 1135.3 622.6 1132 623.2 1128.6 623.4 1125.2 623.2 1121.8 622.6 1118.4 621.6 1115.1 620.3 1112 618.5 1109 616.5 1106.2 614.1 1103.7 611.5 1101.5 608.7 1099.7 605.6 1098.1 602.4 1096.9 599 1096.1 595.6 1095.7 592.2 1095.7 588.8 1096.1 585.4 1096.9 582.2 1098.1 579.1 1099.7 576.3 1101.5 573.7 1103.7 571.3 1106.2 569.3 1109 567.5 1112 566.2 1115.1 565.2 1118.4 564.6 1121.8 564.4 1125.2 M 668.9 1049 668.9 1041.2 674.5 1035.6 696.4 1035.6 699.4 1032.6 674.5 1032.6 668.9 1027.1 658 1016.1 658 1008.3 674.5 991.8 715.2 991.8 720.7 997.3 720.7 1038 715.2 1043.6 704.2 1054.5 674.5 1054.5 668.9 1049 M 682.3 1013.7 701.8 1013.7 701.8 1010.7 682.3 1010.7 680.8 1012.2 682.3 1013.7 M 730.5 1005.1 730.5 997.3 736 991.8 765.8 991.8 771.3 997.3 771.3 1005.1 765.8 1010.7 760.3 1010.7 760.3 1070.9 754.8 1076.5 736 1076.5 730.5 1070.9 730.5 1063.1 736 1057.6 741.4 1057.6 741.4 1010.7 736 1010.7 730.5 1005.1 M 778.8 1005.1 778.8 997.3 784.3 991.8 814.1 991.8 819.6 997.3 819.6 1005.1 814.1 1010.7 808.7 1010.7 808.7 1070.9 803.1 1076.5 784.3 1076.5 778.8 1070.9 778.8 1063.1 784.3 1057.6 789.8 1057.6 789.8 1010.7 784.3 1010.7 778.8 1005.1 M 827.1 1008.3 843.6 991.8 873.4 991.8 878.9 997.3 878.9 1005.1 873.4 1010.7 851.5 1010.7 848.4 1013.7 884.4 1013.7 889.9 1019.2 889.9 1038 884.4 1043.6 873.4 1054.5 843.6 1054.5 838.1 1049 827.1 1038 827.1 1008.3 M 848.4 1032.6 851.5 1035.6 865.6 1035.6 868.6 1032.6 848.4 1032.6 M 899.6 1049 899.6 997.3 905.2 991.8 913 991.8 918.5 997.3 918.5 1035.6 938.1 1035.6 943.5 1030.2 943.5 997.3 949 991.8 956.9 991.8 962.4 997.3 962.4 1038 956.9 1043.6 945.9 1054.5 905.2 1054.5 899.6 1049 M 864.4 1125.2 864.6 1128.6 865.2 1132 866.2 1135.3 867.5 1138.4 869.3 1141.4 871.3 1144.2 873.7 1146.7 876.3 1148.9 879.1 1150.7 882.2 1152.3 885.4 1153.5 888.8 1154.3 892.2 1154.7 895.6 1154.7 899 1154.3 902.4 1153.5 905.6 1152.3 908.6 1150.7 911.5 1148.9 914.1 1146.7 916.5 1144.2 918.5 1141.4 920.3 1138.4 921.6 1135.3 922.6 1132 923.2 1128.6 923.4 1125.2 923.2 1121.8 922.6 1118.4 921.6 1115.1 920.3 1112 918.5 1109 916.5 1106.2 914.1 1103.7 911.5 1101.5 908.7 1099.7 905.6 1098.1 902.4 1096.9 899 1096.1 895.6 1095.7 892.2 1095.7 888.8 1096.1 885.4 1096.9 882.2 1098.1 879.1 1099.7 876.3 1101.5 873.7 1103.7 871.3 1106.2 869.3 1109 867.5 1112 866.2 1115.1 865.2 1118.4 864.6 1121.8 864.4 1125.2 M 764.4 1125.2 764.6 1128.6 765.2 1132 766.2 1135.3 767.5 1138.4 769.3 1141.4 771.3 1144.2 773.7 1146.7 776.3 1148.9 779.1 1150.7 782.2 1152.3 785.4 1153.5 788.8 1154.3 792.2 1154.7 795.6 1154.7 799 1154.3 802.4 1153.5 805.6 1152.3 808.6 1150.7 811.5 1148.9 814.1 1146.7 816.5 1144.2 818.5 1141.4 820.3 1138.4 821.6 1135.3 822.6 1132 823.2 1128.6 823.4 1125.2 823.2 1121.8 822.6 1118.4 821.6 1115.1 820.3 1112 818.5 1109 816.5 1106.2 814.1 1103.7 811.5 1101.5 808.7 1099.7 805.6 1098.1 802.4 1096.9 799 1096.1 795.6 1095.7 792.2 1095.7 788.8 1096.1 785.4 1096.9 782.2 1098.1 779.1 1099.7 776.3 1101.5 773.7 1103.7 771.3 1106.2 769.3 1109 767.5 1112 766.2 1115.1 765.2 1118.4 764.6 1121.8 764.4 1125.2 M 664.4 1125.2 664.6 1128.6 665.2 1132 666.2 1135.3 667.5 1138.4 669.3 1141.4 671.3 1144.2 673.7 1146.7 676.3 1148.9 679.1 1150.7 682.2 1152.3 685.4 1153.5 688.8 1154.3 692.2 1154.7 695.6 1154.7 699 1154.3 702.4 1153.5 705.6 1152.3 708.6 1150.7 711.5 1148.9 714.1 1146.7 716.5 1144.2 718.5 1141.4 720.3 1138.4 721.6 1135.3 722.6 1132 723.2 1128.6 723.4 1125.2 723.2 1121.8 722.6 1118.4 721.6 1115.1 720.3 1112 718.5 1109 716.5 1106.2 714.1 1103.7 711.5 1101.5 708.7 1099.7 705.6 1098.1 702.4 1096.9 699 1096.1 695.6 1095.7 692.2 1095.7 688.8 1096.1 685.4 1096.9 682.2 1098.1 679.1 1099.7 676.3 1101.5 673.7 1103.7 671.3 1106.2 669.3 1109 667.5 1112 666.2 1115.1 665.2 1118.4 664.6 1121.8 664.4 1125.2 M 753.8 948.9 808.9 948.9 M 808.9 901.6 753.8 901.6 M 753.8 873.9 808.9 873.9 M 808.9 826.6 753.8 826.6 M 753.8 798.9 808.9 798.9 M 808.9 751.6 753.8 751.6 M 753.8 723.9 808.9 723.9 M 808.9 676.6 753.8 676.6 M 753.8 648.9 808.9 648.9 M 808.9 601.6 753.8 601.6 M 671.4 511.4 616.3 511.4 M 616.3 464.1 671.4 464.1 M 553.6 601.6 478.8 601.6 M 478.8 648.9 553.6 648.9 M 553.6 676.6 478.8 676.6 M 478.8 723.9 553.6 723.9 M 553.6 751.6 478.8 751.6 M 972.1 1008.3 983.1 997.3 988.6 991.8 1013.6 991.8 1010.6 988.7 999.6 988.7 994.1 983.2 994.1 975.4 999.6 969.8 1018.4 969.8 1029.4 980.8 1034.9 986.3 1034.9 1049 1029.4 1054.5 988.6 1054.5 977.7 1043.6 972.1 1038 972.1 1008.3 M 991 1016.1 996.5 1010.7 1016 1010.7 1016 1035.6 996.5 1035.6 991 1030.2 991 1016.1 M 1044.6 1008.3 1050.2 1002.7 1061.1 991.8 1090.9 991.8 1096.4 997.3 1096.4 1005.1 1090.9 1010.7 1069 1010.7 1065.9 1013.7 1101.9 1013.7 1107.4 1019.2 1107.4 1038 1101.9 1043.6 1090.9 1054.5 1061.1 1054.5 1044.6 1038 1044.6 1008.3 M 1065.9 1032.6 1069 1035.6 1083.1 1035.6 1086.1 1032.6 1065.9 1032.6" fill="none" stroke-width="5.9"/><path d="M 464.8 433.5 456.4 433.5 M 456.4 437.7 481.4 425.2 456.4 412.7 456.4 437.7 M 456.4 423.7 478.3 423.7 M 458.6 413.8 456.4 413.8 M 579.9 176.4 648.8 176.4 M 698 176.4 707.8 176.4 M 775.7 140 775.7 110.5 M 757 74.1 702.9 74.1 647.8 74.1 530.7 74.1 M 512 110.5 512 140" fill="none" stroke-width="10"/><path d="M 593.9 255.7 693.9 255.7 M 718.7 296.3 718.7 304.2 M 718.7 346.3 718.7 354.2 M 718.7 396.3 718.7 404.2 M 693.9 444.7 656.4 444.7 631.4 444.7 631.4 440.8 M 631.4 444.7 593.9 444.7 M 569.1 404.2 569.1 396.3 M 569.1 354.2 569.1 346.3 M 569.1 304.2 569.1 296.3 M 631.4 440.8 631.6 438.7 632.1 436.7 632.9 434.9 634 433.1 635.4 431.6 637.1 430.3 638.9 429.4 640.8 428.7 642.9 428.3 644.9 428.3 647 428.7 648.9 429.4 650.7 430.3 652.4 431.6 653.8 433.1 654.9 434.9 655.7 436.7 656.2 438.7 656.4 440.8 656.4 444.7" fill="none" stroke-width="8"/></g><g id="ngNyrE3Y2L7nU-LGlO1w_top_drill1"><use xlink:href="#NEvVUUhPX2DVju7uPHSM_pad-1" x="19390" y="42520"/><use xlink:href="#NEvVUUhPX2DVju7uPHSM_pad-1" x="19390" y="48770"/><use xlink:href="#NEvVUUhPX2DVju7uPHSM_pad-1" x="93900" y="45020"/><use xlink:href="#NEvVUUhPX2DVju7uPHSM_pad-1" x="56890" y="48770"/><use xlink:href="#NEvVUUhPX2DVju7uPHSM_pad-1" x="64390" y="35020"/><use xlink:href="#NEvVUUhPX2DVju7uPHSM_pad-1" x="64390" y="65020"/><use xlink:href="#NEvVUUhPX2DVju7uPHSM_pad-1" x="94390" y="37520"/><use xlink:href="#NEvVUUhPX2DVju7uPHSM_pad-1" x="98140" y="32520"/><use xlink:href="#NEvVUUhPX2DVju7uPHSM_pad-1" x="10189" y="27520"/><use xlink:href="#NEvVUUhPX2DVju7uPHSM_pad-1" x="10342" y="21270"/><use xlink:href="#NEvVUUhPX2DVju7uPHSM_pad-1" x="10939" y="27520"/><use xlink:href="#NEvVUUhPX2DVju7uPHSM_pad-1" x="10939" y="32520"/><use xlink:href="#NEvVUUhPX2DVju7uPHSM_pad-1" x="10939" y="37520"/><use xlink:href="#NEvVUUhPX2DVju7uPHSM_pad-1" x="64390" y="10329"/><use xlink:href="#NEvVUUhPX2DVju7uPHSM_pad-1" x="64390" y="11128"/><use xlink:href="#NEvVUUhPX2DVju7uPHSM_pad-1" x="64390" y="11904"/><use xlink:href="#NEvVUUhPX2DVju7uPHSM_pad-1" x="73140" y="11529"/><use xlink:href="#NEvVUUhPX2DVju7uPHSM_pad-1" x="73350" y="10742"/><use xlink:href="#NEvVUUhPX2DVju7uPHSM_pad-1" x="55640" y="10742"/><use xlink:href="#NEvVUUhPX2DVju7uPHSM_pad-1" x="55640" y="11529"/><use xlink:href="#NEvVUUhPX2DVju7uPHSM_pad-1" x="39390" y="10377"/><use xlink:href="#NEvVUUhPX2DVju7uPHSM_pad-1" x="31910" y="10735"/><use xlink:href="#NEvVUUhPX2DVju7uPHSM_pad-1" x="31910" y="11128"/><use xlink:href="#NEvVUUhPX2DVju7uPHSM_pad-1" x="31910" y="11522"/><use xlink:href="#NEvVUUhPX2DVju7uPHSM_pad-1" x="24390" y="96270"/><use xlink:href="#NEvVUUhPX2DVju7uPHSM_pad-1" x="96870" y="10735"/><use xlink:href="#NEvVUUhPX2DVju7uPHSM_pad-1" x="96870" y="11128"/><use xlink:href="#NEvVUUhPX2DVju7uPHSM_pad-1" x="96870" y="11522"/><use xlink:href="#NEvVUUhPX2DVju7uPHSM_pad-2" x="70290" y="12520"/><use xlink:href="#NEvVUUhPX2DVju7uPHSM_pad-2" x="58480" y="12520"/><use xlink:href="#NEvVUUhPX2DVju7uPHSM_pad-3" x="22850" y="59120"/><use xlink:href="#NEvVUUhPX2DVju7uPHSM_pad-3" x="10592" y="59120"/></g><clipPath id="ngNyrE3Y2L7nU-LGlO1w_top_outline"><path d="M 14 650.2 14.2 666 14.8 681.8 15.8 697.6 17.2 713.4 19 729.1 21.1 744.8 23.7 760.4 26.7 776 30 791.5 33.8 806.8 37.9 822.1 42.4 837.3 47.3 852.4 52.6 867.3 58.2 882.1 64.2 896.7 70.6 911.2 77.4 925.5 84.5 939.7 91.9 953.7 99.7 967.4 107.9 981 116.3 994.4 125.2 1007.5 134.3 1020.4 143.8 1033.1 153.5 1045.6 163.6 1057.8 174 1069.7 184.7 1081.4 195.7 1092.8 207 1103.9 218.5 1114.8 230.3 1125.3 242.4 1135.5 254.7 1145.5 267.3 1155.1 280.1 1164.4 293.1 1173.4 306.4 1182 319.9 1190.4 333.5 1198.3 347.4 1206 361.5 1213.2 375.7 1220.2 390.1 1226.7 404.7 1232.9 419.4 1238.7 434.3 1244.2 449.3 1249.3 464.4 1254 479.6 1258.3 494.9 1262.2 510.4 1265.8 525.9 1268.9 541.5 1271.7 557.1 1274.1 572.8 1276.1 588.6 1277.7 604.3 1278.9 620.2 1279.7 636 1280.1 651.8 1280.1 667.6 1279.7 683.5 1278.9 699.2 1277.7 715 1276.1 730.7 1274.1 746.3 1271.7 761.9 1268.9 777.4 1265.8 792.9 1262.2 808.2 1258.3 823.4 1254 838.5 1249.3 853.5 1244.2 868.4 1238.7 883.1 1232.9 897.7 1226.7 912.1 1220.2 926.3 1213.2 940.4 1206 954.3 1198.3 967.9 1190.4 981.4 1182 994.7 1173.4 1007.7 1164.4 1020.5 1155.1 1033.1 1145.5 1045.4 1135.5 1057.5 1125.3 1069.3 1114.8 1080.8 1103.9 1092.1 1092.8 1103.1 1081.4 1113.8 1069.7 1124.2 1057.8 1134.3 1045.6 1144 1033.1 1153.5 1020.4 1162.6 1007.5 1171.5 994.4 1179.9 981 1188.1 967.4 1195.9 953.7 1203.3 939.7 1210.4 925.5 1217.2 911.2 1223.6 896.7 1229.6 882.1 1235.2 867.3 1240.5 852.4 1245.4 837.3 1249.9 822.1 1254 806.8 1257.8 791.5 1261.1 776 1264.1 760.4 1266.7 744.8 1268.8 729.1 1270.6 713.4 1272 697.6 1273 681.8 1273.6 666 1273.8 650.2 1273.6 634.4 1273 618.6 1272 602.8 1270.6 587 1268.8 571.3 1266.7 555.6 1264.1 540 1261.1 524.4 1257.8 508.9 1254 493.6 1249.9 478.3 1245.4 463.1 1240.5 448 1235.2 433.1 1229.6 418.3 1223.6 403.7 1217.2 389.2 1210.4 374.9 1203.3 360.7 1195.9 346.7 1188.1 333 1179.9 319.4 1171.5 306 1162.6 292.9 1153.5 280 1144 267.3 1134.3 254.8 1124.2 242.6 1113.8 230.7 1103.1 219 1092.1 207.6 1080.8 196.5 1069.3 185.6 1057.5 175.1 1045.4 164.9 1033.1 154.9 1020.5 145.3 1007.7 136 994.7 127 981.4 118.4 967.9 110 954.3 102.1 940.4 94.4 926.3 87.2 912.1 80.2 897.7 73.7 883.1 67.5 868.4 61.7 853.5 56.2 838.5 51.1 823.4 46.4 808.2 42.1 792.9 38.2 777.4 34.6 761.9 31.5 746.3 28.7 730.7 26.3 715 24.3 699.2 22.7 683.5 21.5 667.6 20.7 651.8 20.3 636 20.3 620.2 20.7 604.3 21.5 588.6 22.7 572.8 24.3 557.1 26.3 541.5 28.7 525.9 31.5 510.4 34.6 494.9 38.2 479.6 42.1 464.4 46.4 449.3 51.1 434.3 56.2 419.4 61.7 404.7 67.5 390.1 73.7 375.7 80.2 361.5 87.2 347.4 94.4 333.5 102.1 319.9 110 306.4 118.4 293.1 127 280.1 136 267.3 145.3 254.7 154.9 242.4 164.9 230.3 175.1 218.5 185.6 207 196.5 195.7 207.6 184.7 219 174 230.7 163.6 242.6 153.5 254.8 143.8 267.3 134.3 280 125.2 292.9 116.3 306 107.9 319.4 99.7 333 91.9 346.7 84.5 360.7 77.4 374.9 70.6 389.2 64.2 403.7 58.2 418.3 52.6 433.1 47.3 448 42.4 463.1 37.9 478.3 33.8 493.6 30 508.9 26.7 524.4 23.7 540 21.1 555.6 19 571.3 17.2 587 15.8 602.8 14.8 618.6 14.2 634.4 14 650.2 M 567.1 125.2 567.3 127.8 567.9 130.4 568.9 132.9 570.2 135.2 571.8 137.2 573.8 139 576 140.5 578.3 141.7 580.9 142.5 583.5 142.9 586.1 142.9 588.7 142.5 591.3 141.7 593.7 140.5 595.8 139 597.8 137.2 599.4 135.2 600.7 132.9 601.7 130.4 602.3 127.8 602.5 125.2 602.3 122.6 601.7 120 600.7 117.5 599.4 115.2 597.8 113.2 595.8 111.4 593.6 109.9 591.3 108.7 588.7 107.9 586.1 107.5 583.5 107.5 580.9 107.9 578.3 108.7 575.9 109.9 573.8 111.4 571.8 113.2 570.2 115.2 568.9 117.5 567.9 120 567.3 122.6 567.1 125.2 M 685.2 125.2 685.4 127.8 686 130.4 687 132.9 688.3 135.2 689.9 137.2 691.9 139 694.1 140.5 696.4 141.7 699 142.5 701.6 142.9 704.2 142.9 706.8 142.5 709.4 141.7 711.8 140.5 713.9 139 715.9 137.2 717.5 135.2 718.8 132.9 719.8 130.4 720.4 127.8 720.6 125.2 720.4 122.6 719.8 120 718.8 117.5 717.5 115.2 715.9 113.2 713.9 111.4 711.7 109.9 709.4 108.7 706.8 107.9 704.2 107.5 701.6 107.5 699 107.9 696.4 108.7 694 109.9 691.9 111.4 689.9 113.2 688.3 115.2 687 117.5 686 120 685.4 122.6 685.2 125.2" fill="none" stroke-width="7.9"/></clipPath><mask id="ngNyrE3Y2L7nU-LGlO1w_top_mech-mask"><g fill="#000" stroke="#000"><rect x="14" y="20.3" width="1259.8" height="1259.8" fill="#fff"/><use xlink:href="#ngNyrE3Y2L7nU-LGlO1w_top_drill1"/></g></mask><mask id="ngNyrE3Y2L7nU-LGlO1w_top_cf-mask"><g fill="#fff" stroke="#fff"><use xlink:href="#ngNyrE3Y2L7nU-LGlO1w_top_soldermask"/></g></mask><mask id="ngNyrE3Y2L7nU-LGlO1w_top_sm-mask"><g fill="#000" stroke="#000"><rect x="14" y="20.3" width="1259.8" height="1259.8" fill="#fff"/><use xlink:href="#ngNyrE3Y2L7nU-LGlO1w_top_soldermask"/></g></mask></defs><g transform="translate(0,1300.3999999999999) scale(1,-1)"><g mask="url(#ngNyrE3Y2L7nU-LGlO1w_top_mech-mask)" clip-path="url(#ngNyrE3Y2L7nU-LGlO1w_top_outline)"><rect x="14" y="20.3" width="1259.8" height="1259.8" fill="currentColor" class="ngNyrE3Y2L7nU-LGlO1w_fr4"/><use xlink:href="#ngNyrE3Y2L7nU-LGlO1w_top_copper" fill="currentColor" stroke="currentColor" class="ngNyrE3Y2L7nU-LGlO1w_cu"/><use xlink:href="#ngNyrE3Y2L7nU-LGlO1w_top_copper" fill="currentColor" stroke="currentColor" class="ngNyrE3Y2L7nU-LGlO1w_cf" mask="url(#ngNyrE3Y2L7nU-LGlO1w_top_cf-mask)"/><g mask="url(#ngNyrE3Y2L7nU-LGlO1w_top_sm-mask)"><rect x="14" y="20.3" width="1259.8" height="1259.8" fill="currentColor" class="ngNyrE3Y2L7nU-LGlO1w_sm"/><use xlink:href="#ngNyrE3Y2L7nU-LGlO1w_top_silkscreen" fill="currentColor" stroke="currentColor" class="ngNyrE3Y2L7nU-LGlO1w_ss"/></g></g></g></svg>