G75*
%MOIN*%
%OFA0B0*%
%FSLAX24Y24*%
%IPPOS*%
%LPD*%
%AMOC8*
5,1,8,0,0,1.08239X$1,22.5*
%
%ADD10C,0.0060*%
%ADD11C,0.0118*%
%ADD12C,0.0079*%
D10*
X002057Y007988D02*
X002229Y008137D01*
X001909Y008160D01*
X001872Y008203D01*
X001878Y008283D01*
X001964Y008357D01*
X002044Y008351D01*
X002151Y008444D02*
X002188Y008401D01*
X002268Y008395D01*
X002262Y008315D01*
X002299Y008272D01*
X002379Y008266D01*
X002465Y008340D01*
X002471Y008420D01*
X002578Y008513D02*
X002658Y008507D01*
X002744Y008581D01*
X002750Y008661D01*
X002430Y008684D01*
X002578Y008513D01*
X002750Y008661D02*
X002602Y008833D01*
X002522Y008838D01*
X002436Y008764D01*
X002430Y008684D01*
X002323Y008592D02*
X002243Y008598D01*
X002157Y008524D01*
X002151Y008444D01*
X002268Y008395D02*
X002311Y008432D01*
X002746Y008882D02*
X002709Y008925D01*
X002714Y009005D01*
X002800Y009079D01*
X002880Y009073D01*
X002987Y009166D02*
X002993Y009246D01*
X003122Y009357D01*
X003344Y009099D01*
X003270Y009185D02*
X003142Y009074D01*
X003062Y009080D01*
X002987Y009166D01*
X003184Y009111D02*
X003173Y008951D01*
X003066Y008859D02*
X002746Y008882D01*
X002894Y008710D02*
X003066Y008859D01*
X003414Y009235D02*
X003494Y009229D01*
X003580Y009303D01*
X003586Y009383D01*
X003438Y009555D01*
X003358Y009560D01*
X003272Y009486D01*
X003266Y009406D01*
X009074Y009570D02*
X009080Y009490D01*
X009166Y009416D01*
X009246Y009422D01*
X009320Y009508D02*
X009271Y009625D01*
X009228Y009662D01*
X009148Y009656D01*
X009074Y009570D01*
X009320Y009508D02*
X009431Y009637D01*
X009259Y009785D01*
X009501Y009501D02*
X009524Y009181D01*
X009444Y009175D01*
X009359Y009250D01*
X009353Y009330D01*
X009501Y009501D01*
X009581Y009507D01*
X009667Y009433D01*
X009673Y009353D01*
X009524Y009181D01*
X009594Y009046D02*
X009766Y008898D01*
X009743Y009218D01*
X009780Y009261D01*
X009860Y009266D01*
X009946Y009192D01*
X009951Y009112D01*
X010059Y009020D02*
X010021Y008977D01*
X010027Y008897D01*
X009947Y008891D01*
X009910Y008848D01*
X009916Y008768D01*
X010002Y008694D01*
X010082Y008700D01*
X010070Y008860D02*
X010027Y008897D01*
X010059Y009020D02*
X010139Y009026D01*
X010224Y008952D01*
X010230Y008872D01*
X010263Y008693D02*
X010435Y008545D01*
X010616Y008539D02*
X010696Y008544D01*
X010782Y008470D01*
X010788Y008390D01*
X010640Y008219D01*
X010560Y008213D01*
X010474Y008287D01*
X010468Y008367D01*
X010747Y008126D02*
X010753Y008046D01*
X010881Y007935D01*
X011104Y008193D01*
X010975Y008304D01*
X010895Y008298D01*
X010858Y008255D01*
X010864Y008175D01*
X010993Y008064D01*
X010864Y008175D02*
X010784Y008169D01*
X010747Y008126D01*
X010988Y007843D02*
X011160Y007694D01*
X011383Y007952D01*
X010940Y007236D02*
X010599Y007236D01*
X010599Y007123D02*
X010599Y007350D01*
X010826Y007123D02*
X010940Y007236D01*
X010883Y006981D02*
X010826Y006981D01*
X010769Y006925D01*
X010769Y006755D01*
X010599Y006755D02*
X010599Y006925D01*
X010656Y006981D01*
X010713Y006981D01*
X010769Y006925D01*
X010883Y006981D02*
X010940Y006925D01*
X010940Y006755D01*
X010599Y006755D01*
D11*
X010080Y001581D02*
X002797Y001581D01*
X003289Y001778D02*
X003092Y002172D01*
X003683Y002172D01*
X003880Y001778D01*
X004175Y001778D02*
X004667Y001778D01*
X004273Y002565D01*
X003781Y002565D01*
X003486Y002565D02*
X003683Y002172D01*
X003092Y002172D02*
X002895Y002565D01*
X004569Y002565D02*
X005061Y002565D01*
X005257Y002172D01*
X004765Y002172D01*
X004962Y001778D02*
X005454Y001778D01*
X005257Y002172D01*
X005356Y002565D02*
X005651Y002565D01*
X006045Y002565D01*
X005651Y002565D02*
X006045Y001778D01*
X006340Y001778D02*
X006143Y002172D01*
X006537Y002172D01*
X006734Y001778D01*
X006340Y001778D01*
X006832Y002172D02*
X007029Y001778D01*
X007324Y001778D02*
X007128Y002172D01*
X006832Y002172D01*
X007324Y002369D02*
X007275Y002467D01*
X007423Y002172D02*
X007620Y001778D01*
X007915Y001778D02*
X007718Y002172D01*
X008013Y002172D01*
X008210Y001778D01*
X008506Y001778D02*
X008309Y002172D01*
X008013Y002172D01*
X008604Y002172D02*
X008998Y002172D01*
X009194Y001778D01*
X008801Y001778D01*
X008604Y002172D01*
X009096Y002565D02*
X009293Y002172D01*
X009687Y002172D01*
X009883Y001778D01*
X009490Y001778D01*
X009293Y002172D01*
D12*
X009437Y003081D02*
X010450Y004076D01*
X010450Y005223D01*
X010588Y005223D02*
X010588Y004212D01*
X010450Y004076D01*
X009437Y003081D02*
X009386Y003051D01*
X009332Y003025D01*
X009277Y003002D01*
X009221Y002983D01*
X009163Y002967D01*
X009105Y002956D01*
X009046Y002947D01*
X008986Y002943D01*
X008927Y002942D01*
X008867Y002945D01*
X008808Y002952D01*
X008808Y002953D02*
X008662Y003008D01*
X008514Y003060D01*
X008365Y003108D01*
X008215Y003152D01*
X008064Y003193D01*
X007912Y003231D01*
X007760Y003264D01*
X007606Y003294D01*
X007452Y003321D01*
X007297Y003343D01*
X007142Y003362D01*
X006986Y003377D01*
X006830Y003388D01*
X006674Y003396D01*
X006517Y003400D01*
X006361Y003400D01*
X006204Y003396D01*
X006048Y003388D01*
X005892Y003377D01*
X005736Y003362D01*
X005581Y003343D01*
X005426Y003321D01*
X005272Y003294D01*
X005118Y003264D01*
X004966Y003231D01*
X004814Y003193D01*
X004663Y003152D01*
X004513Y003108D01*
X004364Y003060D01*
X004216Y003008D01*
X004070Y002953D01*
X003440Y003081D02*
X002427Y004076D01*
X002427Y005223D01*
X002289Y005223D02*
X002289Y004212D01*
X002427Y004076D01*
X003440Y003081D02*
X003491Y003051D01*
X003545Y003025D01*
X003600Y003002D01*
X003656Y002983D01*
X003714Y002967D01*
X003772Y002956D01*
X003831Y002947D01*
X003891Y002943D01*
X003950Y002942D01*
X004010Y002945D01*
X004069Y002952D01*
X002427Y006601D02*
X002427Y007674D01*
X002333Y007775D01*
X003470Y008912D01*
X003665Y008912D01*
X009212Y008912D01*
X009407Y008912D01*
X010544Y007775D01*
X010450Y007674D01*
X010450Y006601D01*
X010588Y006601D02*
X010588Y007669D01*
X010450Y007674D01*
X009212Y008912D01*
X003665Y008912D02*
X002427Y007674D01*
X002289Y007669D01*
X002289Y006601D01*
M02*
