<svg version="1.1" xmlns="http://www.w3.org/2000/svg" xmlns:xlink="http://www.w3.org/1999/xlink" stroke-linecap="round" stroke-linejoin="round" stroke-width="0" fill-rule="evenodd" clip-rule="evenodd" id="vj3syW5yHQ_UqtTDJsTX_bottom" viewBox="14 20.3 1259.8 1259.8" width="1.2598in" height="1.2598in" class="w-100 h-100"><defs><style>.vj3syW5yHQ_UqtTDJsTX_fr4 {color: #666666;}
.vj3syW5yHQ_UqtTDJsTX_cu {color: #cccccc;}
.vj3syW5yHQ_UqtTDJsTX_cf {color: #cc9933;}
.vj3syW5yHQ_UqtTDJsTX_sm {color: #121212; opacity: 0.75;}
.vj3syW5yHQ_UqtTDJsTX_ss {color: #ffffff;}
.vj3syW5yHQ_UqtTDJsTX_sp {color: #999999;}
.vj3syW5yHQ_UqtTDJsTX_out {color: #000000;}</style><circle cx="0" cy="0" r="55.15" id="VDIhQEQH8F16sISwwpiR_pad-12"/><circle cx="0" cy="0" r="120.1" id="VDIhQEQH8F16sISwwpiR_pad-13"/><circle cx="0" cy="0" r="19.7" id="VDIhQEQH8F16sISwwpiR_pad-14"/><circle cx="0" cy="0" r="53.15" id="gQaxLfJfESUjRt2_KXG2_pad-10"/><circle cx="0" cy="0" r="118.1" id="gQaxLfJfESUjRt2_KXG2_pad-11"/><circle cx="0" cy="0" r="11.8" id="gQaxLfJfESUjRt2_KXG2_pad-13"/><circle cx="0" cy="0" r="5.9" id="DJuLMp63O6O1Y8ti3UIb_pad-1"/><circle cx="0" cy="0" r="17.7" id="DJuLMp63O6O1Y8ti3UIb_pad-2"/><circle cx="0" cy="0" r="35.45" id="DJuLMp63O6O1Y8ti3UIb_pad-3"/><g id="vj3syW5yHQ_UqtTDJsTX_bottom_soldermask"><path d="M 599.2 1036.3 611.2 1030.5 624 1026.5 637.2 1024.5 650.5 1024.5 663.8 1026.5 676.5 1030.5 688.5 1036.3 699.5 1043.9 709.3 1053.1 717.5 1063.6 968.7 1063.6 971.2 1064 973.6 1064.9 975.6 1066.5 977.2 1068.5 978.2 1070.9 978.5 1073.5 978.5 1152.2 978.2 1154.8 977.2 1157.1 975.6 1159.2 973.6 1160.7 971.2 1161.7 968.7 1162 717.5 1162 709.3 1172.6 699.5 1181.7 688.5 1189.3 676.5 1195.2 663.8 1199.2 650.5 1201.2 637.2 1201.2 624 1199.2 611.2 1195.2 599.2 1189.3 588.2 1181.7 578.4 1172.6 570.2 1162 319.1 1162 316.5 1161.7 314.1 1160.7 312.1 1159.2 310.5 1157.1 309.5 1154.8 309.2 1152.2 309.2 1073.5 309.5 1070.9 310.5 1068.5 312.1 1066.5 314.1 1064.9 316.5 1064 319.1 1063.6 570.2 1063.6 578.4 1053.1 588.2 1043.9 599.2 1036.3 M 601.8 1035.1 685.9 1035.1 M 702.5 1046.7 585.2 1046.7 M 574.3 1058.4 713.4 1058.4 M 716.5 1163.3 571.2 1163.3 M 581 1175 706.7 1175 M 692.4 1186.6 595.3 1186.6 M 621.2 1198.3 666.5 1198.3 M 978.5 1151.7 309.2 1151.7 M 309.2 1140 978.5 1140 M 978.5 1128.3 309.2 1128.3 M 309.2 1116.7 978.5 1116.7 M 978.5 1105 309.2 1105 M 309.2 1093.4 978.5 1093.4 M 978.5 1081.7 309.2 1081.7 M 309.9 1070 977.8 1070" fill="none" stroke-width="11.8"/><path d="M 890.8 396.3 397 396.3 M 402.6 388.7 427.7 362.1 455.8 338.5 486.4 318.4 519.1 302 553.5 289.5 589.2 281 625.5 276.8 662.2 276.8 698.6 281 734.2 289.5 768.6 302 801.3 318.4 831.9 338.5 860 362.1 885.1 388.7 907 418.1 925.3 449.8 939.8 483.5 950.3 518.5 956.7 554.6 958.8 591.2 956.7 627.7 950.3 663.8 939.8 698.9 925.3 732.5 907 764.3 885.1 793.6 860 820.3 831.9 843.8 801.3 863.9 768.6 880.4 734.2 892.9 698.6 901.4 662.2 905.6 625.5 905.6 589.2 901.4 553.5 892.9 519.1 880.4 486.4 863.9 455.8 843.8 427.7 820.3 402.6 793.6 380.7 764.3 362.4 732.5 347.9 698.9 337.4 663.8 331 627.7 328.9 591.2 331 554.6 337.4 518.5 347.9 483.5 362.4 449.8 380.7 418.1 402.6 388.7 M 413.9 376.7 873.8 376.7 M 854.2 357.2 433.5 357.2 M 457.1 337.7 830.6 337.7 M 800.8 318.1 486.9 318.1 M 528.4 298.6 759.3 298.6 M 682 279.1 605.7 279.1 M 382.4 415.8 905.3 415.8 M 917 435.4 370.8 435.4 M 360.2 454.9 927.5 454.9 M 935.9 474.4 351.8 474.4 M 344.7 494 943 494 M 948.8 513.5 338.9 513.5 M 334.8 533 952.9 533 M 956.3 552.6 331.4 552.6 M 330 572.1 957.7 572.1 M 958.8 591.6 328.9 591.6 M 330.1 611.2 957.7 611.2 M 956.2 630.7 331.5 630.7 M 335 650.2 952.7 650.2 M 948.5 669.8 339.2 669.8 M 345 689.3 942.7 689.3 M 935.5 708.8 352.2 708.8 M 360.6 728.4 927.1 728.4 M 916.4 747.9 371.3 747.9 M 383.1 767.4 904.6 767.4 M 890.1 787 397.6 787 M 414.7 806.5 873 806.5 M 853.1 826.1 434.6 826.1 M 458.5 845.6 829.3 845.6 M 799 865.1 488.7 865.1 M 530.9 884.7 756.9 884.7 M 674.3 904.2 613.4 904.2" fill="none" stroke-width="19.7"/><use xlink:href="#VDIhQEQH8F16sISwwpiR_pad-12" x="228.5" y="591.2"/><use xlink:href="#VDIhQEQH8F16sISwwpiR_pad-12" x="1059.2" y="591.2"/><use xlink:href="#VDIhQEQH8F16sISwwpiR_pad-13" x="643.9" y="591.2"/><use xlink:href="#VDIhQEQH8F16sISwwpiR_pad-14" x="702.9" y="125.2"/><use xlink:href="#VDIhQEQH8F16sISwwpiR_pad-14" x="584.8" y="125.2"/></g><g id="vj3syW5yHQ_UqtTDJsTX_bottom_copper"><use xlink:href="#gQaxLfJfESUjRt2_KXG2_pad-10" x="228.5" y="591.2"/><use xlink:href="#gQaxLfJfESUjRt2_KXG2_pad-10" x="1059.2" y="591.2"/><use xlink:href="#gQaxLfJfESUjRt2_KXG2_pad-11" x="643.9" y="591.2"/><path d="M 650.5 1024.5 637.2 1024.5 624 1026.5 611.2 1030.5 599.2 1036.3 588.2 1043.9 578.4 1053.1 570.2 1063.6 319.1 1063.6 316.5 1064 314.1 1064.9 312.1 1066.5 310.5 1068.5 309.5 1070.9 309.2 1073.5 309.2 1152.2 309.5 1154.8 310.5 1157.1 312.1 1159.2 314.1 1160.7 316.5 1161.7 319.1 1162 570.2 1162 578.4 1172.6 588.2 1181.7 599.2 1189.3 611.2 1195.2 624 1199.2 637.2 1201.2 650.5 1201.2 663.8 1199.2 676.5 1195.2 688.5 1189.3 699.5 1181.7 709.3 1172.6 717.5 1162 968.7 1162 971.2 1161.7 973.6 1160.7 975.6 1159.2 977.2 1157.1 978.2 1154.8 978.5 1152.2 978.5 1073.5 978.2 1070.9 977.2 1068.5 975.6 1066.5 973.6 1064.9 971.2 1064 968.7 1063.6 717.5 1063.6 709.3 1053.1 699.5 1043.9 688.5 1036.3 676.5 1030.5 663.8 1026.5 650.5 1024.5 M 670.8 1028.7 616.9 1028.7 M 599 1036.4 688.7 1036.4 M 699.8 1044.2 587.9 1044.2 M 579.7 1051.9 708 1051.9 M 714.4 1059.6 573.3 1059.6 M 574.7 1167.7 713.1 1167.7 M 706.2 1175.5 581.5 1175.5 M 590.3 1183.2 697.4 1183.2 M 685.3 1190.9 602.4 1190.9 M 622.3 1198.6 665.4 1198.6 M 974.5 1160 313.2 1160 M 309.2 1152.3 978.5 1152.3 M 978.5 1144.6 309.2 1144.6 M 309.2 1136.9 978.5 1136.9 M 978.5 1129.1 309.2 1129.1 M 309.2 1121.4 978.5 1121.4 M 978.5 1113.7 309.2 1113.7 M 309.2 1106 978.5 1106 M 978.5 1098.2 309.2 1098.2 M 309.2 1090.5 978.5 1090.5 M 978.5 1082.8 309.2 1082.8 M 309.2 1075.1 978.5 1075.1 M 976.3 1067.3 311.5 1067.3" fill="none" stroke-width="7.9"/><use xlink:href="#gQaxLfJfESUjRt2_KXG2_pad-13" x="319.1" y="1073.5"/><use xlink:href="#gQaxLfJfESUjRt2_KXG2_pad-13" x="319.1" y="1112.8"/><use xlink:href="#gQaxLfJfESUjRt2_KXG2_pad-13" x="319.1" y="1152.2"/><use xlink:href="#gQaxLfJfESUjRt2_KXG2_pad-13" x="393.9" y="1037.7"/><use xlink:href="#gQaxLfJfESUjRt2_KXG2_pad-13" x="243.9" y="962.7"/><use xlink:href="#gQaxLfJfESUjRt2_KXG2_pad-13" x="556.4" y="1074.2"/><use xlink:href="#gQaxLfJfESUjRt2_KXG2_pad-13" x="556.4" y="1152.9"/><use xlink:href="#gQaxLfJfESUjRt2_KXG2_pad-13" x="643.9" y="1190.4"/><use xlink:href="#gQaxLfJfESUjRt2_KXG2_pad-13" x="643.9" y="1112.8"/><use xlink:href="#gQaxLfJfESUjRt2_KXG2_pad-13" x="643.9" y="1032.9"/><use xlink:href="#gQaxLfJfESUjRt2_KXG2_pad-13" x="733.5" y="1074.2"/><use xlink:href="#gQaxLfJfESUjRt2_KXG2_pad-13" x="731.4" y="1152.9"/><use xlink:href="#gQaxLfJfESUjRt2_KXG2_pad-13" x="968.7" y="1152.2"/><use xlink:href="#gQaxLfJfESUjRt2_KXG2_pad-13" x="968.7" y="1112.8"/><use xlink:href="#gQaxLfJfESUjRt2_KXG2_pad-13" x="968.7" y="1073.5"/><use xlink:href="#gQaxLfJfESUjRt2_KXG2_pad-13" x="643.9" y="650.2"/><use xlink:href="#gQaxLfJfESUjRt2_KXG2_pad-13" x="568.9" y="487.7"/><use xlink:href="#gQaxLfJfESUjRt2_KXG2_pad-13" x="643.9" y="350.2"/><use xlink:href="#gQaxLfJfESUjRt2_KXG2_pad-13" x="943.9" y="375.2"/><use xlink:href="#gQaxLfJfESUjRt2_KXG2_pad-13" x="981.4" y="325.2"/><use xlink:href="#gQaxLfJfESUjRt2_KXG2_pad-13" x="1018.9" y="275.2"/><use xlink:href="#gQaxLfJfESUjRt2_KXG2_pad-13" x="1034.2" y="212.7"/><use xlink:href="#gQaxLfJfESUjRt2_KXG2_pad-13" x="1093.9" y="275.2"/><use xlink:href="#gQaxLfJfESUjRt2_KXG2_pad-13" x="1093.9" y="325.2"/><use xlink:href="#gQaxLfJfESUjRt2_KXG2_pad-13" x="1093.9" y="375.2"/><use xlink:href="#gQaxLfJfESUjRt2_KXG2_pad-13" x="193.9" y="425.2"/><use xlink:href="#gQaxLfJfESUjRt2_KXG2_pad-13" x="193.9" y="487.7"/><use xlink:href="#gQaxLfJfESUjRt2_KXG2_pad-13" x="93.9" y="450.2"/><path d="M 228.5 265.6 281.4 212.7 1034.2 212.7 M 1018.9 275.2 1093.9 275.2 M 1093.9 325.2 981.4 325.2 M 943.9 375.2 1093.9 375.2 M 643.9 884 643.9 937.7 618.9 962.7 418.9 962.7 393.9 987.7 393.9 1037.7 M 243.9 962.7 181.4 962.7 143.9 925.2 143.9 512.7 168.9 487.7 193.9 487.7 M 193.9 425.2 118.9 425.2 93.9 450.2 M 228.5 591.2 228.5 265.6" fill="none" stroke-width="10"/><path d="M 402.6 388.7 380.7 418.1 362.4 449.8 347.9 483.5 337.4 518.5 331 554.6 328.9 591.2 331 627.7 337.4 663.8 347.9 698.9 362.4 732.5 380.7 764.3 402.6 793.6 427.7 820.3 455.8 843.8 486.4 863.9 519.1 880.4 553.5 892.9 589.2 901.4 625.5 905.6 662.2 905.6 698.6 901.4 734.2 892.9 768.6 880.4 801.3 863.9 831.9 843.8 860 820.3 885.1 793.6 907 764.3 925.3 732.5 939.8 698.9 950.3 663.8 956.7 627.7 958.8 591.2 956.7 554.6 950.3 518.5 939.8 483.5 925.3 449.8 907 418.1 885.1 388.7 860 362.1 831.9 338.5 801.3 318.4 768.6 302 734.2 289.5 698.6 281 662.2 276.8 625.5 276.8 589.2 281 553.5 289.5 519.1 302 486.4 318.4 455.8 338.5 427.7 362.1 402.6 388.7 M 398.9 393.7 888.8 393.7 M 897.5 405.4 390.2 405.4 M 381.5 417 906.2 417 M 913.1 428.7 374.6 428.7 M 367.9 440.3 919.8 440.3 M 926.3 452 361.5 452 M 356.4 463.7 931.3 463.7 M 936.3 475.3 351.4 475.3 M 346.8 487 940.9 487 M 944.4 498.6 343.3 498.6 M 339.9 510.3 947.9 510.3 M 950.9 522 336.8 522 M 334.7 533.6 953 533.6 M 955 545.3 332.7 545.3 M 330.9 556.9 956.8 556.9 M 957.5 568.6 330.2 568.6 M 329.5 580.3 958.2 580.3 M 958.8 591.9 328.9 591.9 M 329.6 603.6 958.1 603.6 M 957.4 615.3 330.3 615.3 M 331 626.9 956.7 626.9 M 954.8 638.6 332.9 638.6 M 335 650.2 952.7 650.2 M 950.7 661.9 337 661.9 M 340.3 673.6 947.4 673.6 M 943.9 685.2 343.8 685.2 M 347.3 696.9 940.4 696.9 M 935.7 708.5 352 708.5 M 357.1 720.2 930.6 720.2 M 925.6 731.9 362.1 731.9 M 368.7 743.5 919 743.5 M 912.2 755.2 375.5 755.2 M 382.6 766.8 905.1 766.8 M 896.4 778.5 391.3 778.5 M 400 790.2 887.7 790.2 M 877.4 801.8 410.3 801.8 M 421.3 813.5 866.4 813.5 M 854.2 825.2 433.5 825.2 M 447.4 836.8 840.3 836.8 M 824.9 848.5 462.9 848.5 M 480.6 860.1 807.1 860.1 M 785.7 871.8 502 871.8 M 527.6 883.5 760.2 883.5 M 724.9 895.1 562.8 895.1 M 408.9 382 878.8 382 M 867.8 370.4 419.9 370.4 M 431.7 358.7 856 358.7 M 842.1 347 445.6 347 M 460.6 335.4 827.1 335.4 M 809.4 323.7 478.3 323.7 M 499 312.1 788.7 312.1 M 764.3 300.4 523.4 300.4 M 556.5 288.7 731.2 288.7 M 665 277.1 622.7 277.1" fill="none" stroke-width="11.8"/></g><g id="vj3syW5yHQ_UqtTDJsTX_bottom_silkscreen"><path d="M 205.7 798.8 222.9 813.7 190.9 816 187.2 820.3 187.8 828.3 196.4 835.7 204.4 835.1 M 215.1 844.4 218.8 840.1 226.8 839.5 226.2 831.5 229.9 827.2 237.9 826.6 246.5 834 247.1 842 M 257.8 851.3 265.8 850.7 274.4 858.1 275 866.1 243 868.4 257.8 851.3 M 275 866.1 260.2 883.3 252.2 883.8 243.6 876.4 243 868.4 M 232.3 859.2 224.3 859.8 215.7 852.4 215.1 844.4 M 226.8 839.5 231.1 843.2 M 274.6 888.2 270.9 892.5 271.4 900.5 280 907.9 288 907.3 M 298.7 916.6 299.3 924.6 312.2 935.7 334.4 909.9 M 327 918.5 314.2 907.4 306.2 908 298.7 916.6 M 318.4 911.1 317.3 895.1 M 306.6 885.9 274.6 888.2 M 289.4 871 306.6 885.9 M 341.4 923.5 349.4 922.9 358 930.3 358.6 938.3 343.8 955.5 335.8 956 327.2 948.6 326.6 940.6 M 907.4 957 908 949 916.6 941.6 924.6 942.2 M 935.3 933 935.9 925 944.4 917.5 952.4 918.1 950.1 950.1 935.3 933 M 950.1 950.1 958.1 950.7 966.7 943.3 967.3 935.3 952.4 918.1 M 959.4 904.6 976.6 889.8 974.3 921.8 978 926.1 986 926.6 994.6 919.2 995.1 911.2 M 1005.9 902 1002.1 897.7 1002.7 889.7 994.7 889.1 991 884.8 991.6 876.8 1000.2 869.4 1008.2 870 M 1007 886 1002.7 889.7 M 1005.9 902 1013.9 902.6 1022.4 895.2 1023 887.2 M 1026.3 869.3 1043.5 854.5 M 1061.6 853.9 1069.6 854.4 1078.2 847 1078.8 839 1064 821.9 1056 821.3 1047.4 828.7 1046.8 836.7 M 1074.7 812.6 1075.3 804.6 1088.1 793.5 1110.4 819.3 1097.5 830.4 1089.5 829.8 1085.8 825.5 1086.4 817.5 1099.3 806.4 M 1086.4 817.5 1078.4 816.9 1074.7 812.6 M 1098.8 784.3 1116 769.4 1138.3 795.2 M 1094 723.6 1059.9 723.6 M 1059.9 712.3 1059.9 735 M 1082.6 712.3 1094 723.6 M 1088.3 698.1 1082.6 698.1 1076.9 692.5 1076.9 675.5 M 1059.9 675.5 1059.9 692.5 1065.6 698.1 1071.3 698.1 1076.9 692.5 M 1088.3 698.1 1094 692.5 1094 675.5 1059.9 675.5 M 907.4 957 911.1 961.3 919.1 961.9 923.4 958.2 M 919.1 961.9 918.5 969.9 922.2 974.2 930.2 974.8 938.8 967.4 939.4 959.4" fill="none" stroke-width="6"/><path d="M 1008 158.1 279.7 158.1 M 328.9 177.8 309.2 217.2 368.3 217.2 388 177.8 M 417.5 177.8 466.7 177.8 427.3 256.5 378.1 256.5 M 348.6 256.5 368.3 217.2 M 309.2 217.2 289.5 256.5 M 456.9 256.5 506.1 256.5 525.7 217.2 476.5 217.2 M 496.2 177.8 545.4 177.8 525.7 217.2 M 535.6 256.5 565.1 256.5 604.5 256.5 M 565.1 256.5 604.5 177.8 M 634 177.8 614.3 217.2 653.7 217.2 673.4 177.8 634 177.8 M 683.2 217.2 702.9 177.8 M 732.4 177.8 712.8 217.2 683.2 217.2 M 732.4 236.9 727.5 246.7 M 742.3 217.2 762 177.8 M 791.5 177.8 771.8 217.2 801.3 217.2 821 177.8 M 850.6 177.8 830.9 217.2 801.3 217.2 M 860.4 217.2 899.8 217.2 919.4 177.8 880.1 177.8 860.4 217.2 M 909.6 256.5 929.3 217.2 968.7 217.2 988.3 177.8 949 177.8 929.3 217.2" fill="none" stroke-width="11.8"/><path d="M 943.7 308.1 1045 407.6 1045 522.3 M 1058.8 522.3 1058.8 421.2 1045 407.6 M 943.7 308.1 938.6 305.1 933.2 302.5 927.7 300.2 922.1 298.3 916.3 296.7 910.5 295.6 904.6 294.7 898.6 294.3 892.7 294.2 886.7 294.5 880.8 295.2 M 880.8 295.3 866.2 300.8 851.4 306 836.5 310.8 821.5 315.2 806.4 319.3 791.2 323.1 776 326.4 760.6 329.4 745.2 332.1 729.7 334.3 714.2 336.2 698.6 337.7 683 338.8 667.4 339.6 651.7 340 636.1 340 620.4 339.6 604.8 338.8 589.2 337.7 573.6 336.2 558.1 334.3 542.6 332.1 527.2 329.4 511.8 326.4 496.6 323.1 481.4 319.3 466.3 315.2 451.3 310.8 436.4 306 421.6 300.8 407 295.3 M 344 308.1 242.7 407.6 242.7 522.3 M 228.9 522.3 228.9 421.2 242.7 407.6 M 344 308.1 349.1 305.1 354.5 302.5 360 300.2 365.6 298.3 371.4 296.7 377.2 295.6 383.1 294.7 389.1 294.3 395 294.2 401 294.5 406.9 295.2 M 242.7 660.1 242.7 767.4 233.3 777.5 347 891.2 366.5 891.2 921.2 891.2 940.7 891.2 1054.4 777.5 1045 767.4 1045 660.1 M 1058.8 660.1 1058.8 766.9 1045 767.4 921.2 891.2 M 366.5 891.2 242.7 767.4 228.9 766.9 228.9 660.1" fill="none" stroke-width="7.9"/></g><g id="vj3syW5yHQ_UqtTDJsTX_bottom_drill1"><use xlink:href="#DJuLMp63O6O1Y8ti3UIb_pad-1" x="19390" y="42520"/><use xlink:href="#DJuLMp63O6O1Y8ti3UIb_pad-1" x="19390" y="48770"/><use xlink:href="#DJuLMp63O6O1Y8ti3UIb_pad-1" x="93900" y="45020"/><use xlink:href="#DJuLMp63O6O1Y8ti3UIb_pad-1" x="56890" y="48770"/><use xlink:href="#DJuLMp63O6O1Y8ti3UIb_pad-1" x="64390" y="35020"/><use xlink:href="#DJuLMp63O6O1Y8ti3UIb_pad-1" x="64390" y="65020"/><use xlink:href="#DJuLMp63O6O1Y8ti3UIb_pad-1" x="94390" y="37520"/><use xlink:href="#DJuLMp63O6O1Y8ti3UIb_pad-1" x="98140" y="32520"/><use xlink:href="#DJuLMp63O6O1Y8ti3UIb_pad-1" x="10189" y="27520"/><use xlink:href="#DJuLMp63O6O1Y8ti3UIb_pad-1" x="10342" y="21270"/><use xlink:href="#DJuLMp63O6O1Y8ti3UIb_pad-1" x="10939" y="27520"/><use xlink:href="#DJuLMp63O6O1Y8ti3UIb_pad-1" x="10939" y="32520"/><use xlink:href="#DJuLMp63O6O1Y8ti3UIb_pad-1" x="10939" y="37520"/><use xlink:href="#DJuLMp63O6O1Y8ti3UIb_pad-1" x="64390" y="10329"/><use xlink:href="#DJuLMp63O6O1Y8ti3UIb_pad-1" x="64390" y="11128"/><use xlink:href="#DJuLMp63O6O1Y8ti3UIb_pad-1" x="64390" y="11904"/><use xlink:href="#DJuLMp63O6O1Y8ti3UIb_pad-1" x="73140" y="11529"/><use xlink:href="#DJuLMp63O6O1Y8ti3UIb_pad-1" x="73350" y="10742"/><use xlink:href="#DJuLMp63O6O1Y8ti3UIb_pad-1" x="55640" y="10742"/><use xlink:href="#DJuLMp63O6O1Y8ti3UIb_pad-1" x="55640" y="11529"/><use xlink:href="#DJuLMp63O6O1Y8ti3UIb_pad-1" x="39390" y="10377"/><use xlink:href="#DJuLMp63O6O1Y8ti3UIb_pad-1" x="31910" y="10735"/><use xlink:href="#DJuLMp63O6O1Y8ti3UIb_pad-1" x="31910" y="11128"/><use xlink:href="#DJuLMp63O6O1Y8ti3UIb_pad-1" x="31910" y="11522"/><use xlink:href="#DJuLMp63O6O1Y8ti3UIb_pad-1" x="24390" y="96270"/><use xlink:href="#DJuLMp63O6O1Y8ti3UIb_pad-1" x="96870" y="10735"/><use xlink:href="#DJuLMp63O6O1Y8ti3UIb_pad-1" x="96870" y="11128"/><use xlink:href="#DJuLMp63O6O1Y8ti3UIb_pad-1" x="96870" y="11522"/><use xlink:href="#DJuLMp63O6O1Y8ti3UIb_pad-2" x="70290" y="12520"/><use xlink:href="#DJuLMp63O6O1Y8ti3UIb_pad-2" x="58480" y="12520"/><use xlink:href="#DJuLMp63O6O1Y8ti3UIb_pad-3" x="22850" y="59120"/><use xlink:href="#DJuLMp63O6O1Y8ti3UIb_pad-3" x="10592" y="59120"/></g><clipPath id="vj3syW5yHQ_UqtTDJsTX_bottom_outline"><path d="M 14 650.2 14.2 666 14.8 681.8 15.8 697.6 17.2 713.4 19 729.1 21.1 744.8 23.7 760.4 26.7 776 30 791.5 33.8 806.8 37.9 822.1 42.4 837.3 47.3 852.4 52.6 867.3 58.2 882.1 64.2 896.7 70.6 911.2 77.4 925.5 84.5 939.7 91.9 953.7 99.7 967.4 107.9 981 116.3 994.4 125.2 1007.5 134.3 1020.4 143.8 1033.1 153.5 1045.6 163.6 1057.8 174 1069.7 184.7 1081.4 195.7 1092.8 207 1103.9 218.5 1114.8 230.3 1125.3 242.4 1135.5 254.7 1145.5 267.3 1155.1 280.1 1164.4 293.1 1173.4 306.4 1182 319.9 1190.4 333.5 1198.3 347.4 1206 361.5 1213.2 375.7 1220.2 390.1 1226.7 404.7 1232.9 419.4 1238.7 434.3 1244.2 449.3 1249.3 464.4 1254 479.6 1258.3 494.9 1262.2 510.4 1265.8 525.9 1268.9 541.5 1271.7 557.1 1274.1 572.8 1276.1 588.6 1277.7 604.3 1278.9 620.2 1279.7 636 1280.1 651.8 1280.1 667.6 1279.7 683.5 1278.9 699.2 1277.7 715 1276.1 730.7 1274.1 746.3 1271.7 761.9 1268.9 777.4 1265.8 792.9 1262.2 808.2 1258.3 823.4 1254 838.5 1249.3 853.5 1244.2 868.4 1238.7 883.1 1232.9 897.7 1226.7 912.1 1220.2 926.3 1213.2 940.4 1206 954.3 1198.3 967.9 1190.4 981.4 1182 994.7 1173.4 1007.7 1164.4 1020.5 1155.1 1033.1 1145.5 1045.4 1135.5 1057.5 1125.3 1069.3 1114.8 1080.8 1103.9 1092.1 1092.8 1103.1 1081.4 1113.8 1069.7 1124.2 1057.8 1134.3 1045.6 1144 1033.1 1153.5 1020.4 1162.6 1007.5 1171.5 994.4 1179.9 981 1188.1 967.4 1195.9 953.7 1203.3 939.7 1210.4 925.5 1217.2 911.2 1223.6 896.7 1229.6 882.1 1235.2 867.3 1240.5 852.4 1245.4 837.3 1249.9 822.1 1254 806.8 1257.8 791.5 1261.1 776 1264.1 760.4 1266.7 744.8 1268.8 729.1 1270.6 713.4 1272 697.6 1273 681.8 1273.6 666 1273.8 650.2 1273.6 634.4 1273 618.6 1272 602.8 1270.6 587 1268.8 571.3 1266.7 555.6 1264.1 540 1261.1 524.4 1257.8 508.9 1254 493.6 1249.9 478.3 1245.4 463.1 1240.5 448 1235.2 433.1 1229.6 418.3 1223.6 403.7 1217.2 389.2 1210.4 374.9 1203.3 360.7 1195.9 346.7 1188.1 333 1179.9 319.4 1171.5 306 1162.6 292.9 1153.5 280 1144 267.3 1134.3 254.8 1124.2 242.6 1113.8 230.7 1103.1 219 1092.1 207.6 1080.8 196.5 1069.3 185.6 1057.5 175.1 1045.4 164.9 1033.1 154.9 1020.5 145.3 1007.7 136 994.7 127 981.4 118.4 967.9 110 954.3 102.1 940.4 94.4 926.3 87.2 912.1 80.2 897.7 73.7 883.1 67.5 868.4 61.7 853.5 56.2 838.5 51.1 823.4 46.4 808.2 42.1 792.9 38.2 777.4 34.6 761.9 31.5 746.3 28.7 730.7 26.3 715 24.3 699.2 22.7 683.5 21.5 667.6 20.7 651.8 20.3 636 20.3 620.2 20.7 604.3 21.5 588.6 22.7 572.8 24.3 557.1 26.3 541.5 28.7 525.9 31.5 510.4 34.6 494.9 38.2 479.6 42.1 464.4 46.4 449.3 51.1 434.3 56.2 419.4 61.7 404.7 67.5 390.1 73.7 375.7 80.2 361.5 87.2 347.4 94.4 333.5 102.1 319.9 110 306.4 118.4 293.1 127 280.1 136 267.3 145.3 254.7 154.9 242.4 164.9 230.3 175.1 218.5 185.6 207 196.5 195.7 207.6 184.7 219 174 230.7 163.6 242.6 153.5 254.8 143.8 267.3 134.3 280 125.2 292.9 116.3 306 107.9 319.4 99.7 333 91.9 346.7 84.5 360.7 77.4 374.9 70.6 389.2 64.2 403.7 58.2 418.3 52.6 433.1 47.3 448 42.4 463.1 37.9 478.3 33.8 493.6 30 508.9 26.7 524.4 23.7 540 21.1 555.6 19 571.3 17.2 587 15.8 602.8 14.8 618.6 14.2 634.4 14 650.2 M 567.1 125.2 567.3 127.8 567.9 130.4 568.9 132.9 570.2 135.2 571.8 137.2 573.8 139 576 140.5 578.3 141.7 580.9 142.5 583.5 142.9 586.1 142.9 588.7 142.5 591.3 141.7 593.7 140.5 595.8 139 597.8 137.2 599.4 135.2 600.7 132.9 601.7 130.4 602.3 127.8 602.5 125.2 602.3 122.6 601.7 120 600.7 117.5 599.4 115.2 597.8 113.2 595.8 111.4 593.6 109.9 591.3 108.7 588.7 107.9 586.1 107.5 583.5 107.5 580.9 107.9 578.3 108.7 575.9 109.9 573.8 111.4 571.8 113.2 570.2 115.2 568.9 117.5 567.9 120 567.3 122.6 567.1 125.2 M 685.2 125.2 685.4 127.8 686 130.4 687 132.9 688.3 135.2 689.9 137.2 691.9 139 694.1 140.5 696.4 141.7 699 142.5 701.6 142.9 704.2 142.9 706.8 142.5 709.4 141.7 711.8 140.5 713.9 139 715.9 137.2 717.5 135.2 718.8 132.9 719.8 130.4 720.4 127.8 720.6 125.2 720.4 122.6 719.8 120 718.8 117.5 717.5 115.2 715.9 113.2 713.9 111.4 711.7 109.9 709.4 108.7 706.8 107.9 704.2 107.5 701.6 107.5 699 107.9 696.4 108.7 694 109.9 691.9 111.4 689.9 113.2 688.3 115.2 687 117.5 686 120 685.4 122.6 685.2 125.2" fill="none" stroke-width="7.9"/></clipPath><mask id="vj3syW5yHQ_UqtTDJsTX_bottom_mech-mask"><g fill="#000" stroke="#000"><rect x="14" y="20.3" width="1259.8" height="1259.8" fill="#fff"/><use xlink:href="#vj3syW5yHQ_UqtTDJsTX_bottom_drill1"/></g></mask><mask id="vj3syW5yHQ_UqtTDJsTX_bottom_cf-mask"><g fill="#fff" stroke="#fff"><use xlink:href="#vj3syW5yHQ_UqtTDJsTX_bottom_soldermask"/></g></mask><mask id="vj3syW5yHQ_UqtTDJsTX_bottom_sm-mask"><g fill="#000" stroke="#000"><rect x="14" y="20.3" width="1259.8" height="1259.8" fill="#fff"/><use xlink:href="#vj3syW5yHQ_UqtTDJsTX_bottom_soldermask"/></g></mask></defs><g transform="translate(0,1300.3999999999999) scale(1,-1)"><g mask="url(#vj3syW5yHQ_UqtTDJsTX_bottom_mech-mask)" clip-path="url(#vj3syW5yHQ_UqtTDJsTX_bottom_outline)" transform="translate(1287.8,0) scale(-1,1)"><rect x="14" y="20.3" width="1259.8" height="1259.8" fill="currentColor" class="vj3syW5yHQ_UqtTDJsTX_fr4"/><use xlink:href="#vj3syW5yHQ_UqtTDJsTX_bottom_copper" fill="currentColor" stroke="currentColor" class="vj3syW5yHQ_UqtTDJsTX_cu"/><use xlink:href="#vj3syW5yHQ_UqtTDJsTX_bottom_copper" fill="currentColor" stroke="currentColor" class="vj3syW5yHQ_UqtTDJsTX_cf" mask="url(#vj3syW5yHQ_UqtTDJsTX_bottom_cf-mask)"/><g mask="url(#vj3syW5yHQ_UqtTDJsTX_bottom_sm-mask)"><rect x="14" y="20.3" width="1259.8" height="1259.8" fill="currentColor" class="vj3syW5yHQ_UqtTDJsTX_sm"/><use xlink:href="#vj3syW5yHQ_UqtTDJsTX_bottom_silkscreen" fill="currentColor" stroke="currentColor" class="vj3syW5yHQ_UqtTDJsTX_ss"/></g></g></g></svg>