<svg version="1.1" xmlns="http://www.w3.org/2000/svg" xmlns:xlink="http://www.w3.org/1999/xlink" stroke-linecap="round" stroke-linejoin="round" stroke-width="0" fill-rule="evenodd" width="1.1168in" height="1.13605in" viewBox="82.1 66.15 1116.8 1136.05" id="Su9l_2XGfHKCkpBxsy_5"><defs><circle cx="0" cy="0" r="53.15" id="Su9l_2XGfHKCkpBxsy_5_pad-10"/><circle cx="0" cy="0" r="19.7" id="Su9l_2XGfHKCkpBxsy_5_pad-11"/><rect x="-19.7" y="-21.65" width="39.4" height="43.3" id="Su9l_2XGfHKCkpBxsy_5_pad-12"/><rect x="-15.75" y="-15.75" width="31.5" height="31.5" id="Su9l_2XGfHKCkpBxsy_5_pad-13"/><rect x="-9.85" y="-9.85" width="19.7" height="19.7" id="Su9l_2XGfHKCkpBxsy_5_pad-14"/><rect x="-5.9" y="-5.9" width="11.8" height="11.8" id="Su9l_2XGfHKCkpBxsy_5_pad-15"/><rect x="-19.7" y="-27.55" width="39.4" height="55.1" id="Su9l_2XGfHKCkpBxsy_5_pad-16"/><rect x="-13.8" y="-31.5" width="27.6" height="63" id="Su9l_2XGfHKCkpBxsy_5_pad-17"/><rect x="-19.7" y="-15.75" width="39.4" height="31.5" id="Su9l_2XGfHKCkpBxsy_5_pad-18"/><rect x="-43.3" y="-11.8" width="86.6" height="23.6" id="Su9l_2XGfHKCkpBxsy_5_pad-19"/><circle cx="0" cy="0" r="11.8" id="Su9l_2XGfHKCkpBxsy_5_pad-20"/></defs><g transform="translate(0,1268.35) scale(1,-1)" fill="currentColor" stroke="currentColor"><use xlink:href="#Su9l_2XGfHKCkpBxsy_5_pad-10" x="228.5" y="591.2"/><use xlink:href="#Su9l_2XGfHKCkpBxsy_5_pad-10" x="1059.2" y="591.2"/><use xlink:href="#Su9l_2XGfHKCkpBxsy_5_pad-11" x="893.9" y="1125.2"/><use xlink:href="#Su9l_2XGfHKCkpBxsy_5_pad-11" x="793.9" y="1125.2"/><use xlink:href="#Su9l_2XGfHKCkpBxsy_5_pad-11" x="693.9" y="1125.2"/><use xlink:href="#Su9l_2XGfHKCkpBxsy_5_pad-11" x="593.9" y="1125.2"/><use xlink:href="#Su9l_2XGfHKCkpBxsy_5_pad-11" x="493.9" y="1125.2"/><use xlink:href="#Su9l_2XGfHKCkpBxsy_5_pad-11" x="393.9" y="1125.2"/><use xlink:href="#Su9l_2XGfHKCkpBxsy_5_pad-12" x="457" y="737.7"/><use xlink:href="#Su9l_2XGfHKCkpBxsy_5_pad-12" x="535.8" y="737.7"/><use xlink:href="#Su9l_2XGfHKCkpBxsy_5_pad-12" x="751.9" y="737.7"/><use xlink:href="#Su9l_2XGfHKCkpBxsy_5_pad-12" x="830.7" y="737.7"/><use xlink:href="#Su9l_2XGfHKCkpBxsy_5_pad-13" x="811" y="812.7"/><use xlink:href="#Su9l_2XGfHKCkpBxsy_5_pad-13" x="748" y="812.7"/><use xlink:href="#Su9l_2XGfHKCkpBxsy_5_pad-13" x="539.7" y="812.7"/><use xlink:href="#Su9l_2XGfHKCkpBxsy_5_pad-13" x="476.7" y="812.7"/><use xlink:href="#Su9l_2XGfHKCkpBxsy_5_pad-13" x="612.4" y="487.7"/><use xlink:href="#Su9l_2XGfHKCkpBxsy_5_pad-13" x="675.4" y="487.7"/><use xlink:href="#Su9l_2XGfHKCkpBxsy_5_pad-14" x="742.1" y="875.2"/><use xlink:href="#Su9l_2XGfHKCkpBxsy_5_pad-14" x="781.5" y="875.2"/><use xlink:href="#Su9l_2XGfHKCkpBxsy_5_pad-14" x="545.6" y="875.2"/><use xlink:href="#Su9l_2XGfHKCkpBxsy_5_pad-14" x="506.3" y="875.2"/><use xlink:href="#Su9l_2XGfHKCkpBxsy_5_pad-15" x="525.9" y="925.2"/><use xlink:href="#Su9l_2XGfHKCkpBxsy_5_pad-15" x="549.6" y="925.2"/><use xlink:href="#Su9l_2XGfHKCkpBxsy_5_pad-15" x="738.1" y="925.2"/><use xlink:href="#Su9l_2XGfHKCkpBxsy_5_pad-15" x="761.8" y="925.2"/><use xlink:href="#Su9l_2XGfHKCkpBxsy_5_pad-16" x="751.9" y="637.7"/><use xlink:href="#Su9l_2XGfHKCkpBxsy_5_pad-16" x="885.8" y="637.7"/><use xlink:href="#Su9l_2XGfHKCkpBxsy_5_pad-16" x="535.8" y="637.7"/><use xlink:href="#Su9l_2XGfHKCkpBxsy_5_pad-16" x="401.9" y="637.7"/><use xlink:href="#Su9l_2XGfHKCkpBxsy_5_pad-17" x="555.3" y="196.1"/><use xlink:href="#Su9l_2XGfHKCkpBxsy_5_pad-17" x="673.4" y="196.1"/><use xlink:href="#Su9l_2XGfHKCkpBxsy_5_pad-17" x="732.4" y="196.1"/><use xlink:href="#Su9l_2XGfHKCkpBxsy_5_pad-18" x="787.6" y="168.5"/><use xlink:href="#Su9l_2XGfHKCkpBxsy_5_pad-18" x="787.6" y="81.9"/><use xlink:href="#Su9l_2XGfHKCkpBxsy_5_pad-18" x="500.2" y="81.9"/><use xlink:href="#Su9l_2XGfHKCkpBxsy_5_pad-18" x="500.2" y="168.5"/><use xlink:href="#Su9l_2XGfHKCkpBxsy_5_pad-19" x="541.5" y="275.2"/><use xlink:href="#Su9l_2XGfHKCkpBxsy_5_pad-19" x="541.5" y="325.2"/><use xlink:href="#Su9l_2XGfHKCkpBxsy_5_pad-19" x="541.5" y="375.2"/><use xlink:href="#Su9l_2XGfHKCkpBxsy_5_pad-19" x="541.5" y="425.2"/><use xlink:href="#Su9l_2XGfHKCkpBxsy_5_pad-19" x="746.2" y="425.2"/><use xlink:href="#Su9l_2XGfHKCkpBxsy_5_pad-19" x="746.2" y="375.2"/><use xlink:href="#Su9l_2XGfHKCkpBxsy_5_pad-19" x="746.2" y="325.2"/><use xlink:href="#Su9l_2XGfHKCkpBxsy_5_pad-19" x="746.2" y="275.2"/><use xlink:href="#Su9l_2XGfHKCkpBxsy_5_pad-20" x="643.9" y="350.2"/><use xlink:href="#Su9l_2XGfHKCkpBxsy_5_pad-20" x="568.9" y="487.7"/><use xlink:href="#Su9l_2XGfHKCkpBxsy_5_pad-20" x="643.9" y="687.7"/><use xlink:href="#Su9l_2XGfHKCkpBxsy_5_pad-20" x="943.9" y="375.2"/><use xlink:href="#Su9l_2XGfHKCkpBxsy_5_pad-20" x="981.4" y="325.2"/><use xlink:href="#Su9l_2XGfHKCkpBxsy_5_pad-20" x="1018.9" y="275.2"/><use xlink:href="#Su9l_2XGfHKCkpBxsy_5_pad-20" x="1034.2" y="212.7"/><use xlink:href="#Su9l_2XGfHKCkpBxsy_5_pad-20" x="1093.9" y="275.2"/><use xlink:href="#Su9l_2XGfHKCkpBxsy_5_pad-20" x="1093.9" y="325.2"/><use xlink:href="#Su9l_2XGfHKCkpBxsy_5_pad-20" x="1093.9" y="375.2"/><use xlink:href="#Su9l_2XGfHKCkpBxsy_5_pad-20" x="643.9" y="1032.9"/><use xlink:href="#Su9l_2XGfHKCkpBxsy_5_pad-20" x="643.9" y="1112.8"/><use xlink:href="#Su9l_2XGfHKCkpBxsy_5_pad-20" x="643.9" y="1190.4"/><use xlink:href="#Su9l_2XGfHKCkpBxsy_5_pad-20" x="731.4" y="1152.9"/><use xlink:href="#Su9l_2XGfHKCkpBxsy_5_pad-20" x="733.5" y="1074.2"/><use xlink:href="#Su9l_2XGfHKCkpBxsy_5_pad-20" x="556.4" y="1074.2"/><use xlink:href="#Su9l_2XGfHKCkpBxsy_5_pad-20" x="556.4" y="1152.9"/><use xlink:href="#Su9l_2XGfHKCkpBxsy_5_pad-20" x="393.9" y="1037.7"/><use xlink:href="#Su9l_2XGfHKCkpBxsy_5_pad-20" x="319.1" y="1073.5"/><use xlink:href="#Su9l_2XGfHKCkpBxsy_5_pad-20" x="319.1" y="1112.8"/><use xlink:href="#Su9l_2XGfHKCkpBxsy_5_pad-20" x="319.1" y="1152.2"/><use xlink:href="#Su9l_2XGfHKCkpBxsy_5_pad-20" x="243.9" y="962.7"/><use xlink:href="#Su9l_2XGfHKCkpBxsy_5_pad-20" x="193.9" y="487.7"/><use xlink:href="#Su9l_2XGfHKCkpBxsy_5_pad-20" x="193.9" y="425.2"/><use xlink:href="#Su9l_2XGfHKCkpBxsy_5_pad-20" x="93.9" y="450.2"/><use xlink:href="#Su9l_2XGfHKCkpBxsy_5_pad-20" x="968.7" y="1073.5"/><use xlink:href="#Su9l_2XGfHKCkpBxsy_5_pad-20" x="968.7" y="1112.8"/><use xlink:href="#Su9l_2XGfHKCkpBxsy_5_pad-20" x="968.7" y="1152.2"/><path d="M 541.5 325.2 206.4 325.2 118.9 412.7 118.9 862.7 181.4 925.2 525.9 925.2 M 549.6 925.2 738.1 925.2 M 761.8 925.2 943.9 925.2 968.9 900.2 968.9 875.2 968.9 812.7 968.9 737.7 968.9 687.7 643.9 687.7 M 751.9 637.7 535.8 637.7 M 518.9 575.2 943.9 575.2 1018.9 500.2 1018.9 275.2 746.2 275.2 M 746.2 325.2 981.4 325.2 981.4 500.2 931.4 550.2 368.9 550.2 343.9 575.2 343.9 712.7 368.9 737.7 457 737.7 M 476.7 812.7 343.9 812.7 318.9 787.7 318.9 550.2 343.9 525.2 918.9 525.2 943.9 500.2 943.9 375.2 746.2 375.2 M 746.2 425.2 746.2 462.7 721.2 487.7 675.4 487.7 M 673.4 425.2 618.9 425.2 581.4 462.7 456.4 462.7 431.4 487.7 193.9 487.7 M 143.9 437.7 206.4 375.2 541.5 375.2 M 541.5 425.2 193.9 425.2 M 143.9 437.7 143.9 850.2 168.9 875.2 506.3 875.2 M 545.6 875.2 742.1 875.2 M 781.5 875.2 968.9 875.2 M 968.9 812.7 811 812.7 M 748 812.7 539.7 812.7 M 535.8 737.7 751.9 737.7 M 830.7 737.7 968.9 737.7 M 968.9 687.7 968.9 662.7 943.9 637.7 885.8 637.7 M 1059.2 591.2 1059.2 237.7 1034.2 212.7 781.4 212.7 764.7 196.1 732.4 196.1 M 673.4 196.1 673.4 425.2 746.2 425.2 M 643.9 350.2 643.9 300.2 618.9 275.2 541.5 275.2 M 568.9 487.7 612.4 487.7 M 518.9 575.2 456.4 637.7 401.9 637.7 M 93.9 450.2 93.9 875.2 218.9 1000.2 468.9 1000.2 493.9 1025.2 493.9 1125.2 M 593.9 1125.2 593.9 987.7 568.9 962.7 243.9 962.7 M 393.9 1037.7 393.9 1125.2 M 693.9 1125.2 693.9 1000.2 718.9 975.2 1043.9 975.2 1143.9 875.2 1143.9 550.2 1093.9 500.2 1093.9 375.2 M 1118.9 350.2 1093.9 325.2 M 1118.9 350.2 1118.9 487.7 1168.9 537.7 1168.9 887.7 1056.4 1000.2 818.9 1000.2 793.9 1025.2 793.9 1125.2 M 893.9 1125.2 893.9 1050.2 918.9 1025.2 1068.9 1025.2 1193.9 900.2 1193.9 525.2 1143.9 475.2 1143.9 325.2 1093.9 275.2" fill="none" stroke-width="10"/></g></svg>