<svg version="1.1" xmlns="http://www.w3.org/2000/svg" xmlns:xlink="http://www.w3.org/1999/xlink" stroke-linecap="round" stroke-linejoin="round" stroke-width="0" fill-rule="evenodd" width="0.941in" height="1.1016in" viewBox="173.35 105.5 941 1101.6" id="Irl0R8tBcm0hDoK2LX54"><defs><circle cx="0" cy="0" r="55.15" id="Irl0R8tBcm0hDoK2LX54_pad-12"/><circle cx="0" cy="0" r="120.1" id="Irl0R8tBcm0hDoK2LX54_pad-13"/><circle cx="0" cy="0" r="19.7" id="Irl0R8tBcm0hDoK2LX54_pad-14"/></defs><g transform="translate(0,1312.6) scale(1,-1)" fill="currentColor" stroke="currentColor"><path d="M 599.2 1036.3 611.2 1030.5 624 1026.5 637.2 1024.5 650.5 1024.5 663.8 1026.5 676.5 1030.5 688.5 1036.3 699.5 1043.9 709.3 1053.1 717.5 1063.6 968.7 1063.6 971.2 1064 973.6 1064.9 975.6 1066.5 977.2 1068.5 978.2 1070.9 978.5 1073.5 978.5 1152.2 978.2 1154.8 977.2 1157.1 975.6 1159.2 973.6 1160.7 971.2 1161.7 968.7 1162 717.5 1162 709.3 1172.6 699.5 1181.7 688.5 1189.3 676.5 1195.2 663.8 1199.2 650.5 1201.2 637.2 1201.2 624 1199.2 611.2 1195.2 599.2 1189.3 588.2 1181.7 578.4 1172.6 570.2 1162 319.1 1162 316.5 1161.7 314.1 1160.7 312.1 1159.2 310.5 1157.1 309.5 1154.8 309.2 1152.2 309.2 1073.5 309.5 1070.9 310.5 1068.5 312.1 1066.5 314.1 1064.9 316.5 1064 319.1 1063.6 570.2 1063.6 578.4 1053.1 588.2 1043.9 599.2 1036.3 M 601.8 1035.1 685.9 1035.1 M 702.5 1046.7 585.2 1046.7 M 574.3 1058.4 713.4 1058.4 M 716.5 1163.3 571.2 1163.3 M 581 1175 706.7 1175 M 692.4 1186.6 595.3 1186.6 M 621.2 1198.3 666.5 1198.3 M 978.5 1151.7 309.2 1151.7 M 309.2 1140 978.5 1140 M 978.5 1128.3 309.2 1128.3 M 309.2 1116.7 978.5 1116.7 M 978.5 1105 309.2 1105 M 309.2 1093.4 978.5 1093.4 M 978.5 1081.7 309.2 1081.7 M 309.9 1070 977.8 1070" fill="none" stroke-width="11.8"/><path d="M 890.8 396.3 397 396.3 M 402.6 388.7 427.7 362.1 455.8 338.5 486.4 318.4 519.1 302 553.5 289.5 589.2 281 625.5 276.8 662.2 276.8 698.6 281 734.2 289.5 768.6 302 801.3 318.4 831.9 338.5 860 362.1 885.1 388.7 907 418.1 925.3 449.8 939.8 483.5 950.3 518.5 956.7 554.6 958.8 591.2 956.7 627.7 950.3 663.8 939.8 698.9 925.3 732.5 907 764.3 885.1 793.6 860 820.3 831.9 843.8 801.3 863.9 768.6 880.4 734.2 892.9 698.6 901.4 662.2 905.6 625.5 905.6 589.2 901.4 553.5 892.9 519.1 880.4 486.4 863.9 455.8 843.8 427.7 820.3 402.6 793.6 380.7 764.3 362.4 732.5 347.9 698.9 337.4 663.8 331 627.7 328.9 591.2 331 554.6 337.4 518.5 347.9 483.5 362.4 449.8 380.7 418.1 402.6 388.7 M 413.9 376.7 873.8 376.7 M 854.2 357.2 433.5 357.2 M 457.1 337.7 830.6 337.7 M 800.8 318.1 486.9 318.1 M 528.4 298.6 759.3 298.6 M 682 279.1 605.7 279.1 M 382.4 415.8 905.3 415.8 M 917 435.4 370.8 435.4 M 360.2 454.9 927.5 454.9 M 935.9 474.4 351.8 474.4 M 344.7 494 943 494 M 948.8 513.5 338.9 513.5 M 334.8 533 952.9 533 M 956.3 552.6 331.4 552.6 M 330 572.1 957.7 572.1 M 958.8 591.6 328.9 591.6 M 330.1 611.2 957.7 611.2 M 956.2 630.7 331.5 630.7 M 335 650.2 952.7 650.2 M 948.5 669.8 339.2 669.8 M 345 689.3 942.7 689.3 M 935.5 708.8 352.2 708.8 M 360.6 728.4 927.1 728.4 M 916.4 747.9 371.3 747.9 M 383.1 767.4 904.6 767.4 M 890.1 787 397.6 787 M 414.7 806.5 873 806.5 M 853.1 826.1 434.6 826.1 M 458.5 845.6 829.3 845.6 M 799 865.1 488.7 865.1 M 530.9 884.7 756.9 884.7 M 674.3 904.2 613.4 904.2" fill="none" stroke-width="19.7"/><use xlink:href="#Irl0R8tBcm0hDoK2LX54_pad-12" x="228.5" y="591.2"/><use xlink:href="#Irl0R8tBcm0hDoK2LX54_pad-12" x="1059.2" y="591.2"/><use xlink:href="#Irl0R8tBcm0hDoK2LX54_pad-13" x="643.9" y="591.2"/><use xlink:href="#Irl0R8tBcm0hDoK2LX54_pad-14" x="702.9" y="125.2"/><use xlink:href="#Irl0R8tBcm0hDoK2LX54_pad-14" x="584.8" y="125.2"/></g></svg>