<svg version="1.1" xmlns="http://www.w3.org/2000/svg" xmlns:xlink="http://www.w3.org/1999/xlink" stroke-linecap="round" stroke-linejoin="round" stroke-width="0" fill-rule="evenodd" width="1.2598in" height="1.2598in" viewBox="14 20.3 1259.8 1259.8" id="Frb3Io6bPwfWH6UMORht"><g transform="translate(0,1300.3999999999999) scale(1,-1)" fill="currentColor" stroke="currentColor"><path d="M 14 650.2 14.2 666 14.8 681.8 15.8 697.6 17.2 713.4 19 729.1 21.1 744.8 23.7 760.4 26.7 776 30 791.5 33.8 806.8 37.9 822.1 42.4 837.3 47.3 852.4 52.6 867.3 58.2 882.1 64.2 896.7 70.6 911.2 77.4 925.5 84.5 939.7 91.9 953.7 99.7 967.4 107.9 981 116.3 994.4 125.2 1007.5 134.3 1020.4 143.8 1033.1 153.5 1045.6 163.6 1057.8 174 1069.7 184.7 1081.4 195.7 1092.8 207 1103.9 218.5 1114.8 230.3 1125.3 242.4 1135.5 254.7 1145.5 267.3 1155.1 280.1 1164.4 293.1 1173.4 306.4 1182 319.9 1190.4 333.5 1198.3 347.4 1206 361.5 1213.2 375.7 1220.2 390.1 1226.7 404.7 1232.9 419.4 1238.7 434.3 1244.2 449.3 1249.3 464.4 1254 479.6 1258.3 494.9 1262.2 510.4 1265.8 525.9 1268.9 541.5 1271.7 557.1 1274.1 572.8 1276.1 588.6 1277.7 604.3 1278.9 620.2 1279.7 636 1280.1 651.8 1280.1 667.6 1279.7 683.5 1278.9 699.2 1277.7 715 1276.1 730.7 1274.1 746.3 1271.7 761.9 1268.9 777.4 1265.8 792.9 1262.2 808.2 1258.3 823.4 1254 838.5 1249.3 853.5 1244.2 868.4 1238.7 883.1 1232.9 897.7 1226.7 912.1 1220.2 926.3 1213.2 940.4 1206 954.3 1198.3 967.9 1190.4 981.4 1182 994.7 1173.4 1007.7 1164.4 1020.5 1155.1 1033.1 1145.5 1045.4 1135.5 1057.5 1125.3 1069.3 1114.8 1080.8 1103.9 1092.1 1092.8 1103.1 1081.4 1113.8 1069.7 1124.2 1057.8 1134.3 1045.6 1144 1033.1 1153.5 1020.4 1162.6 1007.5 1171.5 994.4 1179.9 981 1188.1 967.4 1195.9 953.7 1203.3 939.7 1210.4 925.5 1217.2 911.2 1223.6 896.7 1229.6 882.1 1235.2 867.3 1240.5 852.4 1245.4 837.3 1249.9 822.1 1254 806.8 1257.8 791.5 1261.1 776 1264.1 760.4 1266.7 744.8 1268.8 729.1 1270.6 713.4 1272 697.6 1273 681.8 1273.6 666 1273.8 650.2 1273.6 634.4 1273 618.6 1272 602.8 1270.6 587 1268.8 571.3 1266.7 555.6 1264.1 540 1261.1 524.4 1257.8 508.9 1254 493.6 1249.9 478.3 1245.4 463.1 1240.5 448 1235.2 433.1 1229.6 418.3 1223.6 403.7 1217.2 389.2 1210.4 374.9 1203.3 360.7 1195.9 346.7 1188.1 333 1179.9 319.4 1171.5 306 1162.6 292.9 1153.5 280 1144 267.3 1134.3 254.8 1124.2 242.6 1113.8 230.7 1103.1 219 1092.1 207.6 1080.8 196.5 1069.3 185.6 1057.5 175.1 1045.4 164.9 1033.1 154.9 1020.5 145.3 1007.7 136 994.7 127 981.4 118.4 967.9 110 954.3 102.1 940.4 94.4 926.3 87.2 912.1 80.2 897.7 73.7 883.1 67.5 868.4 61.7 853.5 56.2 838.5 51.1 823.4 46.4 808.2 42.1 792.9 38.2 777.4 34.6 761.9 31.5 746.3 28.7 730.7 26.3 715 24.3 699.2 22.7 683.5 21.5 667.6 20.7 651.8 20.3 636 20.3 620.2 20.7 604.3 21.5 588.6 22.7 572.8 24.3 557.1 26.3 541.5 28.7 525.9 31.5 510.4 34.6 494.9 38.2 479.6 42.1 464.4 46.4 449.3 51.1 434.3 56.2 419.4 61.7 404.7 67.5 390.1 73.7 375.7 80.2 361.5 87.2 347.4 94.4 333.5 102.1 319.9 110 306.4 118.4 293.1 127 280.1 136 267.3 145.3 254.7 154.9 242.4 164.9 230.3 175.1 218.5 185.6 207 196.5 195.7 207.6 184.7 219 174 230.7 163.6 242.6 153.5 254.8 143.8 267.3 134.3 280 125.2 292.9 116.3 306 107.9 319.4 99.7 333 91.9 346.7 84.5 360.7 77.4 374.9 70.6 389.2 64.2 403.7 58.2 418.3 52.6 433.1 47.3 448 42.4 463.1 37.9 478.3 33.8 493.6 30 508.9 26.7 524.4 23.7 540 21.1 555.6 19 571.3 17.2 587 15.8 602.8 14.8 618.6 14.2 634.4 14 650.2 M 567.1 125.2 567.3 127.8 567.9 130.4 568.9 132.9 570.2 135.2 571.8 137.2 573.8 139 576 140.5 578.3 141.7 580.9 142.5 583.5 142.9 586.1 142.9 588.7 142.5 591.3 141.7 593.7 140.5 595.8 139 597.8 137.2 599.4 135.2 600.7 132.9 601.7 130.4 602.3 127.8 602.5 125.2 602.3 122.6 601.7 120 600.7 117.5 599.4 115.2 597.8 113.2 595.8 111.4 593.6 109.9 591.3 108.7 588.7 107.9 586.1 107.5 583.5 107.5 580.9 107.9 578.3 108.7 575.9 109.9 573.8 111.4 571.8 113.2 570.2 115.2 568.9 117.5 567.9 120 567.3 122.6 567.1 125.2 M 685.2 125.2 685.4 127.8 686 130.4 687 132.9 688.3 135.2 689.9 137.2 691.9 139 694.1 140.5 696.4 141.7 699 142.5 701.6 142.9 704.2 142.9 706.8 142.5 709.4 141.7 711.8 140.5 713.9 139 715.9 137.2 717.5 135.2 718.8 132.9 719.8 130.4 720.4 127.8 720.6 125.2 720.4 122.6 719.8 120 718.8 117.5 717.5 115.2 715.9 113.2 713.9 111.4 711.7 109.9 709.4 108.7 706.8 107.9 704.2 107.5 701.6 107.5 699 107.9 696.4 108.7 694 109.9 691.9 111.4 689.9 113.2 688.3 115.2 687 117.5 686 120 685.4 122.6 685.2 125.2" fill="none" stroke-width="7.9"/></g></svg>